<svg xmlns="http://www.w3.org/2000/svg" xmlns:xlink="http://www.w3.org/1999/xlink" xmlns:lucid="lucid" width="2009" height="963"><g transform="translate(544 -266)" lucid:page-tab-id="IOISAf9-kCUi"><path d="M-500 0h2000v1500H-500z" fill="#fff"/><path d="M-500 308a8 8 0 0 1 8-8h1904a8 8 0 0 1 8 8v504a8 8 0 0 1-8 8H-492a8 8 0 0 1-8-8z" stroke="#6db1ff" stroke-width="4" fill="#cfe4ff"/><path d="M320 408a8 8 0 0 1 8-8h264a8 8 0 0 1 8 8v104.32a8 8 0 0 1-8 8H328a8 8 0 0 1-8-8z" stroke="#3a414a" stroke-width="4" fill="#f2f3f5"/><use xlink:href="#a" transform="matrix(1,0,0,1,320,400) translate(23.611111111111114 33.52777777777778)"/><use xlink:href="#b" transform="matrix(1,0,0,1,320,400) translate(76.57407407407408 33.52777777777778)"/><use xlink:href="#c" transform="matrix(1,0,0,1,320,400) translate(146.82098765432096 33.52777777777778)"/><path d="M560 968a8 8 0 0 1 8-8h844a8 8 0 0 1 8 8v224a8 8 0 0 1-8 8H568a8 8 0 0 1-8-8z" stroke="#fe7070" stroke-width="4" fill="#ffd9d9"/><path d="M620 1055a8 8 0 0 1 8-8h250.67a8 8 0 0 1 8 8v104.32a8 8 0 0 1-8 8H628a8 8 0 0 1-8-8z" stroke="#3a414a" stroke-width="4" fill="#f2f3f5"/><use xlink:href="#d" transform="matrix(1,0,0,1,620,1047) translate(39.05555555555554 33.52777777777778)"/><use xlink:href="#e" transform="matrix(1,0,0,1,620,1047) translate(118.37654320987653 33.52777777777778)"/><path d="M1100 1055a8 8 0 0 1 8-8h250.67a8 8 0 0 1 8 8v104.32a8 8 0 0 1-8 8H1108a8 8 0 0 1-8-8z" stroke="#3a414a" stroke-width="4" fill="#f2f3f5"/><use xlink:href="#f" transform="matrix(1,0,0,1,1100,1047) translate(30.351851851851848 33.52777777777778)"/><use xlink:href="#e" transform="matrix(1,0,0,1,1100,1047) translate(127.08024691358023 33.52777777777778)"/><path d="M-500 968a8 8 0 0 1 8-8H512a8 8 0 0 1 8 8v224a8 8 0 0 1-8 8H-492a8 8 0 0 1-8-8z" stroke="#9391ff" stroke-width="4" fill="#dedeff"/><path d="M-310 668a8 8 0 0 1 8-8h464a8 8 0 0 1 8 8v104a8 8 0 0 1-8 8h-464a8 8 0 0 1-8-8z" stroke="#3a414a" stroke-width="4" fill="#f2f3f5"/><use xlink:href="#g" transform="matrix(1,0,0,1,-310,660) translate(28.08641975308643 33.77777777777778)"/><use xlink:href="#h" transform="matrix(1,0,0,1,-310,660) translate(156.17283950617283 33.77777777777778)"/><use xlink:href="#i" transform="matrix(1,0,0,1,-310,660) translate(222.77777777777777 33.77777777777778)"/><use xlink:href="#c" transform="matrix(1,0,0,1,-310,660) translate(342.34567901234567 33.77777777777778)"/><path d="M750 668a8 8 0 0 1 8-8h464a8 8 0 0 1 8 8v104a8 8 0 0 1-8 8H758a8 8 0 0 1-8-8z" stroke="#3a414a" stroke-width="4" fill="#f2f3f5"/><use xlink:href="#j" transform="matrix(1,0,0,1,750,660) translate(61.327160493827165 33.77777777777778)"/><use xlink:href="#h" transform="matrix(1,0,0,1,750,660) translate(122.9320987654321 33.77777777777778)"/><use xlink:href="#i" transform="matrix(1,0,0,1,750,660) translate(189.53703703703704 33.77777777777778)"/><use xlink:href="#c" transform="matrix(1,0,0,1,750,660) translate(309.10493827160496 33.77777777777778)"/><path d="M460 524.32v45.84a20 20 0 0 1-20 20H-50a20 20 0 0 0-20 20v44.2" stroke="#979ea8" stroke-width="4" fill="none"/><path d="M461.98 524.37h-3.96v-2.05h3.96z" stroke="#979ea8" stroke-width=".05" fill="#979ea8"/><path d="M-60 636.68L-70 654l-10-17.32M460 524.32v45.84a20 20 0 0 0 20 20h490a20 20 0 0 1 20 20v44.2" stroke="#979ea8" stroke-width="4" fill="none"/><path d="M461.98 524.37h-3.96v-2.05h3.96z" stroke="#979ea8" stroke-width=".05" fill="#979ea8"/><path d="M1000 636.68L990 654l-10-17.32M-70 784v109.5a20 20 0 0 0 20 20h97.33a20 20 0 0 1 20 20v107.88" stroke="#979ea8" stroke-width="4" fill="none"/><path d="M-68.03 784.05h-3.94V782h3.94z" stroke="#979ea8" stroke-width=".05" fill="#979ea8"/><path d="M77.33 1023.7l-10 17.32-10-17.32M-70 784v109.5a20 20 0 0 0 20 20h393a20 20 0 0 1 20 20v107.86" stroke="#979ea8" stroke-width="4" fill="none"/><path d="M-68.03 784.05h-3.94V782h3.94z" stroke="#979ea8" stroke-width=".05" fill="#979ea8"/><path d="M373 1023.68L363 1041l-10-17.32M990 784v109.5a20 20 0 0 1-20 20H773.33a20 20 0 0 0-20 20v107.86" stroke="#979ea8" stroke-width="4" fill="none"/><path d="M991.98 784.05H988V782H992z" stroke="#979ea8" stroke-width=".05" fill="#979ea8"/><path d="M763.33 1023.68l-10 17.32-10-17.32M990 784v109.5a20 20 0 0 0 20 20h203.33a20 20 0 0 1 20 20v107.86" stroke="#979ea8" stroke-width="4" fill="none"/><path d="M991.98 784.05H988V782H992z" stroke="#979ea8" stroke-width=".05" fill="#979ea8"/><path d="M1243.33 1023.68l-10 17.32-10-17.32" stroke="#979ea8" stroke-width="4" fill="none"/><path d="M400 330a10 10 0 0 1 10-10h100a10 10 0 0 1 10 10v20a10 10 0 0 1-10 10H410a10 10 0 0 1-10-10z" stroke="#6db1ff" stroke-width="4" fill="#6db1ff"/><path d="M390 329a6 6 0 0 1 6-6h128a6 6 0 0 1 6 6v28a6 6 0 0 1-6 6H396a6 6 0 0 1-6-6z" stroke="#000" stroke-opacity="0" stroke-width="4" fill="#fff" fill-opacity="0"/><use xlink:href="#k" transform="matrix(1,0,0,1,395,328) translate(23.117283950617285 19.65277777777778)"/><use xlink:href="#l" transform="matrix(1,0,0,1,395,328) translate(76.08024691358025 19.65277777777778)"/><path d="M-160 981.67a10 10 0 0 1 10-10H10a10 10 0 0 1 10 10v20a10 10 0 0 1-10 10h-160a10 10 0 0 1-10-10z" stroke="#9391ff" stroke-width="4" fill="#9391ff"/><path d="M-159 968a6 6 0 0 1 6-6H15a6 6 0 0 1 6 6v51.33a6 6 0 0 1-6 6h-168a6 6 0 0 1-6-6z" stroke="#000" stroke-opacity="0" stroke-width="4" fill="#fff" fill-opacity="0"/><use xlink:href="#m" transform="matrix(1,0,0,1,-154,967) translate(5.555555555555571 31.27777777777778)"/><use xlink:href="#n" transform="matrix(1,0,0,1,-154,967) translate(133.64197530864197 31.27777777777778)"/><path d="M899.67 990.33a10 10 0 0 1 10-10h160a10 10 0 0 1 10 10v20a10 10 0 0 1-10 10h-160a10 10 0 0 1-10-10z" stroke="#fe7070" stroke-width="4" fill="#fe7070"/><path d="M900.33 977.67a6 6 0 0 1 6-6h168a6 6 0 0 1 6 6V1029a6 6 0 0 1-6 6h-168a6 6 0 0 1-6-6z" stroke="#000" stroke-opacity="0" stroke-width="4" fill="#fff" fill-opacity="0"/><use xlink:href="#o" transform="matrix(1,0,0,1,905.3333333333334,976.6666666666667) translate(38.7962962962963 31.27777777777778)"/><use xlink:href="#n" transform="matrix(1,0,0,1,905.3333333333334,976.6666666666667) translate(100.40123456790124 31.27777777777778)"/><path d="M888.67 712a6 6 0 0 1 6-6h128a6 6 0 0 1 6 6v51.33a6 6 0 0 1-6 6h-128a6 6 0 0 1-6-6z" stroke="#000" stroke-opacity="0" stroke-width="4" fill="#fff" fill-opacity="0"/><use xlink:href="#p" transform="matrix(1,0,0,1,893.6666666666667,711) translate(43.641975308641975 21.15277777777778)"/><use xlink:href="#q" transform="matrix(1,0,0,1,893.6666666666667,711) translate(34.938271604938265 47.81944444444444)"/><path d="M1028.67 712a6 6 0 0 1 6-6H1086a6 6 0 0 1 6 6v51.33a6 6 0 0 1-6 6h-51.33a6 6 0 0 1-6-6z" stroke="#000" stroke-opacity="0" stroke-width="4" fill="#fff" fill-opacity="0"/><use xlink:href="#r" transform="matrix(1,0,0,1,1033.6666666666667,711) translate(18.629629629629633 21.15277777777778)"/><use xlink:href="#s" transform="matrix(1,0,0,1,1033.6666666666667,711) translate(9.617283950617285 47.81944444444444)"/><path d="M-171.67 712a6 6 0 0 1 6-6h128a6 6 0 0 1 6 6v51.33a6 6 0 0 1-6 6h-128a6 6 0 0 1-6-6z" stroke="#000" stroke-opacity="0" stroke-width="4" fill="#fff" fill-opacity="0"/><use xlink:href="#p" transform="matrix(1,0,0,1,-166.66666666666669,711.0000000000002) translate(43.641975308641975 21.15277777777778)"/><use xlink:href="#q" transform="matrix(1,0,0,1,-166.66666666666669,711.0000000000002) translate(34.938271604938265 47.81944444444444)"/><path d="M-31.67 712a6 6 0 0 1 6-6h51.34a6 6 0 0 1 6 6v51.33a6 6 0 0 1-6 6h-51.34a6 6 0 0 1-6-6z" stroke="#000" stroke-opacity="0" stroke-width="4" fill="#fff" fill-opacity="0"/><use xlink:href="#t" transform="matrix(1,0,0,1,-26.666666666666686,711.0000000000002) translate(29.308641975308642 21.15277777777778)"/><use xlink:href="#u" transform="matrix(1,0,0,1,-26.666666666666686,711.0000000000002) translate(9.617283950617285 47.81944444444444)"/><path d="M356.67 449a6 6 0 0 1 6-6h128a6 6 0 0 1 6 6v51.33a6 6 0 0 1-6 6h-128a6 6 0 0 1-6-6z" stroke="#000" stroke-opacity="0" stroke-width="4" fill="#fff" fill-opacity="0"/><use xlink:href="#v" transform="matrix(1,0,0,1,361.66666666666674,448) translate(43.641975308641975 21.15277777777778)"/><use xlink:href="#w" transform="matrix(1,0,0,1,361.66666666666674,448) translate(34.938271604938265 47.81944444444444)"/><path d="M496.67 449a6 6 0 0 1 6-6H554a6 6 0 0 1 6 6v51.33a6 6 0 0 1-6 6h-51.33a6 6 0 0 1-6-6z" stroke="#000" stroke-opacity="0" stroke-width="4" fill="#fff" fill-opacity="0"/><use xlink:href="#x" transform="matrix(1,0,0,1,501.66666666666674,448) translate(41.65432098765432 21.15277777777778)"/><use xlink:href="#y" transform="matrix(1,0,0,1,501.66666666666674,448) translate(9.617283950617285 47.81944444444444)"/><path d="M651.67 1109.98a6 6 0 0 1 6-6h128a6 6 0 0 1 6 6v51.34a6 6 0 0 1-6 6h-128a6 6 0 0 1-6-6z" stroke="#000" stroke-opacity="0" stroke-width="4" fill="#fff" fill-opacity="0"/><use xlink:href="#p" transform="matrix(1,0,0,1,656.6666666666666,1108.981627296588) translate(43.641975308641975 21.15277777777778)"/><use xlink:href="#q" transform="matrix(1,0,0,1,656.6666666666666,1108.981627296588) translate(34.938271604938265 47.81944444444444)"/><path d="M791.67 1109.98a6 6 0 0 1 6-6H849a6 6 0 0 1 6 6v51.34a6 6 0 0 1-6 6h-51.33a6 6 0 0 1-6-6z" stroke="#000" stroke-opacity="0" stroke-width="4" fill="#fff" fill-opacity="0"/><use xlink:href="#z" transform="matrix(1,0,0,1,796.6666666666666,1108.981627296588) translate(29.308641975308642 21.15277777777778)"/><use xlink:href="#A" transform="matrix(1,0,0,1,796.6666666666666,1108.981627296588) translate(0.9753086419753103 47.81944444444444)"/><path d="M1131.67 1109.98a6 6 0 0 1 6-6h128a6 6 0 0 1 6 6v51.34a6 6 0 0 1-6 6h-128a6 6 0 0 1-6-6z" stroke="#000" stroke-opacity="0" stroke-width="4" fill="#fff" fill-opacity="0"/><use xlink:href="#p" transform="matrix(1,0,0,1,1136.6666666666665,1108.981627296588) translate(43.641975308641975 21.15277777777778)"/><use xlink:href="#q" transform="matrix(1,0,0,1,1136.6666666666665,1108.981627296588) translate(34.938271604938265 47.81944444444444)"/><path d="M1271.67 1109.98a6 6 0 0 1 6-6H1329a6 6 0 0 1 6 6v51.34a6 6 0 0 1-6 6h-51.33a6 6 0 0 1-6-6z" stroke="#000" stroke-opacity="0" stroke-width="4" fill="#fff" fill-opacity="0"/><use xlink:href="#B" transform="matrix(1,0,0,1,1276.6666666666665,1108.981627296588) translate(29.308641975308642 21.15277777777778)"/><use xlink:href="#A" transform="matrix(1,0,0,1,1276.6666666666665,1108.981627296588) translate(0.9753086419753103 47.81944444444444)"/><path d="M-483.33 1055a8 8 0 0 1 8-8H-103a8 8 0 0 1 8 8v104.32a8 8 0 0 1-8 8h-372.33a8 8 0 0 1-8-8z" stroke="#3a414a" stroke-width="4" fill="#f2f3f5"/><g><use xlink:href="#C" transform="matrix(1,0,0,1,-483.3333333333333,1047) translate(12.055555555555571 33.52777777777778)"/><use xlink:href="#D" transform="matrix(1,0,0,1,-483.3333333333333,1047) translate(159.15432098765433 33.52777777777778)"/><use xlink:href="#c" transform="matrix(1,0,0,1,-483.3333333333333,1047) translate(266.37654320987656 33.52777777777778)"/></g><path d="M-330 1094.5a6 6 0 0 1 6-6h128a6 6 0 0 1 6 6v51.32a6 6 0 0 1-6 6h-128a6 6 0 0 1-6-6z" stroke="#000" stroke-opacity="0" stroke-width="4" fill="#fff" fill-opacity="0"/><g><use xlink:href="#p" transform="matrix(1,0,0,1,-324.9999999999999,1093.490813648294) translate(43.641975308641975 21.15277777777778)"/><use xlink:href="#q" transform="matrix(1,0,0,1,-324.9999999999999,1093.490813648294) translate(34.938271604938265 47.81944444444444)"/></g><path d="M-190 1094.5a6 6 0 0 1 6-6h51.33a6 6 0 0 1 6 6v51.32a6 6 0 0 1-6 6H-184a6 6 0 0 1-6-6z" stroke="#000" stroke-opacity="0" stroke-width="4" fill="#fff" fill-opacity="0"/><g><use xlink:href="#E" transform="matrix(1,0,0,1,-184.9999999999999,1093.490813648294) translate(16.962962962962962 21.15277777777778)"/><use xlink:href="#A" transform="matrix(1,0,0,1,-184.9999999999999,1093.490813648294) translate(0.9753086419753103 47.81944444444444)"/></g><path d="M-66 1055.02a8 8 0 0 1 8-8h250.67a8 8 0 0 1 8 8v104.3a8 8 0 0 1-8 8H-58a8 8 0 0 1-8-8z" stroke="#3a414a" stroke-width="4" fill="#f2f3f5"/><g><use xlink:href="#F" transform="matrix(1,0,0,1,-65.99999999999989,1047.018372703412) translate(34.05555555555556 33.52777777777778)"/><use xlink:href="#e" transform="matrix(1,0,0,1,-65.99999999999989,1047.018372703412) translate(123.37654320987653 33.52777777777778)"/></g><path d="M-34.33 1094.5a6 6 0 0 1 6-6h128a6 6 0 0 1 6 6v51.34a6 6 0 0 1-6 6h-128a6 6 0 0 1-6-6z" stroke="#000" stroke-opacity="0" stroke-width="4" fill="#fff" fill-opacity="0"/><g><use xlink:href="#p" transform="matrix(1,0,0,1,-29.3333333333332,1093.5091863517061) translate(43.641975308641975 21.15277777777778)"/><use xlink:href="#q" transform="matrix(1,0,0,1,-29.3333333333332,1093.5091863517061) translate(34.938271604938265 47.81944444444444)"/></g><path d="M105.67 1094.5a6 6 0 0 1 6-6H163a6 6 0 0 1 6 6v51.34a6 6 0 0 1-6 6h-51.33a6 6 0 0 1-6-6z" stroke="#000" stroke-opacity="0" stroke-width="4" fill="#fff" fill-opacity="0"/><g><use xlink:href="#G" transform="matrix(1,0,0,1,110.6666666666668,1093.5091863517061) translate(16.962962962962962 21.15277777777778)"/><use xlink:href="#A" transform="matrix(1,0,0,1,110.6666666666668,1093.5091863517061) translate(0.9753086419753103 47.81944444444444)"/></g><path d="M229.67 1055a8 8 0 0 1 8-8h250.66a8 8 0 0 1 8 8v104.32a8 8 0 0 1-8 8H237.67a8 8 0 0 1-8-8z" stroke="#3a414a" stroke-width="4" fill="#f2f3f5"/><g><use xlink:href="#H" transform="matrix(1,0,0,1,229.66666666666674,1047) translate(42.66666666666667 33.52777777777778)"/><use xlink:href="#e" transform="matrix(1,0,0,1,229.66666666666674,1047) translate(114.76543209876542 33.52777777777778)"/></g><path d="M261.33 1094.5a6 6 0 0 1 6-6h128a6 6 0 0 1 6 6v51.32a6 6 0 0 1-6 6h-128a6 6 0 0 1-6-6z" stroke="#000" stroke-opacity="0" stroke-width="4" fill="#fff" fill-opacity="0"/><g><use xlink:href="#p" transform="matrix(1,0,0,1,266.3333333333334,1093.490813648294) translate(43.641975308641975 21.15277777777778)"/><use xlink:href="#q" transform="matrix(1,0,0,1,266.3333333333334,1093.490813648294) translate(34.938271604938265 47.81944444444444)"/></g><path d="M401.33 1094.5a6 6 0 0 1 6-6h51.34a6 6 0 0 1 6 6v51.32a6 6 0 0 1-6 6h-51.34a6 6 0 0 1-6-6z" stroke="#000" stroke-opacity="0" stroke-width="4" fill="#fff" fill-opacity="0"/><g><use xlink:href="#E" transform="matrix(1,0,0,1,406.33333333333337,1093.490813648294) translate(16.962962962962962 21.15277777777778)"/><use xlink:href="#A" transform="matrix(1,0,0,1,406.33333333333337,1093.490813648294) translate(0.9753086419753103 47.81944444444444)"/></g><path d="M-70 784v109.5a20 20 0 0 1-20 20h-179.17a20 20 0 0 0-20 20v107.86" stroke="#979ea8" stroke-width="4" fill="none"/><path d="M-68.03 784.05h-3.94V782h3.94z" stroke="#979ea8" stroke-width=".05" fill="#979ea8"/><path d="M-279.17 1023.68l-10 17.32-10-17.32" stroke="#979ea8" stroke-width="4" fill="none"/><defs><path fill="#3a414a" d="M62-99C39-31 123 0 170-40s38-139 58-208h34C234-144 253 4 115 4 49 4 18-43 31-112l26-136h34" id="I"/><path fill="#3a414a" d="M194-120c59 52 2 134-86 124-53-6-90-18-98-63l31-7c8 30 29 43 70 43 46 0 84-17 71-62-32-43-135-20-137-98-3-89 178-90 191-16l-30 9c-8-48-127-53-127 5 0 53 81 35 115 65" id="J"/><path fill="#3a414a" d="M248-139C247-14 144 9 11 0l48-248c105-6 190 8 189 109zm-34 0c1-70-52-87-126-82L50-27c98 7 163-21 164-112" id="K"/><g id="a"><use transform="matrix(0.06172839506172839,0,0,0.06172839506172839,0,0)" xlink:href="#I"/><use transform="matrix(0.06172839506172839,0,0,0.06172839506172839,15.987654320987653,0)" xlink:href="#J"/><use transform="matrix(0.06172839506172839,0,0,0.06172839506172839,30.80246913580247,0)" xlink:href="#K"/></g><path fill="#3a414a" d="M249-183c0 48-29 72-75 77L221 0h-36l-43-103H65L45 0H11l48-248c83 2 190-17 190 65zm-34 3c0-55-74-39-127-41l-18 92c63-1 145 13 145-51" id="L"/><path fill="#3a414a" d="M20-101c0-91 52-143 145-150 126-9 127 168 53 223-23 17-55 32-93 32C57 4 20-33 20-101zm216-33c5-57-18-91-73-90-77 1-110 51-110 125 0 49 23 75 73 75 72-1 104-45 110-110" id="M"/><path fill="#3a414a" d="M151-220L108 0H75l42-220H32l6-28h203l-5 28h-85" id="N"/><g id="b"><use transform="matrix(0.06172839506172839,0,0,0.06172839506172839,0,0)" xlink:href="#L"/><use transform="matrix(0.06172839506172839,0,0,0.06172839506172839,15.987654320987653,0)" xlink:href="#M"/><use transform="matrix(0.06172839506172839,0,0,0.06172839506172839,33.2716049382716,0)" xlink:href="#M"/><use transform="matrix(0.06172839506172839,0,0,0.06172839506172839,50.55555555555555,0)" xlink:href="#N"/></g><path fill="#3a414a" d="M187 0l-14-72H61L19 0h-37l149-248h38L221 0h-34zm-19-99l-22-123L76-99h92" id="O"/><path fill="#3a414a" d="M125-24c46 0 70-25 89-51l25 16C214-24 183 4 123 4 8 4-5-146 60-208c32-50 158-61 191-5 5 7 9 14 11 22l-32 10c-9-28-33-43-69-43-74 0-108 51-108 125 0 46 24 75 72 75" id="P"/><path fill="#3a414a" d="M173 0L80-213 41 0H11l48-248h37l94 214 40-214h30L212 0h-39" id="Q"/><g id="c"><use transform="matrix(0.06172839506172839,0,0,0.06172839506172839,0,0)" xlink:href="#O"/><use transform="matrix(0.06172839506172839,0,0,0.06172839506172839,14.814814814814813,0)" xlink:href="#P"/><use transform="matrix(0.06172839506172839,0,0,0.06172839506172839,30.80246913580247,0)" xlink:href="#P"/><use transform="matrix(0.06172839506172839,0,0,0.06172839506172839,46.79012345679012,0)" xlink:href="#M"/><use transform="matrix(0.06172839506172839,0,0,0.06172839506172839,64.07407407407408,0)" xlink:href="#I"/><use transform="matrix(0.06172839506172839,0,0,0.06172839506172839,80.06172839506173,0)" xlink:href="#Q"/><use transform="matrix(0.06172839506172839,0,0,0.06172839506172839,96.0493827160494,0)" xlink:href="#N"/></g><path fill="#3a414a" d="M179 0l23-115H67L45 0H11l48-248h34L72-143h135l21-105h32L212 0h-33" id="R"/><path fill="#3a414a" d="M14 0l48-248h34L48 0H14" id="S"/><path fill="#3a414a" d="M60-170H36l11-78h32" id="T"/><g id="d"><use transform="matrix(0.06172839506172839,0,0,0.06172839506172839,0,0)" xlink:href="#P"/><use transform="matrix(0.06172839506172839,0,0,0.06172839506172839,15.987654320987653,0)" xlink:href="#R"/><use transform="matrix(0.06172839506172839,0,0,0.06172839506172839,31.975308641975307,0)" xlink:href="#L"/><use transform="matrix(0.06172839506172839,0,0,0.06172839506172839,47.96296296296296,0)" xlink:href="#S"/><use transform="matrix(0.06172839506172839,0,0,0.06172839506172839,54.135802469135804,0)" xlink:href="#J"/><use transform="matrix(0.06172839506172839,0,0,0.06172839506172839,68.95061728395062,0)" xlink:href="#T"/></g><g id="e"><use transform="matrix(0.06172839506172839,0,0,0.06172839506172839,0,0)" xlink:href="#O"/><use transform="matrix(0.06172839506172839,0,0,0.06172839506172839,14.814814814814813,0)" xlink:href="#P"/><use transform="matrix(0.06172839506172839,0,0,0.06172839506172839,30.80246913580247,0)" xlink:href="#P"/><use transform="matrix(0.06172839506172839,0,0,0.06172839506172839,46.79012345679012,0)" xlink:href="#M"/><use transform="matrix(0.06172839506172839,0,0,0.06172839506172839,64.07407407407408,0)" xlink:href="#I"/><use transform="matrix(0.06172839506172839,0,0,0.06172839506172839,80.06172839506173,0)" xlink:href="#Q"/><use transform="matrix(0.06172839506172839,0,0,0.06172839506172839,96.0493827160494,0)" xlink:href="#N"/></g><path fill="#3a414a" d="M11 0l48-248h184l-5 28H87l-15 79h140l-5 27H67L50-27h158l-5 27H11" id="U"/><path fill="#3a414a" d="M52-101C46-14 166-7 216-51l9-45h-74l6-28h105l-18 87C217-12 181 4 130 4 60 4 18-31 18-101c0-106 78-167 188-146 30 6 48 27 59 54l-34 9c-10-26-31-41-67-40-75 1-107 50-112 123" id="V"/><g id="f"><use transform="matrix(0.06172839506172839,0,0,0.06172839506172839,0,0)" xlink:href="#K"/><use transform="matrix(0.06172839506172839,0,0,0.06172839506172839,15.987654320987653,0)" xlink:href="#S"/><use transform="matrix(0.06172839506172839,0,0,0.06172839506172839,22.160493827160494,0)" xlink:href="#U"/><use transform="matrix(0.06172839506172839,0,0,0.06172839506172839,36.9753086419753,0)" xlink:href="#V"/><use transform="matrix(0.06172839506172839,0,0,0.06172839506172839,54.25925925925925,0)" xlink:href="#M"/><use transform="matrix(0.06172839506172839,0,0,0.06172839506172839,71.5432098765432,0)" xlink:href="#T"/><use transform="matrix(0.06172839506172839,0,0,0.06172839506172839,75.74074074074073,0)" xlink:href="#J"/></g><g id="g"><use transform="matrix(0.06172839506172839,0,0,0.06172839506172839,0,0)" xlink:href="#N"/><use transform="matrix(0.06172839506172839,0,0,0.06172839506172839,13.518518518518517,0)" xlink:href="#I"/><use transform="matrix(0.06172839506172839,0,0,0.06172839506172839,29.50617283950617,0)" xlink:href="#Q"/><use transform="matrix(0.06172839506172839,0,0,0.06172839506172839,45.49382716049382,0)" xlink:href="#V"/><use transform="matrix(0.06172839506172839,0,0,0.06172839506172839,62.77777777777777,0)" xlink:href="#J"/><use transform="matrix(0.06172839506172839,0,0,0.06172839506172839,77.59259259259258,0)" xlink:href="#N"/><use transform="matrix(0.06172839506172839,0,0,0.06172839506172839,91.1111111111111,0)" xlink:href="#U"/><use transform="matrix(0.06172839506172839,0,0,0.06172839506172839,105.92592592592591,0)" xlink:href="#Q"/></g><path fill="#3a414a" d="M219-77C219 17 104-2 11 0l48-248c73 2 169-15 169 57 0 38-24 54-60 60 29 5 51 21 51 54zm-26-111c0-44-62-31-105-33l-16 79c55 0 121 9 121-46zm-7 110c-1-49-69-36-119-38L50-27c61-1 137 12 136-51" id="W"/><path fill="#3a414a" d="M180 0L97-118 63-96 45 0H11l48-248h34L69-126c44-43 94-81 141-122h43L121-137 219 0h-39" id="X"/><g id="h"><use transform="matrix(0.06172839506172839,0,0,0.06172839506172839,0,0)" xlink:href="#W"/><use transform="matrix(0.06172839506172839,0,0,0.06172839506172839,14.814814814814813,0)" xlink:href="#O"/><use transform="matrix(0.06172839506172839,0,0,0.06172839506172839,29.629629629629626,0)" xlink:href="#Q"/><use transform="matrix(0.06172839506172839,0,0,0.06172839506172839,45.61728395061728,0)" xlink:href="#X"/></g><g id="i"><use transform="matrix(0.06172839506172839,0,0,0.06172839506172839,0,0)" xlink:href="#S"/><use transform="matrix(0.06172839506172839,0,0,0.06172839506172839,6.172839506172839,0)" xlink:href="#J"/><use transform="matrix(0.06172839506172839,0,0,0.06172839506172839,20.98765432098765,0)" xlink:href="#J"/><use transform="matrix(0.06172839506172839,0,0,0.06172839506172839,35.80246913580247,0)" xlink:href="#I"/><use transform="matrix(0.06172839506172839,0,0,0.06172839506172839,51.79012345679012,0)" xlink:href="#O"/><use transform="matrix(0.06172839506172839,0,0,0.06172839506172839,66.60493827160494,0)" xlink:href="#Q"/><use transform="matrix(0.06172839506172839,0,0,0.06172839506172839,82.5925925925926,0)" xlink:href="#P"/><use transform="matrix(0.06172839506172839,0,0,0.06172839506172839,98.58024691358025,0)" xlink:href="#U"/></g><g id="j"><use transform="matrix(0.06172839506172839,0,0,0.06172839506172839,0,0)" xlink:href="#S"/><use transform="matrix(0.06172839506172839,0,0,0.06172839506172839,6.172839506172839,0)" xlink:href="#L"/><use transform="matrix(0.06172839506172839,0,0,0.06172839506172839,22.160493827160494,0)" xlink:href="#M"/><use transform="matrix(0.06172839506172839,0,0,0.06172839506172839,39.44444444444444,0)" xlink:href="#Q"/></g><path fill="#fff" d="M238-95c0 69-44 99-111 99C63 4 22-25 22-93v-155h51v151c-1 38 19 59 55 60 90 1 49-130 58-211h52v153" id="Y"/><path fill="#fff" d="M169-182c-1-43-94-46-97-3 18 66 151 10 154 114 3 95-165 93-204 36-6-8-10-19-12-30l50-8c3 46 112 56 116 5-17-69-150-10-154-114-4-87 153-88 188-35 5 8 8 18 10 28" id="Z"/><path fill="#fff" d="M24-248c120-7 223 5 221 122C244-46 201 0 124 0H24v-248zM76-40c74 7 117-18 117-86 0-67-45-88-117-82v168" id="aa"/><g id="k"><use transform="matrix(0.06172839506172839,0,0,0.06172839506172839,0,0)" xlink:href="#Y"/><use transform="matrix(0.06172839506172839,0,0,0.06172839506172839,15.987654320987653,0)" xlink:href="#Z"/><use transform="matrix(0.06172839506172839,0,0,0.06172839506172839,30.80246913580247,0)" xlink:href="#aa"/></g><path fill="#fff" d="M230 0l2-204L168 0h-37L68-204 70 0H24v-248h70l56 185 57-185h69V0h-46" id="ab"/><path fill="#fff" d="M101-251c68 0 84 54 84 127C185-50 166 4 99 4S15-52 14-124c-1-75 17-127 87-127zm-1 216c37-5 36-46 36-89s4-89-36-89c-39 0-36 45-36 89 0 43-3 85 36 89" id="ac"/><g id="l"><use transform="matrix(0.06172839506172839,0,0,0.06172839506172839,0,0)" xlink:href="#ab"/><use transform="matrix(0.06172839506172839,0,0,0.06172839506172839,18.456790123456788,0)" xlink:href="#ac"/></g><path fill="#fff" d="M136-208V0H84v-208H4v-40h212v40h-80" id="ad"/><path fill="#fff" d="M175 0L67-191c6 58 2 128 3 191H24v-248h59L193-55c-6-58-2-129-3-193h46V0h-61" id="ae"/><path fill="#fff" d="M67-125c0 54 23 88 75 88 28 0 53-7 68-21v-34h-60v-39h108v91C232-14 192 4 140 4 58 4 20-42 15-125 8-236 126-280 215-234c19 10 29 26 37 47l-47 15c-11-23-29-39-63-39-53 1-75 33-75 86" id="af"/><path fill="#fff" d="M24 0v-248h195v40H76v63h132v40H76v65h150V0H24" id="ag"/><g id="m"><use transform="matrix(0.06172839506172839,0,0,0.06172839506172839,0,0)" xlink:href="#ad"/><use transform="matrix(0.06172839506172839,0,0,0.06172839506172839,13.518518518518517,0)" xlink:href="#Y"/><use transform="matrix(0.06172839506172839,0,0,0.06172839506172839,29.50617283950617,0)" xlink:href="#ae"/><use transform="matrix(0.06172839506172839,0,0,0.06172839506172839,45.49382716049382,0)" xlink:href="#af"/><use transform="matrix(0.06172839506172839,0,0,0.06172839506172839,62.77777777777777,0)" xlink:href="#Z"/><use transform="matrix(0.06172839506172839,0,0,0.06172839506172839,77.59259259259258,0)" xlink:href="#ad"/><use transform="matrix(0.06172839506172839,0,0,0.06172839506172839,91.1111111111111,0)" xlink:href="#ag"/><use transform="matrix(0.06172839506172839,0,0,0.06172839506172839,105.92592592592591,0)" xlink:href="#ae"/></g><path fill="#fff" d="M23 0v-37h61v-169l-59 37v-38l62-41h46v211h57V0H23" id="ah"/><g id="n"><use transform="matrix(0.06172839506172839,0,0,0.06172839506172839,0,0)" xlink:href="#ab"/><use transform="matrix(0.06172839506172839,0,0,0.06172839506172839,18.456790123456788,0)" xlink:href="#ah"/></g><path fill="#fff" d="M24 0v-248h52V0H24" id="ai"/><path fill="#fff" d="M240-174c0 40-23 61-54 70L253 0h-59l-57-94H76V0H24v-248c93 4 217-23 216 74zM76-134c48-2 112 12 112-38 0-48-66-32-112-35v73" id="aj"/><path fill="#fff" d="M140-251c80 0 125 45 125 126S219 4 139 4C58 4 15-44 15-125s44-126 125-126zm-1 214c52 0 73-35 73-88 0-50-21-86-72-86-52 0-73 35-73 86s22 88 72 88" id="ak"/><g id="o"><use transform="matrix(0.06172839506172839,0,0,0.06172839506172839,0,0)" xlink:href="#ai"/><use transform="matrix(0.06172839506172839,0,0,0.06172839506172839,6.172839506172839,0)" xlink:href="#aj"/><use transform="matrix(0.06172839506172839,0,0,0.06172839506172839,22.160493827160494,0)" xlink:href="#ak"/><use transform="matrix(0.06172839506172839,0,0,0.06172839506172839,39.44444444444444,0)" xlink:href="#ae"/></g><path fill="#3a414a" d="M160-131c35 5 61 23 61 61C221 17 115-2 30 0v-248c76 3 177-17 177 60 0 33-19 50-47 57zm-97-11c50-1 110 9 110-42 0-47-63-36-110-37v79zm0 115c55-2 124 14 124-45 0-56-70-42-124-44v89" id="al"/><path fill="#3a414a" d="M141-36C126-15 110 5 73 4 37 3 15-17 15-53c-1-64 63-63 125-63 3-35-9-54-41-54-24 1-41 7-42 31l-33-3c5-37 33-52 76-52 45 0 72 20 72 64v82c-1 20 7 32 28 27v20c-31 9-61-2-59-35zM48-53c0 20 12 33 32 33 41-3 63-29 60-74-43 2-92-5-92 41" id="am"/><path fill="#3a414a" d="M24 0v-261h32V0H24" id="an"/><path fill="#3a414a" d="M117-194c89-4 53 116 60 194h-32v-121c0-31-8-49-39-48C34-167 62-67 57 0H25l-1-190h30c1 10-1 24 2 32 11-22 29-35 61-36" id="ao"/><path fill="#3a414a" d="M96-169c-40 0-48 33-48 73s9 75 48 75c24 0 41-14 43-38l32 2c-6 37-31 61-74 61-59 0-76-41-82-99-10-93 101-131 147-64 4 7 5 14 7 22l-32 3c-4-21-16-35-41-35" id="ap"/><path fill="#3a414a" d="M100-194c63 0 86 42 84 106H49c0 40 14 67 53 68 26 1 43-12 49-29l28 8c-11 28-37 45-77 45C44 4 14-33 15-96c1-61 26-98 85-98zm52 81c6-60-76-77-97-28-3 7-6 17-6 28h103" id="aq"/><path fill="#3a414a" d="M33-154v-36h34v36H33zM33 0v-36h34V0H33" id="ar"/><g id="p"><use transform="matrix(0.06172839506172839,0,0,0.06172839506172839,0,0)" xlink:href="#al"/><use transform="matrix(0.06172839506172839,0,0,0.06172839506172839,14.814814814814813,0)" xlink:href="#am"/><use transform="matrix(0.06172839506172839,0,0,0.06172839506172839,27.160493827160494,0)" xlink:href="#an"/><use transform="matrix(0.06172839506172839,0,0,0.06172839506172839,32.03703703703704,0)" xlink:href="#am"/><use transform="matrix(0.06172839506172839,0,0,0.06172839506172839,44.382716049382715,0)" xlink:href="#ao"/><use transform="matrix(0.06172839506172839,0,0,0.06172839506172839,56.72839506172839,0)" xlink:href="#ap"/><use transform="matrix(0.06172839506172839,0,0,0.06172839506172839,67.8395061728395,0)" xlink:href="#aq"/><use transform="matrix(0.06172839506172839,0,0,0.06172839506172839,80.18518518518519,0)" xlink:href="#ar"/></g><path fill="#3a414a" d="M33 0v-248h34V0H33" id="as"/><path fill="#3a414a" d="M135-143c-3-34-86-38-87 0 15 53 115 12 119 90S17 21 10-45l28-5c4 36 97 45 98 0-10-56-113-15-118-90-4-57 82-63 122-42 12 7 21 19 24 35" id="at"/><path fill="#3a414a" d="M84 4C-5 8 30-112 23-190h32v120c0 31 7 50 39 49 72-2 45-101 50-169h31l1 190h-30c-1-10 1-25-2-33-11 22-28 36-60 37" id="au"/><g id="q"><use transform="matrix(0.06172839506172839,0,0,0.06172839506172839,0,0)" xlink:href="#as"/><use transform="matrix(0.06172839506172839,0,0,0.06172839506172839,6.172839506172839,0)" xlink:href="#at"/><use transform="matrix(0.06172839506172839,0,0,0.06172839506172839,17.28395061728395,0)" xlink:href="#at"/><use transform="matrix(0.06172839506172839,0,0,0.06172839506172839,28.39506172839506,0)" xlink:href="#au"/><use transform="matrix(0.06172839506172839,0,0,0.06172839506172839,40.74074074074074,0)" xlink:href="#am"/><use transform="matrix(0.06172839506172839,0,0,0.06172839506172839,53.08641975308642,0)" xlink:href="#ao"/><use transform="matrix(0.06172839506172839,0,0,0.06172839506172839,65.4320987654321,0)" xlink:href="#ap"/><use transform="matrix(0.06172839506172839,0,0,0.06172839506172839,76.54320987654322,0)" xlink:href="#aq"/><use transform="matrix(0.06172839506172839,0,0,0.06172839506172839,88.8888888888889,0)" xlink:href="#ar"/></g><path fill="#3a414a" d="M27 0v-27h64v-190l-56 39v-29l58-41h29v221h61V0H27" id="av"/><path fill="#3a414a" d="M101-251c68 0 85 55 85 127S166 4 100 4C33 4 14-52 14-124c0-73 17-127 87-127zm-1 229c47 0 54-49 54-102s-4-102-53-102c-51 0-55 48-55 102 0 53 5 102 54 102" id="aw"/><g id="r"><use transform="matrix(0.06172839506172839,0,0,0.06172839506172839,0,0)" xlink:href="#av"/><use transform="matrix(0.06172839506172839,0,0,0.06172839506172839,10.679012345679013,0)" xlink:href="#av"/><use transform="matrix(0.06172839506172839,0,0,0.06172839506172839,23.02469135802469,0)" xlink:href="#aw"/></g><path fill="#3a414a" d="M16-82v-28h88v28H16" id="ax"/><g id="s"><use transform="matrix(0.06172839506172839,0,0,0.06172839506172839,0,0)" xlink:href="#ax"/><use transform="matrix(0.06172839506172839,0,0,0.06172839506172839,7.345679012345679,0)" xlink:href="#av"/><use transform="matrix(0.06172839506172839,0,0,0.06172839506172839,19.691358024691358,0)" xlink:href="#aw"/><use transform="matrix(0.06172839506172839,0,0,0.06172839506172839,32.03703703703704,0)" xlink:href="#aw"/></g><path fill="#3a414a" d="M99-251c64 0 84 50 84 122C183-37 130 33 47-8c-14-7-20-23-25-40l30-5c6 39 69 39 84 7 9-19 16-44 16-74-10 22-31 35-62 35-49 0-73-33-73-83 0-54 28-83 82-83zm-1 141c31-1 51-18 51-49 0-36-14-67-51-67-34 0-49 23-49 58 0 34 15 58 49 58" id="ay"/><g id="t"><use transform="matrix(0.06172839506172839,0,0,0.06172839506172839,0,0)" xlink:href="#ay"/><use transform="matrix(0.06172839506172839,0,0,0.06172839506172839,12.345679012345679,0)" xlink:href="#aw"/></g><path fill="#3a414a" d="M54-142c48-35 137-8 131 61C196 18 31 33 14-55l32-4c7 23 22 37 52 37 35-1 51-22 54-58 4-55-73-65-99-34H22l8-134h141v27H59" id="az"/><g id="u"><use transform="matrix(0.06172839506172839,0,0,0.06172839506172839,0,0)" xlink:href="#ax"/><use transform="matrix(0.06172839506172839,0,0,0.06172839506172839,7.345679012345679,0)" xlink:href="#az"/><use transform="matrix(0.06172839506172839,0,0,0.06172839506172839,19.691358024691358,0)" xlink:href="#aw"/><use transform="matrix(0.06172839506172839,0,0,0.06172839506172839,32.03703703703704,0)" xlink:href="#aw"/></g><g id="v"><use transform="matrix(0.06172839506172839,0,0,0.06172839506172839,0,0)" xlink:href="#al"/><use transform="matrix(0.06172839506172839,0,0,0.06172839506172839,14.814814814814813,0)" xlink:href="#am"/><use transform="matrix(0.06172839506172839,0,0,0.06172839506172839,27.160493827160494,0)" xlink:href="#an"/><use transform="matrix(0.06172839506172839,0,0,0.06172839506172839,32.03703703703704,0)" xlink:href="#am"/><use transform="matrix(0.06172839506172839,0,0,0.06172839506172839,44.382716049382715,0)" xlink:href="#ao"/><use transform="matrix(0.06172839506172839,0,0,0.06172839506172839,56.72839506172839,0)" xlink:href="#ap"/><use transform="matrix(0.06172839506172839,0,0,0.06172839506172839,67.8395061728395,0)" xlink:href="#aq"/><use transform="matrix(0.06172839506172839,0,0,0.06172839506172839,80.18518518518519,0)" xlink:href="#ar"/></g><g id="w"><use transform="matrix(0.06172839506172839,0,0,0.06172839506172839,0,0)" xlink:href="#as"/><use transform="matrix(0.06172839506172839,0,0,0.06172839506172839,6.172839506172839,0)" xlink:href="#at"/><use transform="matrix(0.06172839506172839,0,0,0.06172839506172839,17.28395061728395,0)" xlink:href="#at"/><use transform="matrix(0.06172839506172839,0,0,0.06172839506172839,28.39506172839506,0)" xlink:href="#au"/><use transform="matrix(0.06172839506172839,0,0,0.06172839506172839,40.74074074074074,0)" xlink:href="#am"/><use transform="matrix(0.06172839506172839,0,0,0.06172839506172839,53.08641975308642,0)" xlink:href="#ao"/><use transform="matrix(0.06172839506172839,0,0,0.06172839506172839,65.4320987654321,0)" xlink:href="#ap"/><use transform="matrix(0.06172839506172839,0,0,0.06172839506172839,76.54320987654322,0)" xlink:href="#aq"/><use transform="matrix(0.06172839506172839,0,0,0.06172839506172839,88.8888888888889,0)" xlink:href="#ar"/></g><use transform="matrix(0.06172839506172839,0,0,0.06172839506172839,0,0)" xlink:href="#aw" id="x"/><path fill="#3a414a" d="M101-251c82-7 93 87 43 132L82-64C71-53 59-42 53-27h129V0H18c2-99 128-94 128-182 0-28-16-43-45-43s-46 15-49 41l-32-3c6-41 34-60 81-64" id="aA"/><g id="y"><use transform="matrix(0.06172839506172839,0,0,0.06172839506172839,0,0)" xlink:href="#ax"/><use transform="matrix(0.06172839506172839,0,0,0.06172839506172839,7.345679012345679,0)" xlink:href="#aA"/><use transform="matrix(0.06172839506172839,0,0,0.06172839506172839,19.691358024691358,0)" xlink:href="#aw"/><use transform="matrix(0.06172839506172839,0,0,0.06172839506172839,32.03703703703704,0)" xlink:href="#aw"/></g><path fill="#3a414a" d="M126-127c33 6 58 20 58 59 0 88-139 92-164 29-3-8-5-16-6-25l32-3c6 27 21 44 54 44 32 0 52-15 52-46 0-38-36-46-79-43v-28c39 1 72-4 72-42 0-27-17-43-46-43-28 0-47 15-49 41l-32-3c6-42 35-63 81-64 48-1 79 21 79 65 0 36-21 52-52 59" id="aB"/><g id="z"><use transform="matrix(0.06172839506172839,0,0,0.06172839506172839,0,0)" xlink:href="#aB"/><use transform="matrix(0.06172839506172839,0,0,0.06172839506172839,12.345679012345679,0)" xlink:href="#aw"/></g><path fill="#3a414a" d="M190 0L58-211 59 0H30v-248h39L202-35l-2-213h31V0h-41" id="aC"/><path fill="#3a414a" d="M100-194c62-1 85 37 85 99 1 63-27 99-86 99S16-35 15-95c0-66 28-99 85-99zM99-20c44 1 53-31 53-75 0-43-8-75-51-75s-53 32-53 75 10 74 51 75" id="aD"/><g id="A"><use transform="matrix(0.06172839506172839,0,0,0.06172839506172839,0,0)" xlink:href="#aC"/><use transform="matrix(0.06172839506172839,0,0,0.06172839506172839,15.987654320987653,0)" xlink:href="#aD"/><use transform="matrix(0.06172839506172839,0,0,0.06172839506172839,28.333333333333332,0)" xlink:href="#ao"/><use transform="matrix(0.06172839506172839,0,0,0.06172839506172839,40.67901234567901,0)" xlink:href="#aq"/></g><path fill="#3a414a" d="M64 0c3-98 48-159 88-221H18v-27h164v26C143-157 98-101 97 0H64" id="aE"/><g id="B"><use transform="matrix(0.06172839506172839,0,0,0.06172839506172839,0,0)" xlink:href="#aE"/><use transform="matrix(0.06172839506172839,0,0,0.06172839506172839,12.345679012345679,0)" xlink:href="#aw"/></g><g id="C"><use transform="matrix(0.06172839506172839,0,0,0.06172839506172839,0,0)" xlink:href="#N"/><use transform="matrix(0.06172839506172839,0,0,0.06172839506172839,13.518518518518517,0)" xlink:href="#I"/><use transform="matrix(0.06172839506172839,0,0,0.06172839506172839,29.50617283950617,0)" xlink:href="#Q"/><use transform="matrix(0.06172839506172839,0,0,0.06172839506172839,45.49382716049382,0)" xlink:href="#V"/><use transform="matrix(0.06172839506172839,0,0,0.06172839506172839,62.77777777777777,0)" xlink:href="#J"/><use transform="matrix(0.06172839506172839,0,0,0.06172839506172839,77.59259259259258,0)" xlink:href="#N"/><use transform="matrix(0.06172839506172839,0,0,0.06172839506172839,91.1111111111111,0)" xlink:href="#U"/><use transform="matrix(0.06172839506172839,0,0,0.06172839506172839,105.92592592592591,0)" xlink:href="#Q"/><use transform="matrix(0.06172839506172839,0,0,0.06172839506172839,121.91358024691357,0)" xlink:href="#T"/><use transform="matrix(0.06172839506172839,0,0,0.06172839506172839,126.1111111111111,0)" xlink:href="#J"/></g><path fill="#3a414a" d="M11 0l48-248h34L50-27h125l-5 27H11" id="aF"/><g id="D"><use transform="matrix(0.06172839506172839,0,0,0.06172839506172839,0,0)" xlink:href="#R"/><use transform="matrix(0.06172839506172839,0,0,0.06172839506172839,15.987654320987653,0)" xlink:href="#M"/><use transform="matrix(0.06172839506172839,0,0,0.06172839506172839,33.2716049382716,0)" xlink:href="#aF"/><use transform="matrix(0.06172839506172839,0,0,0.06172839506172839,45.61728395061728,0)" xlink:href="#K"/><use transform="matrix(0.06172839506172839,0,0,0.06172839506172839,61.60493827160493,0)" xlink:href="#S"/><use transform="matrix(0.06172839506172839,0,0,0.06172839506172839,67.77777777777777,0)" xlink:href="#Q"/><use transform="matrix(0.06172839506172839,0,0,0.06172839506172839,83.76543209876543,0)" xlink:href="#V"/></g><g id="E"><use transform="matrix(0.06172839506172839,0,0,0.06172839506172839,0,0)" xlink:href="#aA"/><use transform="matrix(0.06172839506172839,0,0,0.06172839506172839,12.345679012345679,0)" xlink:href="#aw"/><use transform="matrix(0.06172839506172839,0,0,0.06172839506172839,24.691358024691358,0)" xlink:href="#aw"/></g><g id="F"><use transform="matrix(0.06172839506172839,0,0,0.06172839506172839,0,0)" xlink:href="#O"/><use transform="matrix(0.06172839506172839,0,0,0.06172839506172839,14.814814814814813,0)" xlink:href="#aF"/><use transform="matrix(0.06172839506172839,0,0,0.06172839506172839,27.160493827160494,0)" xlink:href="#S"/><use transform="matrix(0.06172839506172839,0,0,0.06172839506172839,33.333333333333336,0)" xlink:href="#P"/><use transform="matrix(0.06172839506172839,0,0,0.06172839506172839,49.32098765432099,0)" xlink:href="#U"/><use transform="matrix(0.06172839506172839,0,0,0.06172839506172839,64.1358024691358,0)" xlink:href="#T"/><use transform="matrix(0.06172839506172839,0,0,0.06172839506172839,68.33333333333333,0)" xlink:href="#J"/></g><g id="G"><use transform="matrix(0.06172839506172839,0,0,0.06172839506172839,0,0)" xlink:href="#av"/><use transform="matrix(0.06172839506172839,0,0,0.06172839506172839,12.345679012345679,0)" xlink:href="#aw"/><use transform="matrix(0.06172839506172839,0,0,0.06172839506172839,24.691358024691358,0)" xlink:href="#aw"/></g><g id="H"><use transform="matrix(0.06172839506172839,0,0,0.06172839506172839,0,0)" xlink:href="#W"/><use transform="matrix(0.06172839506172839,0,0,0.06172839506172839,14.814814814814813,0)" xlink:href="#M"/><use transform="matrix(0.06172839506172839,0,0,0.06172839506172839,32.09876543209876,0)" xlink:href="#W"/><use transform="matrix(0.06172839506172839,0,0,0.06172839506172839,46.91358024691357,0)" xlink:href="#T"/><use transform="matrix(0.06172839506172839,0,0,0.06172839506172839,51.1111111111111,0)" xlink:href="#J"/></g></defs></g></svg>