<svg width="522" height="198" viewBox="0 0 522 198" fill="none" xmlns="http://www.w3.org/2000/svg"><g clip-path="url(#clip0_2403_55331)"><path d="M201.881 137.437C192.443 137.437 184.857 134.78 179.136 129.468C173.414 124.155 170.551 116.241 170.551 105.751V57.9356H153.938L150.939 40.2899H170.551V11.8213H191.131V40.2837H215.672V57.9294H191.131V104.617C191.131 109.295 192.297 112.876 194.62 115.341C196.95 117.807 200.127 119.045 204.15 119.045C208.681 119.045 212.459 118.288 215.476 116.778L216.984 135.182C212.453 136.697 207.412 137.449 201.881 137.449V137.437Z" fill="black"/><path d="M315.214 84.5057C315.214 76.5241 313.38 69.0603 309.738 62.1142C306.083 55.1496 300.741 49.5224 293.689 45.2266C286.637 40.9183 278.076 38.7734 268.381 38.7734C258.686 38.7734 250.358 41.017 243.374 45.5039C236.376 50.0032 231.066 56.0063 227.423 63.5317C223.768 71.0572 221.947 79.3716 221.947 88.0989C221.947 96.8262 223.836 104.999 227.601 112.586C231.379 120.185 236.862 126.213 244.036 130.712C251.21 135.199 259.649 137.443 269.326 137.443C280.529 137.443 289.973 134.91 297.645 129.862C305.328 124.796 310.418 117.652 312.939 108.42L293.494 103.476C292.236 108.666 289.495 112.684 285.276 115.532C281.057 118.379 275.869 119.797 269.705 119.797C264.04 119.797 259.134 118.502 254.97 115.902C250.819 113.313 247.618 109.609 245.343 104.808C243.699 101.326 242.656 97.4056 242.221 93.042H314.828C315.085 90.5088 315.207 87.6613 315.207 84.5057H315.214ZM243.049 77.2945C244.202 71.8585 246.25 67.3284 249.224 63.7228C253.946 57.9724 260.329 55.0817 268.381 55.0817C275.691 55.0817 281.516 57.1156 285.852 61.165C290.193 65.2081 292.671 70.5765 293.303 77.2945H243.049Z" fill="black"/><path d="M409.802 12.839C409.802 5.74426 404.037 0 396.917 0C389.797 0 384.033 5.74426 384.033 12.839V13.0591C384.033 20.1538 389.797 25.8981 396.917 25.8981C404.037 25.8981 409.802 20.1538 409.802 13.0591V12.839Z" fill="#4BCD3E"/><path d="M437.85 12.839C437.85 5.74426 432.086 0 424.966 0C417.846 0 412.082 5.74426 412.082 12.839V13.0591C412.082 20.1538 417.846 25.8981 424.966 25.8981C432.086 25.8981 437.85 20.1538 437.85 13.0591V12.839Z" fill="#4BCD3E" fill-opacity="0.8"/><path d="M465.899 12.839C465.899 5.74426 460.135 0 453.015 0C445.895 0 440.131 5.74426 440.131 12.839V13.0591C440.131 20.1538 445.895 25.8981 453.015 25.8981C460.135 25.8981 465.899 20.1538 465.899 13.0591V12.839Z" fill="#4BCD3E" fill-opacity="0.6"/><path d="M493.95 12.839C493.95 5.74426 488.186 0 481.066 0C473.947 0 468.182 5.74426 468.182 12.839V13.0591C468.182 20.1538 473.947 25.8981 481.066 25.8981C488.186 25.8981 493.95 20.1538 493.95 13.0591V12.839Z" fill="#4BCD3E" fill-opacity="0.4"/><path d="M522 12.839C522 5.74426 516.235 0 509.115 0C501.997 0 496.232 5.74426 496.232 12.839V13.0591C496.232 20.1538 501.997 25.8981 509.115 25.8981C516.235 25.8981 522 20.1538 522 13.0591V12.839Z" fill="#4BCD3E" fill-opacity="0.2"/><path d="M407.304 40.2842H386.725V135.927H407.304V40.2842Z" fill="black"/><path d="M445.889 131.083C438.468 126.842 432.65 120.968 428.43 113.436C424.211 105.911 422.102 97.4733 422.102 88.0988C422.102 78.7244 424.211 70.1388 428.43 62.6627C432.65 55.205 438.468 49.3559 445.889 45.1155C453.309 40.8752 461.747 38.7549 471.197 38.7549C480.647 38.7549 489.067 40.8752 496.487 45.1155C503.906 49.3559 509.744 55.205 513.946 62.6627C518.164 70.1203 520.274 78.6011 520.274 88.0988C520.274 97.5966 518.164 106.059 513.946 113.535C509.726 120.993 503.906 126.842 496.487 131.083C489.067 135.322 480.628 137.443 471.197 137.443C461.766 137.443 453.327 135.322 445.889 131.083ZM485.915 115.433C490.201 112.777 493.531 109.073 495.923 104.327C498.32 99.575 499.51 94.1698 499.51 88.0988C499.51 82.028 498.32 76.6227 495.923 71.8707C493.524 67.1249 490.201 63.4208 485.915 60.7643C481.641 58.1079 476.728 56.7704 471.191 56.7704C465.654 56.7704 460.742 58.1079 456.467 60.7643C452.193 63.4208 448.85 67.094 446.46 71.7721C444.061 76.4501 442.871 81.8862 442.871 88.0927C442.871 94.2993 444.061 99.7353 446.46 104.413C448.857 109.091 452.181 112.765 456.467 115.421C460.742 118.077 465.654 119.415 471.191 119.415C476.728 119.415 481.641 118.077 485.915 115.421V115.433Z" fill="black"/><path d="M139.363 137.567L133.359 133.641C108.119 117.141 89.7893 105.16 71.9996 98.6266C68.1791 109.622 63.5001 118.109 57.7665 124.476C50.5243 132.519 41.8224 136.864 31.9066 137.388L31.3915 137.4H31.2688C22.3831 137.4 14.7115 134.411 9.08209 128.76C3.28705 122.954 -0.0243939 114.411 0.000135313 105.339C-0.0182617 97.7576 2.81486 90.0842 7.7759 84.3523C12.2463 79.1751 20.7641 72.8514 35.9539 72.0995H36.0458C43.7603 71.7852 50.978 72.2042 57.9259 73.2951L73.9373 19.563C77.5493 8.48118 87.0421 1.31934 98.1171 1.31934C109.192 1.31934 118.684 8.48118 122.297 19.563L122.346 19.7232L155.001 125.684L139.363 137.573V137.567ZM36.9289 93.0241C22.3892 93.7637 20.8377 101.875 20.8499 105.332C20.8438 108.87 21.9477 112.069 23.8119 113.943C25.4553 115.594 27.8285 116.414 31.048 116.451C39.3328 115.866 46.2439 108.192 51.6341 93.6034C46.8939 93.018 42.031 92.8207 36.9289 93.0241ZM78.1257 78.5279C93.5056 84.0502 108.695 92.8824 126.583 104.309L102.459 26.016C101.33 22.6385 99.0491 22.2748 98.1171 22.2748C97.1849 22.2748 94.916 22.6385 93.7876 25.979L78.1318 78.5279H78.1257Z" fill="black"/><path d="M364.439 119.039C360.41 119.039 357.234 117.8 354.91 115.336C352.579 112.87 351.42 109.295 351.42 104.611V1.56543H330.84V105.751C330.84 116.242 333.704 124.155 339.426 129.467C345.146 134.781 352.738 137.437 362.17 137.437C366.162 137.437 369.896 137.036 373.373 136.247L371.895 118.189C369.694 118.755 367.211 119.039 364.445 119.039H364.439Z" fill="black"/><path d="M399.084 189.444C395.999 189.444 393.256 188.165 392.032 186.196V189.051H385.861V154.203H392.032V167C393.452 165.13 396.097 163.85 399.182 163.85C406.479 163.85 410.837 169.067 410.837 176.647C410.837 184.227 406.479 189.444 399.084 189.444ZM391.64 176.647C391.64 181.126 394.236 184.079 398.202 184.079C402.12 184.079 404.716 181.126 404.716 176.647C404.716 172.168 402.12 169.215 398.202 169.215C394.236 169.215 391.64 172.168 391.64 176.647ZM430.621 164.244H436.938L423.912 198.009H417.643L421.463 188.066L411.865 164.244H418.574L424.499 180.191L430.621 164.244ZM452.343 189.051V154.596H475.556V160.355H459.004V168.329H472.373V174.137H459.004V189.051H452.343ZM480.272 189.051V154.596H486.932V189.051H480.272ZM504.64 189.444C497.882 189.444 492.25 184.867 491.418 178.616L497.343 176.795C497.882 180.929 501.065 183.735 504.885 183.735C508.46 183.735 510.811 182.012 510.811 179.403C510.811 171.971 492.642 176.155 492.642 163.653C492.642 158.14 497.784 154.203 504.542 154.203C511.056 154.203 516.198 157.697 517.275 162.915L511.3 165.376C510.615 162.029 508.117 159.912 504.542 159.912C501.261 159.912 499.253 161.34 499.253 163.653C499.253 169.904 517.569 165.277 517.569 179.256C517.569 185.359 512.378 189.444 504.64 189.444Z" fill="black"/></g><defs><clipPath id="clip0_2403_55331"><rect width="522" height="198" fill="white"/></clipPath></defs></svg>