<svg width="83" height="31" viewBox="0 0 83 31" fill="none" xmlns="http://www.w3.org/2000/svg"><g clip-path="url(#clip0_513_33381)"><g clip-path="url(#clip1_513_33381)"><path d="M32.0647 21.4147C30.5823 21.4147 29.3906 21.0008 28.4919 20.173C27.593 19.3453 27.1432 18.1121 27.1432 16.4776V9.02724H24.5335L24.0625 6.27776H27.1432V1.84192H30.3761V6.27681H34.2312V9.02628H30.3761V16.3009C30.3761 17.0298 30.5592 17.5878 30.9243 17.9719C31.2902 18.3561 31.7892 18.549 32.4212 18.549C33.133 18.549 33.7264 18.431 34.2004 18.1957L34.4373 21.0633C33.7255 21.2995 32.9337 21.4167 32.0647 21.4167V21.4147Z" fill="white"/><path d="M49.8679 13.1673C49.8679 11.9236 49.5797 10.7607 49.0076 9.67835C48.4335 8.59316 47.5944 7.71635 46.4866 7.047C45.3788 6.37571 44.034 6.0415 42.5109 6.0415C40.9881 6.0415 39.6798 6.39108 38.5826 7.09021C37.4834 7.79127 36.6493 8.72664 36.077 9.89922C35.5028 11.0718 35.2168 12.3673 35.2168 13.7272C35.2168 15.087 35.5135 16.3604 36.105 17.5426C36.6984 18.7267 37.5596 19.666 38.6867 20.367C39.8137 21.0661 41.1393 21.4158 42.6594 21.4158C44.4193 21.4158 45.9028 21.021 47.108 20.2345C48.3149 19.4451 49.1145 18.332 49.5105 16.8934L46.4559 16.1232C46.2583 16.9319 45.8277 17.558 45.165 18.0017C44.5022 18.4453 43.6873 18.6662 42.719 18.6662C41.8291 18.6662 41.0584 18.4645 40.4043 18.0593C39.7521 17.6559 39.2493 17.0788 38.8919 16.3307C38.6337 15.7881 38.4699 15.1773 38.4015 14.4974H49.8072C49.8476 14.1027 49.8668 13.659 49.8668 13.1673H49.8679ZM38.5316 12.0437C38.7127 11.1967 39.0344 10.4908 39.5016 9.92899C40.2434 9.033 41.2461 8.58258 42.5109 8.58258C43.6593 8.58258 44.5744 8.8995 45.2554 9.53045C45.9375 10.1604 46.3266 10.9969 46.426 12.0437H38.5316Z" fill="white"/><path d="M64.7261 2.00052C64.7261 0.895044 63.8206 0 62.7022 0C61.5837 0 60.6782 0.895044 60.6782 2.00052V2.0348C60.6782 3.14028 61.5837 4.03532 62.7022 4.03532C63.8206 4.03532 64.7261 3.14028 64.7261 2.0348V2.00052Z" fill="#4BCD3E"/><path d="M69.1328 2.00052C69.1328 0.895044 68.2274 0 67.1089 0C65.9905 0 65.085 0.895044 65.085 2.00052V2.0348C65.085 3.14028 65.9905 4.03532 67.1089 4.03532C68.2274 4.03532 69.1328 3.14028 69.1328 2.0348V2.00052Z" fill="#4BCD3E" fill-opacity="0.8"/><path d="M73.5386 2.00052C73.5386 0.895044 72.6331 0 71.5147 0C70.3962 0 69.4907 0.895044 69.4907 2.00052V2.0348C69.4907 3.14028 70.3962 4.03532 71.5147 4.03532C72.6331 4.03532 73.5386 3.14028 73.5386 2.0348V2.00052Z" fill="#4BCD3E" fill-opacity="0.6"/><path d="M77.9454 2.00052C77.9454 0.895044 77.0399 0 75.9214 0C74.8031 0 73.8975 0.895044 73.8975 2.00052V2.0348C73.8975 3.14028 74.8031 4.03532 75.9214 4.03532C77.0399 4.03532 77.9454 3.14028 77.9454 2.0348V2.00052Z" fill="#4BCD3E" fill-opacity="0.4"/><path d="M82.3514 2.00052C82.3514 0.895044 81.4459 0 80.3275 0C79.2092 0 78.3037 0.895044 78.3037 2.00052V2.0348C78.3037 3.14028 79.2092 4.03532 80.3275 4.03532C81.4459 4.03532 82.3514 3.14028 82.3514 2.0348V2.00052Z" fill="#4BCD3E" fill-opacity="0.2"/><path d="M64.3344 6.27692H61.1016V21.1796H64.3344V6.27692Z" fill="white"/><path d="M70.3954 20.4247C69.2297 19.7639 68.3156 18.8487 67.6528 17.6751C66.99 16.5026 66.6587 15.1878 66.6587 13.7272C66.6587 12.2665 66.99 10.9287 67.6528 9.7638C68.3156 8.60178 69.2297 7.69041 70.3954 7.02969C71.561 6.36898 72.8865 6.0386 74.3711 6.0386C75.8554 6.0386 77.1781 6.36898 78.3438 7.02969C79.5092 7.69041 80.4263 8.60178 81.0863 9.7638C81.7489 10.9258 82.0804 12.2473 82.0804 13.7272C82.0804 15.207 81.7489 16.5256 81.0863 17.6904C80.4235 18.8525 79.5092 19.7639 78.3438 20.4247C77.1781 21.0853 75.8525 21.4158 74.3711 21.4158C72.8895 21.4158 71.5638 21.0853 70.3954 20.4247ZM76.683 17.9862C77.3563 17.5724 77.8794 16.9952 78.2551 16.2557C78.6317 15.5153 78.8186 14.6731 78.8186 13.7272C78.8186 12.7812 78.6317 11.939 78.2551 11.1986C77.8783 10.4591 77.3563 9.88193 76.683 9.46801C76.0116 9.0541 75.2398 8.8457 74.37 8.8457C73.5002 8.8457 72.7286 9.0541 72.057 9.46801C71.3857 9.88193 70.8606 10.4543 70.4851 11.1832C70.1083 11.9121 69.9214 12.7591 69.9214 13.7262C69.9214 14.6933 70.1083 15.5403 70.4851 16.2692C70.8617 16.9981 71.3837 17.5705 72.057 17.9843C72.7286 18.3983 73.5002 18.6067 74.37 18.6067C75.2398 18.6067 76.0116 18.3983 76.683 17.9843V17.9862Z" fill="white"/><path d="M22.2438 21.435L21.3007 20.8233C17.3357 18.2524 14.4564 16.3855 11.6618 15.3675C11.0617 17.0808 10.3267 18.4032 9.42598 19.3953C8.28831 20.6485 6.92136 21.3255 5.3637 21.4071L5.28278 21.409H5.26351C3.86768 21.409 2.66256 20.9433 1.77825 20.0627C0.867919 19.1581 0.347731 17.8269 0.351584 16.4133C0.348694 15.2321 0.793743 14.0365 1.57306 13.1433C2.27531 12.3367 3.61336 11.3513 5.99948 11.2342H6.01393C7.22578 11.1852 8.3596 11.2505 9.45102 11.4205L11.9662 3.04817C12.5336 1.32146 14.0248 0.205536 15.7646 0.205536C17.5043 0.205536 18.9954 1.32146 19.563 3.04817L19.5707 3.07313L24.7003 19.5835L22.2438 21.436V21.435ZM6.15264 14.4945C3.86864 14.6098 3.62491 15.8736 3.62684 16.4124C3.62588 16.9636 3.79928 17.4621 4.09212 17.754C4.35029 18.0113 4.72308 18.1391 5.22883 18.1448C6.53026 18.0537 7.61591 16.858 8.46266 14.5848C7.71802 14.4936 6.95413 14.4629 6.15264 14.4945ZM12.6242 12.2358C15.0402 13.0963 17.4263 14.4725 20.2363 16.2529L16.4466 4.05365C16.2693 3.52738 15.911 3.47072 15.7646 3.47072C15.6181 3.47072 15.2617 3.52738 15.0845 4.04788L12.6251 12.2358H12.6242Z" fill="white"/><path d="M57.5998 18.5482C56.9669 18.5482 56.4679 18.355 56.1029 17.9711C55.7368 17.5869 55.5547 17.0298 55.5547 16.3V0.243927H52.3218V16.4776C52.3218 18.1122 52.7716 19.3453 53.6705 20.173C54.5692 21.001 55.7618 21.4147 57.2433 21.4147C57.8705 21.4147 58.4571 21.3523 59.0033 21.2295L58.7711 18.4157C58.4253 18.5039 58.0352 18.5482 57.6007 18.5482H57.5998Z" fill="white"/><path d="M63.0429 29.5184C62.5583 29.5184 62.1275 29.319 61.9351 29.0122V29.457H60.9658V24.0272H61.9351V26.0212C62.1582 25.7298 62.5737 25.5304 63.0583 25.5304C64.2046 25.5304 64.8892 26.3433 64.8892 27.5244C64.8892 28.7055 64.2046 29.5184 63.0429 29.5184ZM61.8736 27.5244C61.8736 28.2223 62.2813 28.6824 62.9044 28.6824C63.5199 28.6824 63.9276 28.2223 63.9276 27.5244C63.9276 26.8265 63.5199 26.3663 62.9044 26.3663C62.2813 26.3663 61.8736 26.8265 61.8736 27.5244ZM67.997 25.5917H68.9894L66.9431 30.8529H65.9584L66.5584 29.3037L65.0506 25.5917H66.1045L67.0354 28.0766L67.997 25.5917ZM71.4094 29.457V24.0885H75.0558V24.9859H72.4556V26.2283H74.5558V27.1333H72.4556V29.457H71.4094ZM75.7966 29.457V24.0885H76.8429V29.457H75.7966ZM79.6246 29.5184C78.5629 29.5184 77.6782 28.8052 77.5475 27.8312L78.4783 27.5474C78.5629 28.1916 79.063 28.6288 79.663 28.6288C80.2246 28.6288 80.5939 28.3603 80.5939 27.9539C80.5939 26.7958 77.7398 27.4477 77.7398 25.4997C77.7398 24.6407 78.5475 24.0272 79.6092 24.0272C80.6323 24.0272 81.4401 24.5717 81.6093 25.3847L80.6708 25.7681C80.5631 25.2466 80.1708 24.9168 79.6092 24.9168C79.0937 24.9168 78.7783 25.1392 78.7783 25.4997C78.7783 26.4737 81.6555 25.7528 81.6555 27.9309C81.6555 28.8818 80.84 29.5184 79.6246 29.5184Z" fill="white"/></g></g><defs><clipPath id="clip0_513_33381"><rect width="82" height="31" fill="white" transform="translate(0.351562)"/></clipPath><clipPath id="clip1_513_33381"><rect width="82" height="31" fill="white" transform="translate(0.351562)"/></clipPath></defs></svg>