<svg width="1189" height="497" viewBox="0 0 1189 497" fill="none" xmlns="http://www.w3.org/2000/svg">
<path d="M40 52.9194C40 46.292 45.3726 40.9194 52 40.9194H1137C1143.63 40.9194 1149 46.292 1149 52.9194V444.514C1149 451.141 1143.63 456.514 1137 456.514H52C45.3726 456.514 40 451.141 40 444.514V52.9194Z" fill="#DBF0FF"/>
<rect x="210.5" y="332.5" width="277" height="67" rx="8.5" fill="#F9FAFA"/>
<path d="M235.943 371C235.663 371 235.453 370.92 235.313 370.76C235.183 370.6 235.138 370.38 235.178 370.1L236.603 361.19C236.643 360.93 236.738 360.74 236.888 360.62C237.038 360.49 237.238 360.425 237.488 360.425H240.878C241.638 360.425 242.258 360.53 242.738 360.74C243.218 360.95 243.573 361.245 243.803 361.625C244.033 361.995 244.148 362.425 244.148 362.915C244.148 363.685 243.903 364.32 243.413 364.82C242.933 365.31 242.298 365.615 241.508 365.735V365.495C242.168 365.615 242.683 365.885 243.053 366.305C243.433 366.725 243.623 367.245 243.623 367.865C243.623 368.895 243.293 369.675 242.633 370.205C241.973 370.735 241.043 371 239.843 371H235.943ZM236.723 369.8H239.798C240.568 369.8 241.148 369.63 241.538 369.29C241.928 368.94 242.123 368.44 242.123 367.79C242.123 367.28 241.953 366.895 241.613 366.635C241.273 366.375 240.778 366.245 240.128 366.245H237.293L236.723 369.8ZM237.488 365.045H240.293C241.023 365.045 241.593 364.875 242.003 364.535C242.423 364.195 242.633 363.71 242.633 363.08C242.633 362.61 242.473 362.25 242.153 362C241.833 361.75 241.333 361.625 240.653 361.625H238.028L237.488 365.045ZM245.195 371.105C245.015 371.105 244.86 371.065 244.73 370.985C244.61 370.895 244.54 370.78 244.52 370.64C244.49 370.49 244.525 370.325 244.625 370.145L250.25 360.845C250.37 360.665 250.495 360.535 250.625 360.455C250.765 360.365 250.94 360.32 251.15 360.32C251.36 360.32 251.53 360.37 251.66 360.47C251.8 360.57 251.9 360.725 251.96 360.935L254.57 370.1C254.64 370.33 254.655 370.52 254.615 370.67C254.575 370.82 254.495 370.93 254.375 371C254.265 371.07 254.13 371.105 253.97 371.105C253.75 371.105 253.575 371.05 253.445 370.94C253.325 370.82 253.235 370.645 253.175 370.415L252.56 368.09L253.085 368.42H246.785L247.46 368.12L245.975 370.64C245.895 370.8 245.79 370.92 245.66 371C245.53 371.07 245.375 371.105 245.195 371.105ZM250.955 362.15L247.865 367.43L247.52 367.16H252.755L252.38 367.445L250.985 362.15H250.955ZM256.96 371.105C256.74 371.105 256.57 371.03 256.45 370.88C256.34 370.73 256.305 370.52 256.345 370.25L257.815 360.98C257.855 360.75 257.94 360.585 258.07 360.485C258.2 360.375 258.355 360.32 258.535 360.32C258.735 360.32 258.885 360.36 258.985 360.44C259.095 360.51 259.2 360.63 259.3 360.8L264.1 369.05H263.77L265.03 361.025C265.07 360.785 265.16 360.61 265.3 360.5C265.44 360.38 265.63 360.32 265.87 360.32C266.09 360.32 266.25 360.395 266.35 360.545C266.45 360.695 266.48 360.9 266.44 361.16L264.97 370.43C264.94 370.66 264.87 370.83 264.76 370.94C264.65 371.05 264.5 371.105 264.31 371.105C264.11 371.105 263.95 371.065 263.83 370.985C263.71 370.905 263.595 370.775 263.485 370.595L258.685 362.375H259.015L257.755 370.4C257.725 370.64 257.645 370.82 257.515 370.94C257.395 371.05 257.21 371.105 256.96 371.105ZM268.152 371.105C267.902 371.105 267.717 371.03 267.597 370.88C267.477 370.72 267.442 370.495 267.492 370.205L268.947 361.07C268.987 360.82 269.077 360.635 269.217 360.515C269.367 360.385 269.567 360.32 269.817 360.32C270.067 360.32 270.247 360.4 270.357 360.56C270.467 360.71 270.502 360.925 270.462 361.205L269.832 365.18H269.862L275.187 360.68C275.337 360.55 275.462 360.46 275.562 360.41C275.672 360.35 275.807 360.32 275.967 360.32C276.167 360.32 276.327 360.38 276.447 360.5C276.567 360.62 276.622 360.765 276.612 360.935C276.612 361.105 276.532 361.26 276.372 361.4L270.957 365.975L270.942 365.21L275.277 370.055C275.417 370.205 275.477 370.36 275.457 370.52C275.447 370.68 275.382 370.82 275.262 370.94C275.142 371.05 274.977 371.105 274.767 371.105C274.587 371.105 274.437 371.065 274.317 370.985C274.207 370.905 274.072 370.78 273.912 370.61L269.727 366.02H269.697L269.022 370.355C268.982 370.605 268.892 370.795 268.752 370.925C268.612 371.045 268.412 371.105 268.152 371.105ZM281.522 371.135C280.612 371.135 279.817 370.96 279.137 370.61C278.467 370.26 277.942 369.74 277.562 369.05C277.192 368.36 277.007 367.53 277.007 366.56C277.007 365.66 277.127 364.83 277.367 364.07C277.617 363.31 277.977 362.645 278.447 362.075C278.917 361.505 279.487 361.065 280.157 360.755C280.827 360.445 281.592 360.29 282.452 360.29C283.372 360.29 284.167 360.465 284.837 360.815C285.517 361.165 286.042 361.685 286.412 362.375C286.782 363.055 286.967 363.88 286.967 364.85C286.967 365.76 286.842 366.595 286.592 367.355C286.352 368.115 285.997 368.78 285.527 369.35C285.057 369.92 284.487 370.36 283.817 370.67C283.147 370.98 282.382 371.135 281.522 371.135ZM281.552 369.785C282.372 369.785 283.062 369.575 283.622 369.155C284.182 368.725 284.607 368.14 284.897 367.4C285.187 366.66 285.332 365.82 285.332 364.88C285.332 363.78 285.072 362.965 284.552 362.435C284.042 361.905 283.327 361.64 282.407 361.64C281.597 361.64 280.912 361.85 280.352 362.27C279.792 362.69 279.367 363.27 279.077 364.01C278.787 364.75 278.642 365.59 278.642 366.53C278.642 367.64 278.902 368.46 279.422 368.99C279.942 369.52 280.652 369.785 281.552 369.785ZM288.937 371.105C288.717 371.105 288.547 371.03 288.427 370.88C288.317 370.73 288.282 370.52 288.322 370.25L289.792 360.98C289.832 360.75 289.917 360.585 290.047 360.485C290.177 360.375 290.332 360.32 290.512 360.32C290.712 360.32 290.862 360.36 290.962 360.44C291.072 360.51 291.177 360.63 291.277 360.8L296.077 369.05H295.747L297.007 361.025C297.047 360.785 297.137 360.61 297.277 360.5C297.417 360.38 297.607 360.32 297.847 360.32C298.067 360.32 298.227 360.395 298.327 360.545C298.427 360.695 298.457 360.9 298.417 361.16L296.947 370.43C296.917 370.66 296.847 370.83 296.737 370.94C296.627 371.05 296.477 371.105 296.287 371.105C296.087 371.105 295.927 371.065 295.807 370.985C295.687 370.905 295.572 370.775 295.462 370.595L290.662 362.375H290.992L289.732 370.4C289.702 370.64 289.622 370.82 289.492 370.94C289.372 371.05 289.187 371.105 288.937 371.105ZM300.265 371C299.975 371 299.76 370.925 299.62 370.775C299.49 370.615 299.445 370.39 299.485 370.1L300.91 361.19C300.95 360.93 301.045 360.74 301.195 360.62C301.345 360.49 301.545 360.425 301.795 360.425H307.225C307.435 360.425 307.595 360.47 307.705 360.56C307.825 360.64 307.885 360.76 307.885 360.92C307.885 361.17 307.815 361.36 307.675 361.49C307.545 361.62 307.37 361.685 307.15 361.685H302.32L301.795 365H306.19C306.4 365 306.56 365.045 306.67 365.135C306.78 365.215 306.835 365.34 306.835 365.51C306.835 365.75 306.765 365.935 306.625 366.065C306.495 366.195 306.32 366.26 306.1 366.26H301.6L301.03 369.74H305.74C305.95 369.74 306.11 369.785 306.22 369.875C306.34 369.955 306.4 370.08 306.4 370.25C306.4 370.49 306.33 370.675 306.19 370.805C306.06 370.935 305.885 371 305.665 371H300.265ZM312.933 371.105C312.663 371.105 312.473 371.025 312.363 370.865C312.253 370.705 312.218 370.48 312.258 370.19L313.713 361.085C313.753 360.835 313.843 360.645 313.983 360.515C314.123 360.385 314.323 360.32 314.583 360.32C314.843 360.32 315.028 360.4 315.138 360.56C315.248 360.71 315.278 360.935 315.228 361.235L313.788 370.325C313.748 370.575 313.658 370.77 313.518 370.91C313.388 371.04 313.193 371.105 312.933 371.105ZM319.977 371.135C319.537 371.135 319.102 371.105 318.672 371.045C318.242 370.985 317.827 370.885 317.427 370.745C317.027 370.595 316.657 370.405 316.317 370.175C316.167 370.085 316.062 369.97 316.002 369.83C315.952 369.69 315.942 369.555 315.972 369.425C316.002 369.285 316.062 369.165 316.152 369.065C316.242 368.965 316.357 368.905 316.497 368.885C316.647 368.865 316.807 368.905 316.977 369.005C317.457 369.305 317.957 369.515 318.477 369.635C319.007 369.755 319.552 369.815 320.112 369.815C320.862 369.815 321.462 369.665 321.912 369.365C322.372 369.055 322.602 368.64 322.602 368.12C322.602 367.75 322.467 367.435 322.197 367.175C321.927 366.915 321.462 366.715 320.802 366.575L319.212 366.185C318.502 366.015 317.932 365.72 317.502 365.3C317.082 364.87 316.872 364.28 316.872 363.53C316.872 363.03 316.977 362.58 317.187 362.18C317.397 361.78 317.692 361.44 318.072 361.16C318.452 360.87 318.887 360.655 319.377 360.515C319.867 360.365 320.387 360.29 320.937 360.29C321.497 360.29 322.077 360.37 322.677 360.53C323.287 360.68 323.827 360.935 324.297 361.295C324.437 361.395 324.527 361.515 324.567 361.655C324.617 361.795 324.627 361.935 324.597 362.075C324.567 362.205 324.507 362.315 324.417 362.405C324.327 362.485 324.207 362.53 324.057 362.54C323.917 362.55 323.747 362.495 323.547 362.375C323.177 362.115 322.757 361.925 322.287 361.805C321.827 361.675 321.367 361.61 320.907 361.61C320.427 361.61 319.997 361.685 319.617 361.835C319.247 361.985 318.952 362.195 318.732 362.465C318.522 362.725 318.417 363.04 318.417 363.41C318.417 363.86 318.537 364.195 318.777 364.415C319.017 364.635 319.372 364.805 319.842 364.925L321.432 365.315C322.352 365.525 323.032 365.855 323.472 366.305C323.922 366.755 324.147 367.3 324.147 367.94C324.147 368.47 324.037 368.935 323.817 369.335C323.597 369.735 323.292 370.07 322.902 370.34C322.522 370.6 322.082 370.8 321.582 370.94C321.082 371.07 320.547 371.135 319.977 371.135ZM329.308 371.135C328.868 371.135 328.433 371.105 328.003 371.045C327.573 370.985 327.158 370.885 326.758 370.745C326.358 370.595 325.988 370.405 325.648 370.175C325.498 370.085 325.393 369.97 325.333 369.83C325.283 369.69 325.273 369.555 325.303 369.425C325.333 369.285 325.393 369.165 325.483 369.065C325.573 368.965 325.688 368.905 325.828 368.885C325.978 368.865 326.138 368.905 326.308 369.005C326.788 369.305 327.288 369.515 327.808 369.635C328.338 369.755 328.883 369.815 329.443 369.815C330.193 369.815 330.793 369.665 331.243 369.365C331.703 369.055 331.933 368.64 331.933 368.12C331.933 367.75 331.798 367.435 331.528 367.175C331.258 366.915 330.793 366.715 330.133 366.575L328.543 366.185C327.833 366.015 327.263 365.72 326.833 365.3C326.413 364.87 326.203 364.28 326.203 363.53C326.203 363.03 326.308 362.58 326.518 362.18C326.728 361.78 327.023 361.44 327.403 361.16C327.783 360.87 328.218 360.655 328.708 360.515C329.198 360.365 329.718 360.29 330.268 360.29C330.828 360.29 331.408 360.37 332.008 360.53C332.618 360.68 333.158 360.935 333.628 361.295C333.768 361.395 333.858 361.515 333.898 361.655C333.948 361.795 333.958 361.935 333.928 362.075C333.898 362.205 333.838 362.315 333.748 362.405C333.658 362.485 333.538 362.53 333.388 362.54C333.248 362.55 333.078 362.495 332.878 362.375C332.508 362.115 332.088 361.925 331.618 361.805C331.158 361.675 330.698 361.61 330.238 361.61C329.758 361.61 329.328 361.685 328.948 361.835C328.578 361.985 328.283 362.195 328.063 362.465C327.853 362.725 327.748 363.04 327.748 363.41C327.748 363.86 327.868 364.195 328.108 364.415C328.348 364.635 328.703 364.805 329.173 364.925L330.763 365.315C331.683 365.525 332.363 365.855 332.803 366.305C333.253 366.755 333.478 367.3 333.478 367.94C333.478 368.47 333.368 368.935 333.148 369.335C332.928 369.735 332.623 370.07 332.233 370.34C331.853 370.6 331.413 370.8 330.913 370.94C330.413 371.07 329.878 371.135 329.308 371.135ZM339.224 371.135C338.554 371.135 337.959 371.04 337.439 370.85C336.919 370.66 336.489 370.37 336.149 369.98C335.809 369.59 335.574 369.105 335.444 368.525C335.324 367.935 335.329 367.25 335.459 366.47L336.314 361.04C336.354 360.79 336.444 360.61 336.584 360.5C336.734 360.38 336.929 360.32 337.169 360.32C337.429 360.32 337.614 360.395 337.724 360.545C337.844 360.685 337.884 360.895 337.844 361.175L336.989 366.605C336.819 367.655 336.929 368.45 337.319 368.99C337.719 369.52 338.384 369.785 339.314 369.785C340.224 369.785 340.939 369.555 341.459 369.095C341.989 368.635 342.334 367.895 342.494 366.875L343.424 361.04C343.464 360.79 343.554 360.61 343.694 360.5C343.844 360.38 344.039 360.32 344.279 360.32C344.529 360.32 344.709 360.395 344.819 360.545C344.939 360.685 344.979 360.895 344.939 361.175L344.039 366.89C343.889 367.82 343.619 368.6 343.229 369.23C342.839 369.86 342.314 370.335 341.654 370.655C340.994 370.975 340.184 371.135 339.224 371.135ZM345.757 371.105C345.577 371.105 345.422 371.065 345.292 370.985C345.172 370.895 345.102 370.78 345.082 370.64C345.052 370.49 345.087 370.325 345.187 370.145L350.812 360.845C350.932 360.665 351.057 360.535 351.187 360.455C351.327 360.365 351.502 360.32 351.712 360.32C351.922 360.32 352.092 360.37 352.222 360.47C352.362 360.57 352.462 360.725 352.522 360.935L355.132 370.1C355.202 370.33 355.217 370.52 355.177 370.67C355.137 370.82 355.057 370.93 354.937 371C354.827 371.07 354.692 371.105 354.532 371.105C354.312 371.105 354.137 371.05 354.007 370.94C353.887 370.82 353.797 370.645 353.737 370.415L353.122 368.09L353.647 368.42H347.347L348.022 368.12L346.537 370.64C346.457 370.8 346.352 370.92 346.222 371C346.092 371.07 345.937 371.105 345.757 371.105ZM351.517 362.15L348.427 367.43L348.082 367.16H353.317L352.942 367.445L351.547 362.15H351.517ZM357.521 371.105C357.301 371.105 357.131 371.03 357.011 370.88C356.901 370.73 356.866 370.52 356.906 370.25L358.376 360.98C358.416 360.75 358.501 360.585 358.631 360.485C358.761 360.375 358.916 360.32 359.096 360.32C359.296 360.32 359.446 360.36 359.546 360.44C359.656 360.51 359.761 360.63 359.861 360.8L364.661 369.05H364.331L365.591 361.025C365.631 360.785 365.721 360.61 365.861 360.5C366.001 360.38 366.191 360.32 366.431 360.32C366.651 360.32 366.811 360.395 366.911 360.545C367.011 360.695 367.041 360.9 367.001 361.16L365.531 370.43C365.501 370.66 365.431 370.83 365.321 370.94C365.211 371.05 365.061 371.105 364.871 371.105C364.671 371.105 364.511 371.065 364.391 370.985C364.271 370.905 364.156 370.775 364.046 370.595L359.246 362.375H359.576L358.316 370.4C358.286 370.64 358.206 370.82 358.076 370.94C357.956 371.05 357.771 371.105 357.521 371.105ZM373.079 371.135C372.159 371.135 371.344 370.965 370.634 370.625C369.934 370.275 369.384 369.75 368.984 369.05C368.584 368.34 368.384 367.445 368.384 366.365C368.384 365.505 368.509 364.71 368.759 363.98C369.019 363.24 369.384 362.595 369.854 362.045C370.334 361.495 370.919 361.065 371.609 360.755C372.309 360.445 373.094 360.29 373.964 360.29C374.564 360.29 375.134 360.375 375.674 360.545C376.214 360.715 376.684 360.96 377.084 361.28C377.234 361.39 377.324 361.52 377.354 361.67C377.394 361.81 377.389 361.95 377.339 362.09C377.299 362.23 377.229 362.35 377.129 362.45C377.039 362.54 376.924 362.595 376.784 362.615C376.654 362.625 376.519 362.585 376.379 362.495C375.989 362.195 375.594 361.985 375.194 361.865C374.794 361.735 374.364 361.67 373.904 361.67C373.094 361.67 372.399 361.875 371.819 362.285C371.239 362.685 370.794 363.24 370.484 363.95C370.184 364.65 370.034 365.445 370.034 366.335C370.034 367.145 370.159 367.8 370.409 368.3C370.659 368.8 371.019 369.17 371.489 369.41C371.969 369.64 372.549 369.755 373.229 369.755C373.649 369.755 374.044 369.7 374.414 369.59C374.784 369.47 375.159 369.275 375.539 369.005C375.699 368.905 375.849 368.865 375.989 368.885C376.129 368.895 376.244 368.95 376.334 369.05C376.434 369.14 376.499 369.255 376.529 369.395C376.559 369.525 376.549 369.66 376.499 369.8C376.449 369.94 376.349 370.06 376.199 370.16C375.749 370.49 375.254 370.735 374.714 370.895C374.174 371.055 373.629 371.135 373.079 371.135ZM378.986 371C378.696 371 378.481 370.925 378.341 370.775C378.211 370.615 378.166 370.39 378.206 370.1L379.631 361.19C379.671 360.93 379.766 360.74 379.916 360.62C380.066 360.49 380.266 360.425 380.516 360.425H385.946C386.156 360.425 386.316 360.47 386.426 360.56C386.546 360.64 386.606 360.76 386.606 360.92C386.606 361.17 386.536 361.36 386.396 361.49C386.266 361.62 386.091 361.685 385.871 361.685H381.041L380.516 365H384.911C385.121 365 385.281 365.045 385.391 365.135C385.501 365.215 385.556 365.34 385.556 365.51C385.556 365.75 385.486 365.935 385.346 366.065C385.216 366.195 385.041 366.26 384.821 366.26H380.321L379.751 369.74H384.461C384.671 369.74 384.831 369.785 384.941 369.875C385.061 369.955 385.121 370.08 385.121 370.25C385.121 370.49 385.051 370.675 384.911 370.805C384.781 370.935 384.606 371 384.386 371H378.986ZM390.874 371.105C390.694 371.105 390.539 371.065 390.409 370.985C390.289 370.895 390.219 370.78 390.199 370.64C390.169 370.49 390.204 370.325 390.304 370.145L395.929 360.845C396.049 360.665 396.174 360.535 396.304 360.455C396.444 360.365 396.619 360.32 396.829 360.32C397.039 360.32 397.209 360.37 397.339 360.47C397.479 360.57 397.579 360.725 397.639 360.935L400.249 370.1C400.319 370.33 400.334 370.52 400.294 370.67C400.254 370.82 400.174 370.93 400.054 371C399.944 371.07 399.809 371.105 399.649 371.105C399.429 371.105 399.254 371.05 399.124 370.94C399.004 370.82 398.914 370.645 398.854 370.415L398.239 368.09L398.764 368.42H392.464L393.139 368.12L391.654 370.64C391.574 370.8 391.469 370.92 391.339 371C391.209 371.07 391.054 371.105 390.874 371.105ZM396.634 362.15L393.544 367.43L393.199 367.16H398.434L398.059 367.445L396.664 362.15H396.634ZM406.844 371.135C405.924 371.135 405.109 370.965 404.399 370.625C403.699 370.275 403.149 369.75 402.749 369.05C402.349 368.34 402.149 367.445 402.149 366.365C402.149 365.505 402.274 364.71 402.524 363.98C402.784 363.24 403.149 362.595 403.619 362.045C404.099 361.495 404.684 361.065 405.374 360.755C406.074 360.445 406.859 360.29 407.729 360.29C408.329 360.29 408.899 360.375 409.439 360.545C409.979 360.715 410.449 360.96 410.849 361.28C410.999 361.39 411.089 361.52 411.119 361.67C411.159 361.81 411.154 361.95 411.104 362.09C411.064 362.23 410.994 362.35 410.894 362.45C410.804 362.54 410.689 362.595 410.549 362.615C410.419 362.625 410.284 362.585 410.144 362.495C409.754 362.195 409.359 361.985 408.959 361.865C408.559 361.735 408.129 361.67 407.669 361.67C406.859 361.67 406.164 361.875 405.584 362.285C405.004 362.685 404.559 363.24 404.249 363.95C403.949 364.65 403.799 365.445 403.799 366.335C403.799 367.145 403.924 367.8 404.174 368.3C404.424 368.8 404.784 369.17 405.254 369.41C405.734 369.64 406.314 369.755 406.994 369.755C407.414 369.755 407.809 369.7 408.179 369.59C408.549 369.47 408.924 369.275 409.304 369.005C409.464 368.905 409.614 368.865 409.754 368.885C409.894 368.895 410.009 368.95 410.099 369.05C410.199 369.14 410.264 369.255 410.294 369.395C410.324 369.525 410.314 369.66 410.264 369.8C410.214 369.94 410.114 370.06 409.964 370.16C409.514 370.49 409.019 370.735 408.479 370.895C407.939 371.055 407.394 371.135 406.844 371.135ZM416.658 371.135C415.738 371.135 414.923 370.965 414.213 370.625C413.513 370.275 412.963 369.75 412.563 369.05C412.163 368.34 411.963 367.445 411.963 366.365C411.963 365.505 412.088 364.71 412.338 363.98C412.598 363.24 412.963 362.595 413.433 362.045C413.913 361.495 414.498 361.065 415.188 360.755C415.888 360.445 416.673 360.29 417.543 360.29C418.143 360.29 418.713 360.375 419.253 360.545C419.793 360.715 420.263 360.96 420.663 361.28C420.813 361.39 420.903 361.52 420.933 361.67C420.973 361.81 420.968 361.95 420.918 362.09C420.878 362.23 420.808 362.35 420.708 362.45C420.618 362.54 420.503 362.595 420.363 362.615C420.233 362.625 420.098 362.585 419.958 362.495C419.568 362.195 419.173 361.985 418.773 361.865C418.373 361.735 417.943 361.67 417.483 361.67C416.673 361.67 415.978 361.875 415.398 362.285C414.818 362.685 414.373 363.24 414.063 363.95C413.763 364.65 413.613 365.445 413.613 366.335C413.613 367.145 413.738 367.8 413.988 368.3C414.238 368.8 414.598 369.17 415.068 369.41C415.548 369.64 416.128 369.755 416.808 369.755C417.228 369.755 417.623 369.7 417.993 369.59C418.363 369.47 418.738 369.275 419.118 369.005C419.278 368.905 419.428 368.865 419.568 368.885C419.708 368.895 419.823 368.95 419.913 369.05C420.013 369.14 420.078 369.255 420.108 369.395C420.138 369.525 420.128 369.66 420.078 369.8C420.028 369.94 419.928 370.06 419.778 370.16C419.328 370.49 418.833 370.735 418.293 370.895C417.753 371.055 417.208 371.135 416.658 371.135ZM426.277 371.135C425.367 371.135 424.572 370.96 423.892 370.61C423.222 370.26 422.697 369.74 422.317 369.05C421.947 368.36 421.762 367.53 421.762 366.56C421.762 365.66 421.882 364.83 422.122 364.07C422.372 363.31 422.732 362.645 423.202 362.075C423.672 361.505 424.242 361.065 424.912 360.755C425.582 360.445 426.347 360.29 427.207 360.29C428.127 360.29 428.922 360.465 429.592 360.815C430.272 361.165 430.797 361.685 431.167 362.375C431.537 363.055 431.722 363.88 431.722 364.85C431.722 365.76 431.597 366.595 431.347 367.355C431.107 368.115 430.752 368.78 430.282 369.35C429.812 369.92 429.242 370.36 428.572 370.67C427.902 370.98 427.137 371.135 426.277 371.135ZM426.307 369.785C427.127 369.785 427.817 369.575 428.377 369.155C428.937 368.725 429.362 368.14 429.652 367.4C429.942 366.66 430.087 365.82 430.087 364.88C430.087 363.78 429.827 362.965 429.307 362.435C428.797 361.905 428.082 361.64 427.162 361.64C426.352 361.64 425.667 361.85 425.107 362.27C424.547 362.69 424.122 363.27 423.832 364.01C423.542 364.75 423.397 365.59 423.397 366.53C423.397 367.64 423.657 368.46 424.177 368.99C424.697 369.52 425.407 369.785 426.307 369.785ZM437.368 371.135C436.698 371.135 436.103 371.04 435.583 370.85C435.063 370.66 434.633 370.37 434.293 369.98C433.953 369.59 433.718 369.105 433.588 368.525C433.468 367.935 433.473 367.25 433.603 366.47L434.458 361.04C434.498 360.79 434.588 360.61 434.728 360.5C434.878 360.38 435.073 360.32 435.313 360.32C435.573 360.32 435.758 360.395 435.868 360.545C435.988 360.685 436.028 360.895 435.988 361.175L435.133 366.605C434.963 367.655 435.073 368.45 435.463 368.99C435.863 369.52 436.528 369.785 437.458 369.785C438.368 369.785 439.083 369.555 439.603 369.095C440.133 368.635 440.478 367.895 440.638 366.875L441.568 361.04C441.608 360.79 441.698 360.61 441.838 360.5C441.988 360.38 442.183 360.32 442.423 360.32C442.673 360.32 442.853 360.395 442.963 360.545C443.083 360.685 443.123 360.895 443.083 361.175L442.183 366.89C442.033 367.82 441.763 368.6 441.373 369.23C440.983 369.86 440.458 370.335 439.798 370.655C439.138 370.975 438.328 371.135 437.368 371.135ZM444.694 371.105C444.474 371.105 444.304 371.03 444.184 370.88C444.074 370.73 444.039 370.52 444.079 370.25L445.549 360.98C445.589 360.75 445.674 360.585 445.804 360.485C445.934 360.375 446.089 360.32 446.269 360.32C446.469 360.32 446.619 360.36 446.719 360.44C446.829 360.51 446.934 360.63 447.034 360.8L451.834 369.05H451.504L452.764 361.025C452.804 360.785 452.894 360.61 453.034 360.5C453.174 360.38 453.364 360.32 453.604 360.32C453.824 360.32 453.984 360.395 454.084 360.545C454.184 360.695 454.214 360.9 454.174 361.16L452.704 370.43C452.674 370.66 452.604 370.83 452.494 370.94C452.384 371.05 452.234 371.105 452.044 371.105C451.844 371.105 451.684 371.065 451.564 370.985C451.444 370.905 451.329 370.775 451.219 370.595L446.419 362.375H446.749L445.489 370.4C445.459 370.64 445.379 370.82 445.249 370.94C445.129 371.05 444.944 371.105 444.694 371.105ZM458.467 371.105C458.217 371.105 458.032 371.025 457.912 370.865C457.802 370.705 457.767 370.485 457.807 370.205L459.142 361.73H456.097C455.877 361.73 455.702 361.685 455.572 361.595C455.452 361.495 455.392 361.36 455.392 361.19C455.392 360.95 455.462 360.765 455.602 360.635C455.752 360.495 455.942 360.425 456.172 360.425H463.957C464.187 360.425 464.362 360.47 464.482 360.56C464.602 360.65 464.662 360.78 464.662 360.95C464.662 361.2 464.592 361.395 464.452 361.535C464.312 361.665 464.122 361.73 463.882 361.73H460.702L459.337 370.34C459.297 370.59 459.202 370.78 459.052 370.91C458.912 371.04 458.717 371.105 458.467 371.105Z" fill="#333638"/>
<rect x="210.5" y="332.5" width="277" height="67" rx="8.5" stroke="#333638" stroke-width="3" stroke-linecap="round"/>
<rect x="738.5" y="332.5" width="282" height="67" rx="8.5" fill="#F9FAFA"/>
<path d="M763.602 371C763.322 371 763.112 370.92 762.972 370.76C762.842 370.6 762.797 370.38 762.837 370.1L764.262 361.19C764.302 360.93 764.397 360.74 764.547 360.62C764.697 360.49 764.897 360.425 765.147 360.425H768.537C769.297 360.425 769.917 360.53 770.397 360.74C770.877 360.95 771.232 361.245 771.462 361.625C771.692 361.995 771.807 362.425 771.807 362.915C771.807 363.685 771.562 364.32 771.072 364.82C770.592 365.31 769.957 365.615 769.167 365.735V365.495C769.827 365.615 770.342 365.885 770.712 366.305C771.092 366.725 771.282 367.245 771.282 367.865C771.282 368.895 770.952 369.675 770.292 370.205C769.632 370.735 768.702 371 767.502 371H763.602ZM764.382 369.8H767.457C768.227 369.8 768.807 369.63 769.197 369.29C769.587 368.94 769.782 368.44 769.782 367.79C769.782 367.28 769.612 366.895 769.272 366.635C768.932 366.375 768.437 366.245 767.787 366.245H764.952L764.382 369.8ZM765.147 365.045H767.952C768.682 365.045 769.252 364.875 769.662 364.535C770.082 364.195 770.292 363.71 770.292 363.08C770.292 362.61 770.132 362.25 769.812 362C769.492 361.75 768.992 361.625 768.312 361.625H765.687L765.147 365.045ZM772.853 371.105C772.673 371.105 772.518 371.065 772.388 370.985C772.268 370.895 772.198 370.78 772.178 370.64C772.148 370.49 772.183 370.325 772.283 370.145L777.908 360.845C778.028 360.665 778.153 360.535 778.283 360.455C778.423 360.365 778.598 360.32 778.808 360.32C779.018 360.32 779.188 360.37 779.318 360.47C779.458 360.57 779.558 360.725 779.618 360.935L782.228 370.1C782.298 370.33 782.313 370.52 782.273 370.67C782.233 370.82 782.153 370.93 782.033 371C781.923 371.07 781.788 371.105 781.628 371.105C781.408 371.105 781.233 371.05 781.103 370.94C780.983 370.82 780.893 370.645 780.833 370.415L780.218 368.09L780.743 368.42H774.443L775.118 368.12L773.633 370.64C773.553 370.8 773.448 370.92 773.318 371C773.188 371.07 773.033 371.105 772.853 371.105ZM778.613 362.15L775.523 367.43L775.178 367.16H780.413L780.038 367.445L778.643 362.15H778.613ZM784.618 371.105C784.398 371.105 784.228 371.03 784.108 370.88C783.998 370.73 783.963 370.52 784.003 370.25L785.473 360.98C785.513 360.75 785.598 360.585 785.728 360.485C785.858 360.375 786.013 360.32 786.193 360.32C786.393 360.32 786.543 360.36 786.643 360.44C786.753 360.51 786.858 360.63 786.958 360.8L791.758 369.05H791.428L792.688 361.025C792.728 360.785 792.818 360.61 792.958 360.5C793.098 360.38 793.288 360.32 793.528 360.32C793.748 360.32 793.908 360.395 794.008 360.545C794.108 360.695 794.138 360.9 794.098 361.16L792.628 370.43C792.598 370.66 792.528 370.83 792.418 370.94C792.308 371.05 792.158 371.105 791.968 371.105C791.768 371.105 791.608 371.065 791.488 370.985C791.368 370.905 791.253 370.775 791.143 370.595L786.343 362.375H786.673L785.413 370.4C785.383 370.64 785.303 370.82 785.173 370.94C785.053 371.05 784.868 371.105 784.618 371.105ZM795.811 371.105C795.561 371.105 795.376 371.03 795.256 370.88C795.136 370.72 795.101 370.495 795.151 370.205L796.606 361.07C796.646 360.82 796.736 360.635 796.876 360.515C797.026 360.385 797.226 360.32 797.476 360.32C797.726 360.32 797.906 360.4 798.016 360.56C798.126 360.71 798.161 360.925 798.121 361.205L797.491 365.18H797.521L802.846 360.68C802.996 360.55 803.121 360.46 803.221 360.41C803.331 360.35 803.466 360.32 803.626 360.32C803.826 360.32 803.986 360.38 804.106 360.5C804.226 360.62 804.281 360.765 804.271 360.935C804.271 361.105 804.191 361.26 804.031 361.4L798.616 365.975L798.601 365.21L802.936 370.055C803.076 370.205 803.136 370.36 803.116 370.52C803.106 370.68 803.041 370.82 802.921 370.94C802.801 371.05 802.636 371.105 802.426 371.105C802.246 371.105 802.096 371.065 801.976 370.985C801.866 370.905 801.731 370.78 801.571 370.61L797.386 366.02H797.356L796.681 370.355C796.641 370.605 796.551 370.795 796.411 370.925C796.271 371.045 796.071 371.105 795.811 371.105ZM807.517 371.105C807.267 371.105 807.082 371.025 806.962 370.865C806.852 370.705 806.817 370.485 806.857 370.205L808.192 361.73H805.147C804.927 361.73 804.752 361.685 804.622 361.595C804.502 361.495 804.442 361.36 804.442 361.19C804.442 360.95 804.512 360.765 804.652 360.635C804.802 360.495 804.992 360.425 805.222 360.425H813.007C813.237 360.425 813.412 360.47 813.532 360.56C813.652 360.65 813.712 360.78 813.712 360.95C813.712 361.2 813.642 361.395 813.502 361.535C813.362 361.665 813.172 361.73 812.932 361.73H809.752L808.387 370.34C808.347 370.59 808.252 370.78 808.102 370.91C807.962 371.04 807.767 371.105 807.517 371.105ZM817.042 371.105C816.832 371.105 816.662 371.045 816.532 370.925C816.412 370.795 816.327 370.61 816.277 370.37L814.522 361.25C814.462 360.96 814.497 360.735 814.627 360.575C814.767 360.405 814.972 360.32 815.242 360.32C815.442 360.32 815.602 360.38 815.722 360.5C815.852 360.61 815.937 360.79 815.977 361.04L817.537 369.56H816.967L821.362 360.905C821.472 360.705 821.592 360.56 821.722 360.47C821.862 360.37 822.032 360.32 822.232 360.32C822.412 360.32 822.557 360.38 822.667 360.5C822.787 360.62 822.872 360.81 822.922 361.07L824.482 369.56H823.987L828.352 360.89C828.442 360.69 828.547 360.545 828.667 360.455C828.797 360.365 828.962 360.32 829.162 360.32C829.462 360.32 829.662 360.42 829.762 360.62C829.872 360.81 829.857 361.045 829.717 361.325L825.022 370.52C824.922 370.72 824.797 370.87 824.647 370.97C824.507 371.06 824.327 371.105 824.107 371.105C823.887 371.105 823.712 371.045 823.582 370.925C823.462 370.795 823.377 370.61 823.327 370.37L821.812 362.315H822.142L817.957 370.52C817.857 370.72 817.737 370.87 817.597 370.97C817.457 371.06 817.272 371.105 817.042 371.105ZM834.844 371.135C833.934 371.135 833.139 370.96 832.459 370.61C831.789 370.26 831.264 369.74 830.884 369.05C830.514 368.36 830.329 367.53 830.329 366.56C830.329 365.66 830.449 364.83 830.689 364.07C830.939 363.31 831.299 362.645 831.769 362.075C832.239 361.505 832.809 361.065 833.479 360.755C834.149 360.445 834.914 360.29 835.774 360.29C836.694 360.29 837.489 360.465 838.159 360.815C838.839 361.165 839.364 361.685 839.734 362.375C840.104 363.055 840.289 363.88 840.289 364.85C840.289 365.76 840.164 366.595 839.914 367.355C839.674 368.115 839.319 368.78 838.849 369.35C838.379 369.92 837.809 370.36 837.139 370.67C836.469 370.98 835.704 371.135 834.844 371.135ZM834.874 369.785C835.694 369.785 836.384 369.575 836.944 369.155C837.504 368.725 837.929 368.14 838.219 367.4C838.509 366.66 838.654 365.82 838.654 364.88C838.654 363.78 838.394 362.965 837.874 362.435C837.364 361.905 836.649 361.64 835.729 361.64C834.919 361.64 834.234 361.85 833.674 362.27C833.114 362.69 832.689 363.27 832.399 364.01C832.109 364.75 831.964 365.59 831.964 366.53C831.964 367.64 832.224 368.46 832.744 368.99C833.264 369.52 833.974 369.785 834.874 369.785ZM846.275 371.105C846.005 371.105 845.815 371.025 845.705 370.865C845.595 370.705 845.56 370.48 845.6 370.19L847.055 361.085C847.095 360.835 847.185 360.645 847.325 360.515C847.465 360.385 847.665 360.32 847.925 360.32C848.185 360.32 848.37 360.4 848.48 360.56C848.59 360.71 848.62 360.935 848.57 361.235L847.13 370.325C847.09 370.575 847 370.77 846.86 370.91C846.73 371.04 846.535 371.105 846.275 371.105ZM853.318 371.135C852.878 371.135 852.443 371.105 852.013 371.045C851.583 370.985 851.168 370.885 850.768 370.745C850.368 370.595 849.998 370.405 849.658 370.175C849.508 370.085 849.403 369.97 849.343 369.83C849.293 369.69 849.283 369.555 849.313 369.425C849.343 369.285 849.403 369.165 849.493 369.065C849.583 368.965 849.698 368.905 849.838 368.885C849.988 368.865 850.148 368.905 850.318 369.005C850.798 369.305 851.298 369.515 851.818 369.635C852.348 369.755 852.893 369.815 853.453 369.815C854.203 369.815 854.803 369.665 855.253 369.365C855.713 369.055 855.943 368.64 855.943 368.12C855.943 367.75 855.808 367.435 855.538 367.175C855.268 366.915 854.803 366.715 854.143 366.575L852.553 366.185C851.843 366.015 851.273 365.72 850.843 365.3C850.423 364.87 850.213 364.28 850.213 363.53C850.213 363.03 850.318 362.58 850.528 362.18C850.738 361.78 851.033 361.44 851.413 361.16C851.793 360.87 852.228 360.655 852.718 360.515C853.208 360.365 853.728 360.29 854.278 360.29C854.838 360.29 855.418 360.37 856.018 360.53C856.628 360.68 857.168 360.935 857.638 361.295C857.778 361.395 857.868 361.515 857.908 361.655C857.958 361.795 857.968 361.935 857.938 362.075C857.908 362.205 857.848 362.315 857.758 362.405C857.668 362.485 857.548 362.53 857.398 362.54C857.258 362.55 857.088 362.495 856.888 362.375C856.518 362.115 856.098 361.925 855.628 361.805C855.168 361.675 854.708 361.61 854.248 361.61C853.768 361.61 853.338 361.685 852.958 361.835C852.588 361.985 852.293 362.195 852.073 362.465C851.863 362.725 851.758 363.04 851.758 363.41C851.758 363.86 851.878 364.195 852.118 364.415C852.358 364.635 852.713 364.805 853.183 364.925L854.773 365.315C855.693 365.525 856.373 365.855 856.813 366.305C857.263 366.755 857.488 367.3 857.488 367.94C857.488 368.47 857.378 368.935 857.158 369.335C856.938 369.735 856.633 370.07 856.243 370.34C855.863 370.6 855.423 370.8 854.923 370.94C854.423 371.07 853.888 371.135 853.318 371.135ZM862.65 371.135C862.21 371.135 861.775 371.105 861.345 371.045C860.915 370.985 860.5 370.885 860.1 370.745C859.7 370.595 859.33 370.405 858.99 370.175C858.84 370.085 858.735 369.97 858.675 369.83C858.625 369.69 858.615 369.555 858.645 369.425C858.675 369.285 858.735 369.165 858.825 369.065C858.915 368.965 859.03 368.905 859.17 368.885C859.32 368.865 859.48 368.905 859.65 369.005C860.13 369.305 860.63 369.515 861.15 369.635C861.68 369.755 862.225 369.815 862.785 369.815C863.535 369.815 864.135 369.665 864.585 369.365C865.045 369.055 865.275 368.64 865.275 368.12C865.275 367.75 865.14 367.435 864.87 367.175C864.6 366.915 864.135 366.715 863.475 366.575L861.885 366.185C861.175 366.015 860.605 365.72 860.175 365.3C859.755 364.87 859.545 364.28 859.545 363.53C859.545 363.03 859.65 362.58 859.86 362.18C860.07 361.78 860.365 361.44 860.745 361.16C861.125 360.87 861.56 360.655 862.05 360.515C862.54 360.365 863.06 360.29 863.61 360.29C864.17 360.29 864.75 360.37 865.35 360.53C865.96 360.68 866.5 360.935 866.97 361.295C867.11 361.395 867.2 361.515 867.24 361.655C867.29 361.795 867.3 361.935 867.27 362.075C867.24 362.205 867.18 362.315 867.09 362.405C867 362.485 866.88 362.53 866.73 362.54C866.59 362.55 866.42 362.495 866.22 362.375C865.85 362.115 865.43 361.925 864.96 361.805C864.5 361.675 864.04 361.61 863.58 361.61C863.1 361.61 862.67 361.685 862.29 361.835C861.92 361.985 861.625 362.195 861.405 362.465C861.195 362.725 861.09 363.04 861.09 363.41C861.09 363.86 861.21 364.195 861.45 364.415C861.69 364.635 862.045 364.805 862.515 364.925L864.105 365.315C865.025 365.525 865.705 365.855 866.145 366.305C866.595 366.755 866.82 367.3 866.82 367.94C866.82 368.47 866.71 368.935 866.49 369.335C866.27 369.735 865.965 370.07 865.575 370.34C865.195 370.6 864.755 370.8 864.255 370.94C863.755 371.07 863.22 371.135 862.65 371.135ZM872.566 371.135C871.896 371.135 871.301 371.04 870.781 370.85C870.261 370.66 869.831 370.37 869.491 369.98C869.151 369.59 868.916 369.105 868.786 368.525C868.666 367.935 868.671 367.25 868.801 366.47L869.656 361.04C869.696 360.79 869.786 360.61 869.926 360.5C870.076 360.38 870.271 360.32 870.511 360.32C870.771 360.32 870.956 360.395 871.066 360.545C871.186 360.685 871.226 360.895 871.186 361.175L870.331 366.605C870.161 367.655 870.271 368.45 870.661 368.99C871.061 369.52 871.726 369.785 872.656 369.785C873.566 369.785 874.281 369.555 874.801 369.095C875.331 368.635 875.676 367.895 875.836 366.875L876.766 361.04C876.806 360.79 876.896 360.61 877.036 360.5C877.186 360.38 877.381 360.32 877.621 360.32C877.871 360.32 878.051 360.395 878.161 360.545C878.281 360.685 878.321 360.895 878.281 361.175L877.381 366.89C877.231 367.82 876.961 368.6 876.571 369.23C876.181 369.86 875.656 370.335 874.996 370.655C874.336 370.975 873.526 371.135 872.566 371.135ZM879.098 371.105C878.918 371.105 878.763 371.065 878.633 370.985C878.513 370.895 878.443 370.78 878.423 370.64C878.393 370.49 878.428 370.325 878.528 370.145L884.153 360.845C884.273 360.665 884.398 360.535 884.528 360.455C884.668 360.365 884.843 360.32 885.053 360.32C885.263 360.32 885.433 360.37 885.563 360.47C885.703 360.57 885.803 360.725 885.863 360.935L888.473 370.1C888.543 370.33 888.558 370.52 888.518 370.67C888.478 370.82 888.398 370.93 888.278 371C888.168 371.07 888.033 371.105 887.873 371.105C887.653 371.105 887.478 371.05 887.348 370.94C887.228 370.82 887.138 370.645 887.078 370.415L886.463 368.09L886.988 368.42H880.688L881.363 368.12L879.878 370.64C879.798 370.8 879.693 370.92 879.563 371C879.433 371.07 879.278 371.105 879.098 371.105ZM884.858 362.15L881.768 367.43L881.423 367.16H886.658L886.283 367.445L884.888 362.15H884.858ZM890.863 371.105C890.643 371.105 890.473 371.03 890.353 370.88C890.243 370.73 890.208 370.52 890.248 370.25L891.718 360.98C891.758 360.75 891.843 360.585 891.973 360.485C892.103 360.375 892.258 360.32 892.438 360.32C892.638 360.32 892.788 360.36 892.888 360.44C892.998 360.51 893.103 360.63 893.203 360.8L898.003 369.05H897.673L898.933 361.025C898.973 360.785 899.063 360.61 899.203 360.5C899.343 360.38 899.533 360.32 899.773 360.32C899.993 360.32 900.153 360.395 900.253 360.545C900.353 360.695 900.383 360.9 900.343 361.16L898.873 370.43C898.843 370.66 898.773 370.83 898.663 370.94C898.553 371.05 898.403 371.105 898.213 371.105C898.013 371.105 897.853 371.065 897.733 370.985C897.613 370.905 897.498 370.775 897.388 370.595L892.588 362.375H892.918L891.658 370.4C891.628 370.64 891.548 370.82 891.418 370.94C891.298 371.05 891.113 371.105 890.863 371.105ZM906.421 371.135C905.501 371.135 904.686 370.965 903.976 370.625C903.276 370.275 902.726 369.75 902.326 369.05C901.926 368.34 901.726 367.445 901.726 366.365C901.726 365.505 901.851 364.71 902.101 363.98C902.361 363.24 902.726 362.595 903.196 362.045C903.676 361.495 904.261 361.065 904.951 360.755C905.651 360.445 906.436 360.29 907.306 360.29C907.906 360.29 908.476 360.375 909.016 360.545C909.556 360.715 910.026 360.96 910.426 361.28C910.576 361.39 910.666 361.52 910.696 361.67C910.736 361.81 910.731 361.95 910.681 362.09C910.641 362.23 910.571 362.35 910.471 362.45C910.381 362.54 910.266 362.595 910.126 362.615C909.996 362.625 909.861 362.585 909.721 362.495C909.331 362.195 908.936 361.985 908.536 361.865C908.136 361.735 907.706 361.67 907.246 361.67C906.436 361.67 905.741 361.875 905.161 362.285C904.581 362.685 904.136 363.24 903.826 363.95C903.526 364.65 903.376 365.445 903.376 366.335C903.376 367.145 903.501 367.8 903.751 368.3C904.001 368.8 904.361 369.17 904.831 369.41C905.311 369.64 905.891 369.755 906.571 369.755C906.991 369.755 907.386 369.7 907.756 369.59C908.126 369.47 908.501 369.275 908.881 369.005C909.041 368.905 909.191 368.865 909.331 368.885C909.471 368.895 909.586 368.95 909.676 369.05C909.776 369.14 909.841 369.255 909.871 369.395C909.901 369.525 909.891 369.66 909.841 369.8C909.791 369.94 909.691 370.06 909.541 370.16C909.091 370.49 908.596 370.735 908.056 370.895C907.516 371.055 906.971 371.135 906.421 371.135ZM912.327 371C912.037 371 911.822 370.925 911.682 370.775C911.552 370.615 911.507 370.39 911.547 370.1L912.972 361.19C913.012 360.93 913.107 360.74 913.257 360.62C913.407 360.49 913.607 360.425 913.857 360.425H919.287C919.497 360.425 919.657 360.47 919.767 360.56C919.887 360.64 919.947 360.76 919.947 360.92C919.947 361.17 919.877 361.36 919.737 361.49C919.607 361.62 919.432 361.685 919.212 361.685H914.382L913.857 365H918.252C918.462 365 918.622 365.045 918.732 365.135C918.842 365.215 918.897 365.34 918.897 365.51C918.897 365.75 918.827 365.935 918.687 366.065C918.557 366.195 918.382 366.26 918.162 366.26H913.662L913.092 369.74H917.802C918.012 369.74 918.172 369.785 918.282 369.875C918.402 369.955 918.462 370.08 918.462 370.25C918.462 370.49 918.392 370.675 918.252 370.805C918.122 370.935 917.947 371 917.727 371H912.327ZM924.216 371.105C924.036 371.105 923.881 371.065 923.751 370.985C923.631 370.895 923.561 370.78 923.541 370.64C923.511 370.49 923.546 370.325 923.646 370.145L929.271 360.845C929.391 360.665 929.516 360.535 929.646 360.455C929.786 360.365 929.961 360.32 930.171 360.32C930.381 360.32 930.551 360.37 930.681 360.47C930.821 360.57 930.921 360.725 930.981 360.935L933.591 370.1C933.661 370.33 933.676 370.52 933.636 370.67C933.596 370.82 933.516 370.93 933.396 371C933.286 371.07 933.151 371.105 932.991 371.105C932.771 371.105 932.596 371.05 932.466 370.94C932.346 370.82 932.256 370.645 932.196 370.415L931.581 368.09L932.106 368.42H925.806L926.481 368.12L924.996 370.64C924.916 370.8 924.811 370.92 924.681 371C924.551 371.07 924.396 371.105 924.216 371.105ZM929.976 362.15L926.886 367.43L926.541 367.16H931.776L931.401 367.445L930.006 362.15H929.976ZM940.185 371.135C939.265 371.135 938.45 370.965 937.74 370.625C937.04 370.275 936.49 369.75 936.09 369.05C935.69 368.34 935.49 367.445 935.49 366.365C935.49 365.505 935.615 364.71 935.865 363.98C936.125 363.24 936.49 362.595 936.96 362.045C937.44 361.495 938.025 361.065 938.715 360.755C939.415 360.445 940.2 360.29 941.07 360.29C941.67 360.29 942.24 360.375 942.78 360.545C943.32 360.715 943.79 360.96 944.19 361.28C944.34 361.39 944.43 361.52 944.46 361.67C944.5 361.81 944.495 361.95 944.445 362.09C944.405 362.23 944.335 362.35 944.235 362.45C944.145 362.54 944.03 362.595 943.89 362.615C943.76 362.625 943.625 362.585 943.485 362.495C943.095 362.195 942.7 361.985 942.3 361.865C941.9 361.735 941.47 361.67 941.01 361.67C940.2 361.67 939.505 361.875 938.925 362.285C938.345 362.685 937.9 363.24 937.59 363.95C937.29 364.65 937.14 365.445 937.14 366.335C937.14 367.145 937.265 367.8 937.515 368.3C937.765 368.8 938.125 369.17 938.595 369.41C939.075 369.64 939.655 369.755 940.335 369.755C940.755 369.755 941.15 369.7 941.52 369.59C941.89 369.47 942.265 369.275 942.645 369.005C942.805 368.905 942.955 368.865 943.095 368.885C943.235 368.895 943.35 368.95 943.44 369.05C943.54 369.14 943.605 369.255 943.635 369.395C943.665 369.525 943.655 369.66 943.605 369.8C943.555 369.94 943.455 370.06 943.305 370.16C942.855 370.49 942.36 370.735 941.82 370.895C941.28 371.055 940.735 371.135 940.185 371.135ZM950 371.135C949.08 371.135 948.265 370.965 947.555 370.625C946.855 370.275 946.305 369.75 945.905 369.05C945.505 368.34 945.305 367.445 945.305 366.365C945.305 365.505 945.43 364.71 945.68 363.98C945.94 363.24 946.305 362.595 946.775 362.045C947.255 361.495 947.84 361.065 948.53 360.755C949.23 360.445 950.015 360.29 950.885 360.29C951.485 360.29 952.055 360.375 952.595 360.545C953.135 360.715 953.605 360.96 954.005 361.28C954.155 361.39 954.245 361.52 954.275 361.67C954.315 361.81 954.31 361.95 954.26 362.09C954.22 362.23 954.15 362.35 954.05 362.45C953.96 362.54 953.845 362.595 953.705 362.615C953.575 362.625 953.44 362.585 953.3 362.495C952.91 362.195 952.515 361.985 952.115 361.865C951.715 361.735 951.285 361.67 950.825 361.67C950.015 361.67 949.32 361.875 948.74 362.285C948.16 362.685 947.715 363.24 947.405 363.95C947.105 364.65 946.955 365.445 946.955 366.335C946.955 367.145 947.08 367.8 947.33 368.3C947.58 368.8 947.94 369.17 948.41 369.41C948.89 369.64 949.47 369.755 950.15 369.755C950.57 369.755 950.965 369.7 951.335 369.59C951.705 369.47 952.08 369.275 952.46 369.005C952.62 368.905 952.77 368.865 952.91 368.885C953.05 368.895 953.165 368.95 953.255 369.05C953.355 369.14 953.42 369.255 953.45 369.395C953.48 369.525 953.47 369.66 953.42 369.8C953.37 369.94 953.27 370.06 953.12 370.16C952.67 370.49 952.175 370.735 951.635 370.895C951.095 371.055 950.55 371.135 950 371.135ZM959.619 371.135C958.709 371.135 957.914 370.96 957.234 370.61C956.564 370.26 956.039 369.74 955.659 369.05C955.289 368.36 955.104 367.53 955.104 366.56C955.104 365.66 955.224 364.83 955.464 364.07C955.714 363.31 956.074 362.645 956.544 362.075C957.014 361.505 957.584 361.065 958.254 360.755C958.924 360.445 959.689 360.29 960.549 360.29C961.469 360.29 962.264 360.465 962.934 360.815C963.614 361.165 964.139 361.685 964.509 362.375C964.879 363.055 965.064 363.88 965.064 364.85C965.064 365.76 964.939 366.595 964.689 367.355C964.449 368.115 964.094 368.78 963.624 369.35C963.154 369.92 962.584 370.36 961.914 370.67C961.244 370.98 960.479 371.135 959.619 371.135ZM959.649 369.785C960.469 369.785 961.159 369.575 961.719 369.155C962.279 368.725 962.704 368.14 962.994 367.4C963.284 366.66 963.429 365.82 963.429 364.88C963.429 363.78 963.169 362.965 962.649 362.435C962.139 361.905 961.424 361.64 960.504 361.64C959.694 361.64 959.009 361.85 958.449 362.27C957.889 362.69 957.464 363.27 957.174 364.01C956.884 364.75 956.739 365.59 956.739 366.53C956.739 367.64 956.999 368.46 957.519 368.99C958.039 369.52 958.749 369.785 959.649 369.785ZM970.71 371.135C970.04 371.135 969.445 371.04 968.925 370.85C968.405 370.66 967.975 370.37 967.635 369.98C967.295 369.59 967.06 369.105 966.93 368.525C966.81 367.935 966.815 367.25 966.945 366.47L967.8 361.04C967.84 360.79 967.93 360.61 968.07 360.5C968.22 360.38 968.415 360.32 968.655 360.32C968.915 360.32 969.1 360.395 969.21 360.545C969.33 360.685 969.37 360.895 969.33 361.175L968.475 366.605C968.305 367.655 968.415 368.45 968.805 368.99C969.205 369.52 969.87 369.785 970.8 369.785C971.71 369.785 972.425 369.555 972.945 369.095C973.475 368.635 973.82 367.895 973.98 366.875L974.91 361.04C974.95 360.79 975.04 360.61 975.18 360.5C975.33 360.38 975.525 360.32 975.765 360.32C976.015 360.32 976.195 360.395 976.305 360.545C976.425 360.685 976.465 360.895 976.425 361.175L975.525 366.89C975.375 367.82 975.105 368.6 974.715 369.23C974.325 369.86 973.8 370.335 973.14 370.655C972.48 370.975 971.67 371.135 970.71 371.135ZM978.036 371.105C977.816 371.105 977.646 371.03 977.526 370.88C977.416 370.73 977.381 370.52 977.421 370.25L978.891 360.98C978.931 360.75 979.016 360.585 979.146 360.485C979.276 360.375 979.431 360.32 979.611 360.32C979.811 360.32 979.961 360.36 980.061 360.44C980.171 360.51 980.276 360.63 980.376 360.8L985.176 369.05H984.846L986.106 361.025C986.146 360.785 986.236 360.61 986.376 360.5C986.516 360.38 986.706 360.32 986.946 360.32C987.166 360.32 987.326 360.395 987.426 360.545C987.526 360.695 987.556 360.9 987.516 361.16L986.046 370.43C986.016 370.66 985.946 370.83 985.836 370.94C985.726 371.05 985.576 371.105 985.386 371.105C985.186 371.105 985.026 371.065 984.906 370.985C984.786 370.905 984.671 370.775 984.561 370.595L979.761 362.375H980.091L978.831 370.4C978.801 370.64 978.721 370.82 978.591 370.94C978.471 371.05 978.286 371.105 978.036 371.105ZM991.809 371.105C991.559 371.105 991.374 371.025 991.254 370.865C991.144 370.705 991.109 370.485 991.149 370.205L992.484 361.73H989.439C989.219 361.73 989.044 361.685 988.914 361.595C988.794 361.495 988.734 361.36 988.734 361.19C988.734 360.95 988.804 360.765 988.944 360.635C989.094 360.495 989.284 360.425 989.514 360.425H997.299C997.529 360.425 997.704 360.47 997.824 360.56C997.944 360.65 998.004 360.78 998.004 360.95C998.004 361.2 997.934 361.395 997.794 361.535C997.654 361.665 997.464 361.73 997.224 361.73H994.044L992.679 370.34C992.639 370.59 992.544 370.78 992.394 370.91C992.254 371.04 992.059 371.105 991.809 371.105Z" fill="#333638"/>
<rect x="738.5" y="332.5" width="282" height="67" rx="8.5" stroke="#333638" stroke-width="3" stroke-linecap="round"/>
<rect x="472.5" y="93.5" width="243" height="67" rx="8.5" fill="#F9FAFA"/>
<path d="M497.676 132.06C497.436 132.06 497.261 131.99 497.151 131.85C497.051 131.71 497.016 131.515 497.046 131.265L498.516 121.98C498.556 121.75 498.636 121.585 498.756 121.485C498.886 121.375 499.061 121.32 499.281 121.32C499.481 121.32 499.636 121.365 499.746 121.455C499.856 121.535 499.951 121.68 500.031 121.89L502.716 129.165H502.296L507.411 121.77C507.531 121.61 507.651 121.495 507.771 121.425C507.901 121.355 508.066 121.32 508.266 121.32C508.496 121.32 508.666 121.39 508.776 121.53C508.886 121.67 508.921 121.86 508.881 122.1L507.396 131.385C507.366 131.605 507.291 131.775 507.171 131.895C507.051 132.005 506.876 132.06 506.646 132.06C506.416 132.06 506.246 131.99 506.136 131.85C506.026 131.71 505.986 131.515 506.016 131.265L507.231 123.585H507.576L503.046 130.125C502.956 130.265 502.861 130.365 502.761 130.425C502.671 130.475 502.556 130.5 502.416 130.5C502.246 130.5 502.111 130.46 502.011 130.38C501.921 130.3 501.846 130.18 501.786 130.02L499.341 123.615H499.656L498.426 131.385C498.396 131.605 498.316 131.775 498.186 131.895C498.066 132.005 497.896 132.06 497.676 132.06ZM513.116 132.105C512.866 132.105 512.686 132.025 512.576 131.865C512.476 131.705 512.446 131.485 512.486 131.205L513.221 126.54L513.386 127.53L510.551 122.43C510.441 122.23 510.391 122.05 510.401 121.89C510.421 121.72 510.491 121.585 510.611 121.485C510.741 121.375 510.911 121.32 511.121 121.32C511.311 121.32 511.461 121.365 511.571 121.455C511.691 121.535 511.811 121.68 511.931 121.89L514.181 125.955H513.821L517.466 121.785C517.616 121.605 517.751 121.485 517.871 121.425C518.001 121.355 518.156 121.32 518.336 121.32C518.526 121.32 518.681 121.375 518.801 121.485C518.921 121.595 518.981 121.735 518.981 121.905C518.981 122.075 518.906 122.25 518.756 122.43L514.271 127.53L514.766 126.54L514.001 131.34C513.921 131.85 513.626 132.105 513.116 132.105ZM520.194 132C519.914 132 519.704 131.92 519.564 131.76C519.434 131.6 519.389 131.38 519.429 131.1L520.854 122.19C520.894 121.93 520.989 121.74 521.139 121.62C521.289 121.49 521.489 121.425 521.739 121.425H525.129C525.889 121.425 526.509 121.53 526.989 121.74C527.469 121.95 527.824 122.245 528.054 122.625C528.284 122.995 528.399 123.425 528.399 123.915C528.399 124.685 528.154 125.32 527.664 125.82C527.184 126.31 526.549 126.615 525.759 126.735V126.495C526.419 126.615 526.934 126.885 527.304 127.305C527.684 127.725 527.874 128.245 527.874 128.865C527.874 129.895 527.544 130.675 526.884 131.205C526.224 131.735 525.294 132 524.094 132H520.194ZM520.974 130.8H524.049C524.819 130.8 525.399 130.63 525.789 130.29C526.179 129.94 526.374 129.44 526.374 128.79C526.374 128.28 526.204 127.895 525.864 127.635C525.524 127.375 525.029 127.245 524.379 127.245H521.544L520.974 130.8ZM521.739 126.045H524.544C525.274 126.045 525.844 125.875 526.254 125.535C526.674 125.195 526.884 124.71 526.884 124.08C526.884 123.61 526.724 123.25 526.404 123C526.084 122.75 525.584 122.625 524.904 122.625H522.279L521.739 126.045ZM533.928 132.135C533.258 132.135 532.663 132.04 532.143 131.85C531.623 131.66 531.193 131.37 530.853 130.98C530.513 130.59 530.278 130.105 530.148 129.525C530.028 128.935 530.033 128.25 530.163 127.47L531.018 122.04C531.058 121.79 531.148 121.61 531.288 121.5C531.438 121.38 531.633 121.32 531.873 121.32C532.133 121.32 532.318 121.395 532.428 121.545C532.548 121.685 532.588 121.895 532.548 122.175L531.693 127.605C531.523 128.655 531.633 129.45 532.023 129.99C532.423 130.52 533.088 130.785 534.018 130.785C534.928 130.785 535.643 130.555 536.163 130.095C536.693 129.635 537.038 128.895 537.198 127.875L538.128 122.04C538.168 121.79 538.258 121.61 538.398 121.5C538.548 121.38 538.743 121.32 538.983 121.32C539.233 121.32 539.413 121.395 539.523 121.545C539.643 121.685 539.683 121.895 539.643 122.175L538.743 127.89C538.593 128.82 538.323 129.6 537.933 130.23C537.543 130.86 537.018 131.335 536.358 131.655C535.698 131.975 534.888 132.135 533.928 132.135ZM545.664 132.135C544.744 132.135 543.929 131.965 543.219 131.625C542.519 131.275 541.969 130.75 541.569 130.05C541.169 129.34 540.969 128.445 540.969 127.365C540.969 126.505 541.094 125.71 541.344 124.98C541.604 124.24 541.969 123.595 542.439 123.045C542.919 122.495 543.504 122.065 544.194 121.755C544.894 121.445 545.679 121.29 546.549 121.29C547.149 121.29 547.719 121.375 548.259 121.545C548.799 121.715 549.269 121.96 549.669 122.28C549.819 122.39 549.909 122.52 549.939 122.67C549.979 122.81 549.974 122.95 549.924 123.09C549.884 123.23 549.814 123.35 549.714 123.45C549.624 123.54 549.509 123.595 549.369 123.615C549.239 123.625 549.104 123.585 548.964 123.495C548.574 123.195 548.179 122.985 547.779 122.865C547.379 122.735 546.949 122.67 546.489 122.67C545.679 122.67 544.984 122.875 544.404 123.285C543.824 123.685 543.379 124.24 543.069 124.95C542.769 125.65 542.619 126.445 542.619 127.335C542.619 128.145 542.744 128.8 542.994 129.3C543.244 129.8 543.604 130.17 544.074 130.41C544.554 130.64 545.134 130.755 545.814 130.755C546.234 130.755 546.629 130.7 546.999 130.59C547.369 130.47 547.744 130.275 548.124 130.005C548.284 129.905 548.434 129.865 548.574 129.885C548.714 129.895 548.829 129.95 548.919 130.05C549.019 130.14 549.084 130.255 549.114 130.395C549.144 130.525 549.134 130.66 549.084 130.8C549.034 130.94 548.934 131.06 548.784 131.16C548.334 131.49 547.839 131.735 547.299 131.895C546.759 132.055 546.214 132.135 545.664 132.135ZM551.436 132.105C551.186 132.105 551.001 132.03 550.881 131.88C550.761 131.72 550.726 131.495 550.776 131.205L552.231 122.07C552.271 121.82 552.361 121.635 552.501 121.515C552.651 121.385 552.851 121.32 553.101 121.32C553.351 121.32 553.531 121.4 553.641 121.56C553.751 121.71 553.786 121.925 553.746 122.205L553.116 126.18H553.146L558.471 121.68C558.621 121.55 558.746 121.46 558.846 121.41C558.956 121.35 559.091 121.32 559.251 121.32C559.451 121.32 559.611 121.38 559.731 121.5C559.851 121.62 559.906 121.765 559.896 121.935C559.896 122.105 559.816 122.26 559.656 122.4L554.241 126.975L554.226 126.21L558.561 131.055C558.701 131.205 558.761 131.36 558.741 131.52C558.731 131.68 558.666 131.82 558.546 131.94C558.426 132.05 558.261 132.105 558.051 132.105C557.871 132.105 557.721 132.065 557.601 131.985C557.491 131.905 557.356 131.78 557.196 131.61L553.011 127.02H552.981L552.306 131.355C552.266 131.605 552.176 131.795 552.036 131.925C551.896 132.045 551.696 132.105 551.436 132.105ZM563.739 132.135C563.299 132.135 562.864 132.105 562.434 132.045C562.004 131.985 561.589 131.885 561.189 131.745C560.789 131.595 560.419 131.405 560.079 131.175C559.929 131.085 559.824 130.97 559.764 130.83C559.714 130.69 559.704 130.555 559.734 130.425C559.764 130.285 559.824 130.165 559.914 130.065C560.004 129.965 560.119 129.905 560.259 129.885C560.409 129.865 560.569 129.905 560.739 130.005C561.219 130.305 561.719 130.515 562.239 130.635C562.769 130.755 563.314 130.815 563.874 130.815C564.624 130.815 565.224 130.665 565.674 130.365C566.134 130.055 566.364 129.64 566.364 129.12C566.364 128.75 566.229 128.435 565.959 128.175C565.689 127.915 565.224 127.715 564.564 127.575L562.974 127.185C562.264 127.015 561.694 126.72 561.264 126.3C560.844 125.87 560.634 125.28 560.634 124.53C560.634 124.03 560.739 123.58 560.949 123.18C561.159 122.78 561.454 122.44 561.834 122.16C562.214 121.87 562.649 121.655 563.139 121.515C563.629 121.365 564.149 121.29 564.699 121.29C565.259 121.29 565.839 121.37 566.439 121.53C567.049 121.68 567.589 121.935 568.059 122.295C568.199 122.395 568.289 122.515 568.329 122.655C568.379 122.795 568.389 122.935 568.359 123.075C568.329 123.205 568.269 123.315 568.179 123.405C568.089 123.485 567.969 123.53 567.819 123.54C567.679 123.55 567.509 123.495 567.309 123.375C566.939 123.115 566.519 122.925 566.049 122.805C565.589 122.675 565.129 122.61 564.669 122.61C564.189 122.61 563.759 122.685 563.379 122.835C563.009 122.985 562.714 123.195 562.494 123.465C562.284 123.725 562.179 124.04 562.179 124.41C562.179 124.86 562.299 125.195 562.539 125.415C562.779 125.635 563.134 125.805 563.604 125.925L565.194 126.315C566.114 126.525 566.794 126.855 567.234 127.305C567.684 127.755 567.909 128.3 567.909 128.94C567.909 129.47 567.799 129.935 567.579 130.335C567.359 130.735 567.054 131.07 566.664 131.34C566.284 131.6 565.844 131.8 565.344 131.94C564.844 132.07 564.309 132.135 563.739 132.135ZM573.965 132.105C573.725 132.105 573.545 132.025 573.425 131.865C573.315 131.705 573.285 131.48 573.335 131.19L574.76 122.205C574.8 121.945 574.895 121.75 575.045 121.62C575.195 121.49 575.4 121.425 575.66 121.425H578.81C579.96 121.425 580.83 121.685 581.42 122.205C582.01 122.715 582.305 123.415 582.305 124.305C582.305 125.045 582.135 125.66 581.795 126.15C581.455 126.64 580.99 127.005 580.4 127.245C579.81 127.485 579.135 127.6 578.375 127.59V127.38H578.69C579.14 127.38 579.51 127.51 579.8 127.77C580.09 128.03 580.325 128.39 580.505 128.85L581.36 131.1C581.44 131.31 581.47 131.49 581.45 131.64C581.43 131.79 581.36 131.905 581.24 131.985C581.13 132.065 580.965 132.105 580.745 132.105C580.535 132.105 580.365 132.055 580.235 131.955C580.115 131.845 580.01 131.67 579.92 131.43L578.9 128.745C578.75 128.345 578.55 128.06 578.3 127.89C578.06 127.72 577.715 127.635 577.265 127.635H575.435L574.865 131.34C574.825 131.59 574.73 131.78 574.58 131.91C574.43 132.04 574.225 132.105 573.965 132.105ZM575.63 126.465H578.42C579.17 126.465 579.75 126.29 580.16 125.94C580.58 125.58 580.79 125.075 580.79 124.425C580.79 123.835 580.615 123.395 580.265 123.105C579.915 122.815 579.365 122.67 578.615 122.67H576.23L575.63 126.465ZM588.228 132.135C587.318 132.135 586.523 131.96 585.843 131.61C585.173 131.26 584.648 130.74 584.268 130.05C583.898 129.36 583.713 128.53 583.713 127.56C583.713 126.66 583.833 125.83 584.073 125.07C584.323 124.31 584.683 123.645 585.153 123.075C585.623 122.505 586.193 122.065 586.863 121.755C587.533 121.445 588.298 121.29 589.158 121.29C590.078 121.29 590.873 121.465 591.543 121.815C592.223 122.165 592.748 122.685 593.118 123.375C593.488 124.055 593.673 124.88 593.673 125.85C593.673 126.76 593.548 127.595 593.298 128.355C593.058 129.115 592.703 129.78 592.233 130.35C591.763 130.92 591.193 131.36 590.523 131.67C589.853 131.98 589.088 132.135 588.228 132.135ZM588.258 130.785C589.078 130.785 589.768 130.575 590.328 130.155C590.888 129.725 591.313 129.14 591.603 128.4C591.893 127.66 592.038 126.82 592.038 125.88C592.038 124.78 591.778 123.965 591.258 123.435C590.748 122.905 590.033 122.64 589.113 122.64C588.303 122.64 587.618 122.85 587.058 123.27C586.498 123.69 586.073 124.27 585.783 125.01C585.493 125.75 585.348 126.59 585.348 127.53C585.348 128.64 585.608 129.46 586.128 129.99C586.648 130.52 587.358 130.785 588.258 130.785ZM599.859 132.135C598.949 132.135 598.154 131.96 597.474 131.61C596.804 131.26 596.279 130.74 595.899 130.05C595.529 129.36 595.344 128.53 595.344 127.56C595.344 126.66 595.464 125.83 595.704 125.07C595.954 124.31 596.314 123.645 596.784 123.075C597.254 122.505 597.824 122.065 598.494 121.755C599.164 121.445 599.929 121.29 600.789 121.29C601.709 121.29 602.504 121.465 603.174 121.815C603.854 122.165 604.379 122.685 604.749 123.375C605.119 124.055 605.304 124.88 605.304 125.85C605.304 126.76 605.179 127.595 604.929 128.355C604.689 129.115 604.334 129.78 603.864 130.35C603.394 130.92 602.824 131.36 602.154 131.67C601.484 131.98 600.719 132.135 599.859 132.135ZM599.889 130.785C600.709 130.785 601.399 130.575 601.959 130.155C602.519 129.725 602.944 129.14 603.234 128.4C603.524 127.66 603.669 126.82 603.669 125.88C603.669 124.78 603.409 123.965 602.889 123.435C602.379 122.905 601.664 122.64 600.744 122.64C599.934 122.64 599.249 122.85 598.689 123.27C598.129 123.69 597.704 124.27 597.414 125.01C597.124 125.75 596.979 126.59 596.979 127.53C596.979 128.64 597.239 129.46 597.759 129.99C598.279 130.52 598.989 130.785 599.889 130.785ZM609.241 132.105C608.991 132.105 608.806 132.025 608.686 131.865C608.576 131.705 608.541 131.485 608.581 131.205L609.916 122.73H606.871C606.651 122.73 606.476 122.685 606.346 122.595C606.226 122.495 606.166 122.36 606.166 122.19C606.166 121.95 606.236 121.765 606.376 121.635C606.526 121.495 606.716 121.425 606.946 121.425H614.731C614.961 121.425 615.136 121.47 615.256 121.56C615.376 121.65 615.436 121.78 615.436 121.95C615.436 122.2 615.366 122.395 615.226 122.535C615.086 122.665 614.896 122.73 614.656 122.73H611.476L610.111 131.34C610.071 131.59 609.976 131.78 609.826 131.91C609.686 132.04 609.491 132.105 609.241 132.105ZM619.021 132.105C618.841 132.105 618.686 132.065 618.556 131.985C618.436 131.895 618.366 131.78 618.346 131.64C618.316 131.49 618.351 131.325 618.451 131.145L624.076 121.845C624.196 121.665 624.321 121.535 624.451 121.455C624.591 121.365 624.766 121.32 624.976 121.32C625.186 121.32 625.356 121.37 625.486 121.47C625.626 121.57 625.726 121.725 625.786 121.935L628.396 131.1C628.466 131.33 628.481 131.52 628.441 131.67C628.401 131.82 628.321 131.93 628.201 132C628.091 132.07 627.956 132.105 627.796 132.105C627.576 132.105 627.401 132.05 627.271 131.94C627.151 131.82 627.061 131.645 627.001 131.415L626.386 129.09L626.911 129.42H620.611L621.286 129.12L619.801 131.64C619.721 131.8 619.616 131.92 619.486 132C619.356 132.07 619.201 132.105 619.021 132.105ZM624.781 123.15L621.691 128.43L621.346 128.16H626.581L626.206 128.445L624.811 123.15H624.781ZM634.991 132.135C634.071 132.135 633.256 131.965 632.546 131.625C631.846 131.275 631.296 130.75 630.896 130.05C630.496 129.34 630.296 128.445 630.296 127.365C630.296 126.505 630.421 125.71 630.671 124.98C630.931 124.24 631.296 123.595 631.766 123.045C632.246 122.495 632.831 122.065 633.521 121.755C634.221 121.445 635.006 121.29 635.876 121.29C636.476 121.29 637.046 121.375 637.586 121.545C638.126 121.715 638.596 121.96 638.996 122.28C639.146 122.39 639.236 122.52 639.266 122.67C639.306 122.81 639.301 122.95 639.251 123.09C639.211 123.23 639.141 123.35 639.041 123.45C638.951 123.54 638.836 123.595 638.696 123.615C638.566 123.625 638.431 123.585 638.291 123.495C637.901 123.195 637.506 122.985 637.106 122.865C636.706 122.735 636.276 122.67 635.816 122.67C635.006 122.67 634.311 122.875 633.731 123.285C633.151 123.685 632.706 124.24 632.396 124.95C632.096 125.65 631.946 126.445 631.946 127.335C631.946 128.145 632.071 128.8 632.321 129.3C632.571 129.8 632.931 130.17 633.401 130.41C633.881 130.64 634.461 130.755 635.141 130.755C635.561 130.755 635.956 130.7 636.326 130.59C636.696 130.47 637.071 130.275 637.451 130.005C637.611 129.905 637.761 129.865 637.901 129.885C638.041 129.895 638.156 129.95 638.246 130.05C638.346 130.14 638.411 130.255 638.441 130.395C638.471 130.525 638.461 130.66 638.411 130.8C638.361 130.94 638.261 131.06 638.111 131.16C637.661 131.49 637.166 131.735 636.626 131.895C636.086 132.055 635.541 132.135 634.991 132.135ZM644.805 132.135C643.885 132.135 643.07 131.965 642.36 131.625C641.66 131.275 641.11 130.75 640.71 130.05C640.31 129.34 640.11 128.445 640.11 127.365C640.11 126.505 640.235 125.71 640.485 124.98C640.745 124.24 641.11 123.595 641.58 123.045C642.06 122.495 642.645 122.065 643.335 121.755C644.035 121.445 644.82 121.29 645.69 121.29C646.29 121.29 646.86 121.375 647.4 121.545C647.94 121.715 648.41 121.96 648.81 122.28C648.96 122.39 649.05 122.52 649.08 122.67C649.12 122.81 649.115 122.95 649.065 123.09C649.025 123.23 648.955 123.35 648.855 123.45C648.765 123.54 648.65 123.595 648.51 123.615C648.38 123.625 648.245 123.585 648.105 123.495C647.715 123.195 647.32 122.985 646.92 122.865C646.52 122.735 646.09 122.67 645.63 122.67C644.82 122.67 644.125 122.875 643.545 123.285C642.965 123.685 642.52 124.24 642.21 124.95C641.91 125.65 641.76 126.445 641.76 127.335C641.76 128.145 641.885 128.8 642.135 129.3C642.385 129.8 642.745 130.17 643.215 130.41C643.695 130.64 644.275 130.755 644.955 130.755C645.375 130.755 645.77 130.7 646.14 130.59C646.51 130.47 646.885 130.275 647.265 130.005C647.425 129.905 647.575 129.865 647.715 129.885C647.855 129.895 647.97 129.95 648.06 130.05C648.16 130.14 648.225 130.255 648.255 130.395C648.285 130.525 648.275 130.66 648.225 130.8C648.175 130.94 648.075 131.06 647.925 131.16C647.475 131.49 646.98 131.735 646.44 131.895C645.9 132.055 645.355 132.135 644.805 132.135ZM654.424 132.135C653.514 132.135 652.719 131.96 652.039 131.61C651.369 131.26 650.844 130.74 650.464 130.05C650.094 129.36 649.909 128.53 649.909 127.56C649.909 126.66 650.029 125.83 650.269 125.07C650.519 124.31 650.879 123.645 651.349 123.075C651.819 122.505 652.389 122.065 653.059 121.755C653.729 121.445 654.494 121.29 655.354 121.29C656.274 121.29 657.069 121.465 657.739 121.815C658.419 122.165 658.944 122.685 659.314 123.375C659.684 124.055 659.869 124.88 659.869 125.85C659.869 126.76 659.744 127.595 659.494 128.355C659.254 129.115 658.899 129.78 658.429 130.35C657.959 130.92 657.389 131.36 656.719 131.67C656.049 131.98 655.284 132.135 654.424 132.135ZM654.454 130.785C655.274 130.785 655.964 130.575 656.524 130.155C657.084 129.725 657.509 129.14 657.799 128.4C658.089 127.66 658.234 126.82 658.234 125.88C658.234 124.78 657.974 123.965 657.454 123.435C656.944 122.905 656.229 122.64 655.309 122.64C654.499 122.64 653.814 122.85 653.254 123.27C652.694 123.69 652.269 124.27 651.979 125.01C651.689 125.75 651.544 126.59 651.544 127.53C651.544 128.64 651.804 129.46 652.324 129.99C652.844 130.52 653.554 130.785 654.454 130.785ZM665.515 132.135C664.845 132.135 664.25 132.04 663.73 131.85C663.21 131.66 662.78 131.37 662.44 130.98C662.1 130.59 661.865 130.105 661.735 129.525C661.615 128.935 661.62 128.25 661.75 127.47L662.605 122.04C662.645 121.79 662.735 121.61 662.875 121.5C663.025 121.38 663.22 121.32 663.46 121.32C663.72 121.32 663.905 121.395 664.015 121.545C664.135 121.685 664.175 121.895 664.135 122.175L663.28 127.605C663.11 128.655 663.22 129.45 663.61 129.99C664.01 130.52 664.675 130.785 665.605 130.785C666.515 130.785 667.23 130.555 667.75 130.095C668.28 129.635 668.625 128.895 668.785 127.875L669.715 122.04C669.755 121.79 669.845 121.61 669.985 121.5C670.135 121.38 670.33 121.32 670.57 121.32C670.82 121.32 671 121.395 671.11 121.545C671.23 121.685 671.27 121.895 671.23 122.175L670.33 127.89C670.18 128.82 669.91 129.6 669.52 130.23C669.13 130.86 668.605 131.335 667.945 131.655C667.285 131.975 666.475 132.135 665.515 132.135ZM672.841 132.105C672.621 132.105 672.451 132.03 672.331 131.88C672.221 131.73 672.186 131.52 672.226 131.25L673.696 121.98C673.736 121.75 673.821 121.585 673.951 121.485C674.081 121.375 674.236 121.32 674.416 121.32C674.616 121.32 674.766 121.36 674.866 121.44C674.976 121.51 675.081 121.63 675.181 121.8L679.981 130.05H679.651L680.911 122.025C680.951 121.785 681.041 121.61 681.181 121.5C681.321 121.38 681.511 121.32 681.751 121.32C681.971 121.32 682.131 121.395 682.231 121.545C682.331 121.695 682.361 121.9 682.321 122.16L680.851 131.43C680.821 131.66 680.751 131.83 680.641 131.94C680.531 132.05 680.381 132.105 680.191 132.105C679.991 132.105 679.831 132.065 679.711 131.985C679.591 131.905 679.476 131.775 679.366 131.595L674.566 123.375H674.896L673.636 131.4C673.606 131.64 673.526 131.82 673.396 131.94C673.276 132.05 673.091 132.105 672.841 132.105ZM686.614 132.105C686.364 132.105 686.179 132.025 686.059 131.865C685.949 131.705 685.914 131.485 685.954 131.205L687.289 122.73H684.244C684.024 122.73 683.849 122.685 683.719 122.595C683.599 122.495 683.539 122.36 683.539 122.19C683.539 121.95 683.609 121.765 683.749 121.635C683.899 121.495 684.089 121.425 684.319 121.425H692.104C692.334 121.425 692.509 121.47 692.629 121.56C692.749 121.65 692.809 121.78 692.809 121.95C692.809 122.2 692.739 122.395 692.599 122.535C692.459 122.665 692.269 122.73 692.029 122.73H688.849L687.484 131.34C687.444 131.59 687.349 131.78 687.199 131.91C687.059 132.04 686.864 132.105 686.614 132.105Z" fill="#333638"/>
<rect x="472.5" y="93.5" width="243" height="67" rx="8.5" stroke="#333638" stroke-width="3" stroke-linecap="round"/>
<path d="M595.5 166C595.5 165.172 594.828 164.5 594 164.5C593.172 164.5 592.5 165.172 592.5 166H595.5ZM347.939 328.061C348.525 328.646 349.475 328.646 350.061 328.061L359.607 318.515C360.192 317.929 360.192 316.979 359.607 316.393C359.021 315.808 358.071 315.808 357.485 316.393L349 324.879L340.515 316.393C339.929 315.808 338.979 315.808 338.393 316.393C337.808 316.979 337.808 317.929 338.393 318.515L347.939 328.061ZM592.5 166V222.5H595.5V166H592.5ZM570 245H506V248H570V245ZM437 245H373V248H437V245ZM347.5 270.5V327H350.5V270.5H347.5ZM373 245C358.917 245 347.5 256.417 347.5 270.5H350.5C350.5 258.074 360.574 248 373 248V245ZM592.5 222.5C592.5 234.926 582.426 245 570 245V248C584.083 248 595.5 236.583 595.5 222.5H592.5Z" fill="#B3B3B3"/>
<path d="M452.874 251.635C451.964 251.635 451.169 251.46 450.489 251.11C449.819 250.76 449.294 250.24 448.914 249.55C448.544 248.86 448.359 248.03 448.359 247.06C448.359 246.16 448.479 245.33 448.719 244.57C448.969 243.81 449.329 243.145 449.799 242.575C450.269 242.005 450.839 241.565 451.509 241.255C452.179 240.945 452.944 240.79 453.804 240.79C454.724 240.79 455.519 240.965 456.189 241.315C456.869 241.665 457.394 242.185 457.764 242.875C458.134 243.555 458.319 244.38 458.319 245.35C458.319 246.26 458.194 247.095 457.944 247.855C457.704 248.615 457.349 249.28 456.879 249.85C456.409 250.42 455.839 250.86 455.169 251.17C454.499 251.48 453.734 251.635 452.874 251.635ZM452.904 250.285C453.724 250.285 454.414 250.075 454.974 249.655C455.534 249.225 455.959 248.64 456.249 247.9C456.539 247.16 456.684 246.32 456.684 245.38C456.684 244.28 456.424 243.465 455.904 242.935C455.394 242.405 454.679 242.14 453.759 242.14C452.949 242.14 452.264 242.35 451.704 242.77C451.144 243.19 450.719 243.77 450.429 244.51C450.139 245.25 449.994 246.09 449.994 247.03C449.994 248.14 450.254 248.96 450.774 249.49C451.294 250.02 452.004 250.285 452.904 250.285ZM462.816 251.605C462.606 251.605 462.436 251.545 462.306 251.425C462.186 251.295 462.101 251.11 462.051 250.87L460.296 241.75C460.236 241.46 460.271 241.235 460.401 241.075C460.541 240.905 460.746 240.82 461.016 240.82C461.216 240.82 461.376 240.88 461.496 241C461.626 241.11 461.711 241.29 461.751 241.54L463.311 250.06H462.741L467.136 241.405C467.246 241.205 467.366 241.06 467.496 240.97C467.636 240.87 467.806 240.82 468.006 240.82C468.186 240.82 468.331 240.88 468.441 241C468.561 241.12 468.646 241.31 468.696 241.57L470.256 250.06H469.761L474.126 241.39C474.216 241.19 474.321 241.045 474.441 240.955C474.571 240.865 474.736 240.82 474.936 240.82C475.236 240.82 475.436 240.92 475.536 241.12C475.646 241.31 475.631 241.545 475.491 241.825L470.796 251.02C470.696 251.22 470.571 251.37 470.421 251.47C470.281 251.56 470.101 251.605 469.881 251.605C469.661 251.605 469.486 251.545 469.356 251.425C469.236 251.295 469.151 251.11 469.101 250.87L467.586 242.815H467.916L463.731 251.02C463.631 251.22 463.511 251.37 463.371 251.47C463.231 251.56 463.046 251.605 462.816 251.605ZM476.652 251.605C476.432 251.605 476.262 251.53 476.142 251.38C476.032 251.23 475.997 251.02 476.037 250.75L477.507 241.48C477.547 241.25 477.632 241.085 477.762 240.985C477.892 240.875 478.047 240.82 478.227 240.82C478.427 240.82 478.577 240.86 478.677 240.94C478.787 241.01 478.892 241.13 478.992 241.3L483.792 249.55H483.462L484.722 241.525C484.762 241.285 484.852 241.11 484.992 241C485.132 240.88 485.322 240.82 485.562 240.82C485.782 240.82 485.942 240.895 486.042 241.045C486.142 241.195 486.172 241.4 486.132 241.66L484.662 250.93C484.632 251.16 484.562 251.33 484.452 251.44C484.342 251.55 484.192 251.605 484.002 251.605C483.802 251.605 483.642 251.565 483.522 251.485C483.402 251.405 483.287 251.275 483.177 251.095L478.377 242.875H478.707L477.447 250.9C477.417 251.14 477.337 251.32 477.207 251.44C477.087 251.55 476.902 251.605 476.652 251.605ZM490.89 251.635C490.45 251.635 490.015 251.605 489.585 251.545C489.155 251.485 488.74 251.385 488.34 251.245C487.94 251.095 487.57 250.905 487.23 250.675C487.08 250.585 486.975 250.47 486.915 250.33C486.865 250.19 486.855 250.055 486.885 249.925C486.915 249.785 486.975 249.665 487.065 249.565C487.155 249.465 487.27 249.405 487.41 249.385C487.56 249.365 487.72 249.405 487.89 249.505C488.37 249.805 488.87 250.015 489.39 250.135C489.92 250.255 490.465 250.315 491.025 250.315C491.775 250.315 492.375 250.165 492.825 249.865C493.285 249.555 493.515 249.14 493.515 248.62C493.515 248.25 493.38 247.935 493.11 247.675C492.84 247.415 492.375 247.215 491.715 247.075L490.125 246.685C489.415 246.515 488.845 246.22 488.415 245.8C487.995 245.37 487.785 244.78 487.785 244.03C487.785 243.53 487.89 243.08 488.1 242.68C488.31 242.28 488.605 241.94 488.985 241.66C489.365 241.37 489.8 241.155 490.29 241.015C490.78 240.865 491.3 240.79 491.85 240.79C492.41 240.79 492.99 240.87 493.59 241.03C494.2 241.18 494.74 241.435 495.21 241.795C495.35 241.895 495.44 242.015 495.48 242.155C495.53 242.295 495.54 242.435 495.51 242.575C495.48 242.705 495.42 242.815 495.33 242.905C495.24 242.985 495.12 243.03 494.97 243.04C494.83 243.05 494.66 242.995 494.46 242.875C494.09 242.615 493.67 242.425 493.2 242.305C492.74 242.175 492.28 242.11 491.82 242.11C491.34 242.11 490.91 242.185 490.53 242.335C490.16 242.485 489.865 242.695 489.645 242.965C489.435 243.225 489.33 243.54 489.33 243.91C489.33 244.36 489.45 244.695 489.69 244.915C489.93 245.135 490.285 245.305 490.755 245.425L492.345 245.815C493.265 246.025 493.945 246.355 494.385 246.805C494.835 247.255 495.06 247.8 495.06 248.44C495.06 248.97 494.95 249.435 494.73 249.835C494.51 250.235 494.205 250.57 493.815 250.84C493.435 251.1 492.995 251.3 492.495 251.44C491.995 251.57 491.46 251.635 490.89 251.635Z" fill="black" fill-opacity="0.8"/>
<path d="M595.5 166C595.5 165.172 594.828 164.5 594 164.5C593.172 164.5 592.5 165.172 592.5 166H595.5ZM878.439 328.061C879.025 328.646 879.975 328.646 880.561 328.061L890.107 318.515C890.692 317.929 890.692 316.979 890.107 316.393C889.521 315.808 888.571 315.808 887.985 316.393L879.5 324.879L871.015 316.393C870.429 315.808 869.479 315.808 868.893 316.393C868.308 316.979 868.308 317.929 868.893 318.515L878.439 328.061ZM592.5 166V222.5H595.5V166H592.5ZM618 248H702.25V245H618V248ZM771.25 248H855.5V245H771.25V248ZM878 270.5V327H881V270.5H878ZM855.5 248C867.926 248 878 258.074 878 270.5H881C881 256.417 869.583 245 855.5 245V248ZM592.5 222.5C592.5 236.583 603.917 248 618 248V245C605.574 245 595.5 234.926 595.5 222.5H592.5Z" fill="#B3B3B3"/>
<path d="M718.124 251.635C717.214 251.635 716.419 251.46 715.739 251.11C715.069 250.76 714.544 250.24 714.164 249.55C713.794 248.86 713.609 248.03 713.609 247.06C713.609 246.16 713.729 245.33 713.969 244.57C714.219 243.81 714.579 243.145 715.049 242.575C715.519 242.005 716.089 241.565 716.759 241.255C717.429 240.945 718.194 240.79 719.054 240.79C719.974 240.79 720.769 240.965 721.439 241.315C722.119 241.665 722.644 242.185 723.014 242.875C723.384 243.555 723.569 244.38 723.569 245.35C723.569 246.26 723.444 247.095 723.194 247.855C722.954 248.615 722.599 249.28 722.129 249.85C721.659 250.42 721.089 250.86 720.419 251.17C719.749 251.48 718.984 251.635 718.124 251.635ZM718.154 250.285C718.974 250.285 719.664 250.075 720.224 249.655C720.784 249.225 721.209 248.64 721.499 247.9C721.789 247.16 721.934 246.32 721.934 245.38C721.934 244.28 721.674 243.465 721.154 242.935C720.644 242.405 719.929 242.14 719.009 242.14C718.199 242.14 717.514 242.35 716.954 242.77C716.394 243.19 715.969 243.77 715.679 244.51C715.389 245.25 715.244 246.09 715.244 247.03C715.244 248.14 715.504 248.96 716.024 249.49C716.544 250.02 717.254 250.285 718.154 250.285ZM728.066 251.605C727.856 251.605 727.686 251.545 727.556 251.425C727.436 251.295 727.351 251.11 727.301 250.87L725.546 241.75C725.486 241.46 725.521 241.235 725.651 241.075C725.791 240.905 725.996 240.82 726.266 240.82C726.466 240.82 726.626 240.88 726.746 241C726.876 241.11 726.961 241.29 727.001 241.54L728.561 250.06H727.991L732.386 241.405C732.496 241.205 732.616 241.06 732.746 240.97C732.886 240.87 733.056 240.82 733.256 240.82C733.436 240.82 733.581 240.88 733.691 241C733.811 241.12 733.896 241.31 733.946 241.57L735.506 250.06H735.011L739.376 241.39C739.466 241.19 739.571 241.045 739.691 240.955C739.821 240.865 739.986 240.82 740.186 240.82C740.486 240.82 740.686 240.92 740.786 241.12C740.896 241.31 740.881 241.545 740.741 241.825L736.046 251.02C735.946 251.22 735.821 251.37 735.671 251.47C735.531 251.56 735.351 251.605 735.131 251.605C734.911 251.605 734.736 251.545 734.606 251.425C734.486 251.295 734.401 251.11 734.351 250.87L732.836 242.815H733.166L728.981 251.02C728.881 251.22 728.761 251.37 728.621 251.47C728.481 251.56 728.296 251.605 728.066 251.605ZM741.902 251.605C741.682 251.605 741.512 251.53 741.392 251.38C741.282 251.23 741.247 251.02 741.287 250.75L742.757 241.48C742.797 241.25 742.882 241.085 743.012 240.985C743.142 240.875 743.297 240.82 743.477 240.82C743.677 240.82 743.827 240.86 743.927 240.94C744.037 241.01 744.142 241.13 744.242 241.3L749.042 249.55H748.712L749.972 241.525C750.012 241.285 750.102 241.11 750.242 241C750.382 240.88 750.572 240.82 750.812 240.82C751.032 240.82 751.192 240.895 751.292 241.045C751.392 241.195 751.422 241.4 751.382 241.66L749.912 250.93C749.882 251.16 749.812 251.33 749.702 251.44C749.592 251.55 749.442 251.605 749.252 251.605C749.052 251.605 748.892 251.565 748.772 251.485C748.652 251.405 748.537 251.275 748.427 251.095L743.627 242.875H743.957L742.697 250.9C742.667 251.14 742.587 251.32 742.457 251.44C742.337 251.55 742.152 251.605 741.902 251.605ZM756.14 251.635C755.7 251.635 755.265 251.605 754.835 251.545C754.405 251.485 753.99 251.385 753.59 251.245C753.19 251.095 752.82 250.905 752.48 250.675C752.33 250.585 752.225 250.47 752.165 250.33C752.115 250.19 752.105 250.055 752.135 249.925C752.165 249.785 752.225 249.665 752.315 249.565C752.405 249.465 752.52 249.405 752.66 249.385C752.81 249.365 752.97 249.405 753.14 249.505C753.62 249.805 754.12 250.015 754.64 250.135C755.17 250.255 755.715 250.315 756.275 250.315C757.025 250.315 757.625 250.165 758.075 249.865C758.535 249.555 758.765 249.14 758.765 248.62C758.765 248.25 758.63 247.935 758.36 247.675C758.09 247.415 757.625 247.215 756.965 247.075L755.375 246.685C754.665 246.515 754.095 246.22 753.665 245.8C753.245 245.37 753.035 244.78 753.035 244.03C753.035 243.53 753.14 243.08 753.35 242.68C753.56 242.28 753.855 241.94 754.235 241.66C754.615 241.37 755.05 241.155 755.54 241.015C756.03 240.865 756.55 240.79 757.1 240.79C757.66 240.79 758.24 240.87 758.84 241.03C759.45 241.18 759.99 241.435 760.46 241.795C760.6 241.895 760.69 242.015 760.73 242.155C760.78 242.295 760.79 242.435 760.76 242.575C760.73 242.705 760.67 242.815 760.58 242.905C760.49 242.985 760.37 243.03 760.22 243.04C760.08 243.05 759.91 242.995 759.71 242.875C759.34 242.615 758.92 242.425 758.45 242.305C757.99 242.175 757.53 242.11 757.07 242.11C756.59 242.11 756.16 242.185 755.78 242.335C755.41 242.485 755.115 242.695 754.895 242.965C754.685 243.225 754.58 243.54 754.58 243.91C754.58 244.36 754.7 244.695 754.94 244.915C755.18 245.135 755.535 245.305 756.005 245.425L757.595 245.815C758.515 246.025 759.195 246.355 759.635 246.805C760.085 247.255 760.31 247.8 760.31 248.44C760.31 248.97 760.2 249.435 759.98 249.835C759.76 250.235 759.455 250.57 759.065 250.84C758.685 251.1 758.245 251.3 757.745 251.44C757.245 251.57 756.71 251.635 756.14 251.635Z" fill="black" fill-opacity="0.8"/>
<path d="M52 42.9194H1137V38.9194H52V42.9194ZM1147 52.9194V444.514H1151V52.9194H1147ZM1137 454.514H52V458.514H1137V454.514ZM42 444.514V52.9194H38V444.514H42ZM52 454.514C46.4772 454.514 42 450.037 42 444.514H38C38 452.246 44.268 458.514 52 458.514V454.514ZM1147 444.514C1147 450.037 1142.52 454.514 1137 454.514V458.514C1144.73 458.514 1151 452.246 1151 444.514H1147ZM1137 42.9194C1142.52 42.9194 1147 47.3966 1147 52.9194H1151C1151 45.1874 1144.73 38.9194 1137 38.9194V42.9194ZM52 38.9194C44.268 38.9194 38 45.1875 38 52.9194H42C42 47.3966 46.4772 42.9194 52 42.9194V38.9194Z" fill="#0D99FF"/>
<rect x="46" y="46.9194" width="263.231" height="28" rx="8" fill="#0D99FF"/>
<rect x="46.5" y="47.4194" width="262.231" height="27" rx="7.5" stroke="black" stroke-opacity="0.14902"/>
<path d="M67.1193 57.9194H65.5341C65.4403 57.4635 65.2763 57.0629 65.0419 56.7177C64.8118 56.3726 64.5305 56.0828 64.1982 55.8484C63.87 55.6098 63.5057 55.4308 63.1051 55.3115C62.7045 55.1922 62.2869 55.1325 61.8523 55.1325C61.0597 55.1325 60.3416 55.3328 59.6982 55.7334C59.0589 56.1339 58.5497 56.7241 58.1705 57.504C57.7955 58.2838 57.608 59.2405 57.608 60.374C57.608 61.5075 57.7955 62.4642 58.1705 63.244C58.5497 64.0238 59.0589 64.614 59.6982 65.0146C60.3416 65.4152 61.0597 65.6155 61.8523 65.6155C62.2869 65.6155 62.7045 65.5558 63.1051 65.4365C63.5057 65.3172 63.87 65.1403 64.1982 64.9059C64.5305 64.6673 64.8118 64.3754 65.0419 64.0302C65.2763 63.6808 65.4403 63.2802 65.5341 62.8285H67.1193C67 63.4976 66.7827 64.0963 66.4673 64.6247C66.152 65.1531 65.7599 65.6027 65.2912 65.9734C64.8224 66.3399 64.2962 66.619 63.7124 66.8108C63.1328 67.0025 62.5128 67.0984 61.8523 67.0984C60.7358 67.0984 59.7429 66.8257 58.8736 66.2802C58.0043 65.7348 57.3203 64.9592 56.8217 63.9535C56.3232 62.9478 56.0739 61.7547 56.0739 60.374C56.0739 58.9933 56.3232 57.8001 56.8217 56.7944C57.3203 55.7888 58.0043 55.0132 58.8736 54.4677C59.7429 53.9223 60.7358 53.6495 61.8523 53.6495C62.5128 53.6495 63.1328 53.7454 63.7124 53.9372C64.2962 54.129 64.8224 54.4102 65.2912 54.7809C65.7599 55.1474 66.152 55.5949 66.4673 56.1233C66.7827 56.6474 67 57.2461 67.1193 57.9194ZM69.6809 66.9194V53.8285H77.5815V55.2348H71.2662V59.6581H77.1724V61.0643H71.2662V65.5132H77.6838V66.9194H69.6809ZM90.8194 53.8285V66.9194H89.2853L82.1518 56.641H82.024V66.9194H80.4387V53.8285H81.9728L89.1319 64.1325H89.2598V53.8285H90.8194ZM93.2756 55.2348V53.8285H103.094V55.2348H98.9773V66.9194H97.392V55.2348H93.2756ZM105.54 66.9194V53.8285H109.964C110.986 53.8285 111.826 54.0032 112.482 54.3527C113.138 54.6978 113.624 55.173 113.939 55.7781C114.255 56.3832 114.412 57.0714 114.412 57.8427C114.412 58.614 114.255 59.298 113.939 59.8946C113.624 60.4912 113.14 60.9599 112.488 61.3008C111.836 61.6375 111.003 61.8058 109.989 61.8058H106.41V60.374H109.938C110.637 60.374 111.199 60.2717 111.626 60.0672C112.056 59.8626 112.367 59.5728 112.559 59.1978C112.755 58.8186 112.853 58.3669 112.853 57.8427C112.853 57.3186 112.755 56.8605 112.559 56.4684C112.363 56.0764 112.05 55.7738 111.619 55.5608C111.189 55.3434 110.62 55.2348 109.912 55.2348H107.126V66.9194H105.54ZM111.702 61.0388L114.924 66.9194H113.083L109.912 61.0388H111.702ZM117.591 66.9194H115.929L120.736 53.8285H122.372L127.179 66.9194H125.517L121.605 55.8995H121.503L117.591 66.9194ZM118.205 61.8058H124.903V63.212H118.205V61.8058ZM129.218 66.9194V53.8285H130.803V65.5132H136.888V66.9194H129.218ZM144.406 66.9194V53.8285H148.982C149.894 53.8285 150.646 53.9862 151.239 54.3015C151.831 54.6126 152.272 55.0324 152.562 55.5608C152.852 56.0849 152.996 56.6666 152.996 57.3058C152.996 57.8683 152.896 58.3328 152.696 58.6993C152.5 59.0657 152.24 59.3555 151.916 59.5686C151.597 59.7816 151.249 59.9393 150.874 60.0416V60.1694C151.275 60.195 151.678 60.3356 152.082 60.5913C152.487 60.847 152.826 61.2135 153.099 61.6907C153.371 62.168 153.508 62.7518 153.508 63.4422C153.508 64.0984 153.359 64.6886 153.06 65.2128C152.762 65.7369 152.291 66.1524 151.648 66.4592C151.004 66.766 150.167 66.9194 149.136 66.9194H144.406ZM145.991 65.5132H149.136C150.171 65.5132 150.906 65.3129 151.341 64.9123C151.78 64.5075 151.999 64.0174 151.999 63.4422C151.999 62.999 151.886 62.5899 151.661 62.2149C151.435 61.8356 151.113 61.5331 150.695 61.3072C150.278 61.0771 149.783 60.962 149.212 60.962H145.991V65.5132ZM145.991 59.5814H148.931C149.408 59.5814 149.839 59.4876 150.222 59.3001C150.61 59.1126 150.917 58.8484 151.143 58.5075C151.373 58.1666 151.488 57.766 151.488 57.3058C151.488 56.7305 151.288 56.2426 150.887 55.842C150.487 55.4372 149.852 55.2348 148.982 55.2348H145.991V59.5814ZM156.65 66.9194H154.988L159.794 53.8285H161.431L166.238 66.9194H164.576L160.664 55.8995H160.561L156.65 66.9194ZM157.263 61.8058H163.962V63.212H157.263V61.8058ZM178.657 53.8285V66.9194H177.123L169.99 56.641H169.862V66.9194H168.277V53.8285H169.811L176.97 64.1325H177.098V53.8285H178.657ZM181.829 66.9194V53.8285H183.415V60.3228H183.568L189.449 53.8285H191.52L186.023 59.7348L191.52 66.9194H189.602L185.051 60.8342L183.415 62.6751V66.9194H181.829ZM199.171 66.9194H197.509L202.316 53.8285H203.952L208.759 66.9194H207.097L203.185 55.8995H203.083L199.171 66.9194ZM199.785 61.8058H206.483V63.212H199.785V61.8058ZM220.717 57.9194H219.132C219.038 57.4635 218.874 57.0629 218.64 56.7177C218.409 56.3726 218.128 56.0828 217.796 55.8484C217.468 55.6098 217.103 55.4308 216.703 55.3115C216.302 55.1922 215.885 55.1325 215.45 55.1325C214.657 55.1325 213.939 55.3328 213.296 55.7334C212.657 56.1339 212.147 56.7241 211.768 57.504C211.393 58.2838 211.206 59.2405 211.206 60.374C211.206 61.5075 211.393 62.4642 211.768 63.244C212.147 64.0238 212.657 64.614 213.296 65.0146C213.939 65.4152 214.657 65.6155 215.45 65.6155C215.885 65.6155 216.302 65.5558 216.703 65.4365C217.103 65.3172 217.468 65.1403 217.796 64.9059C218.128 64.6673 218.409 64.3754 218.64 64.0302C218.874 63.6808 219.038 63.2802 219.132 62.8285H220.717C220.598 63.4976 220.38 64.0963 220.065 64.6247C219.75 65.1531 219.358 65.6027 218.889 65.9734C218.42 66.3399 217.894 66.619 217.31 66.8108C216.73 67.0025 216.11 67.0984 215.45 67.0984C214.333 67.0984 213.341 66.8257 212.471 66.2802C211.602 65.7348 210.918 64.9592 210.419 63.9535C209.921 62.9478 209.672 61.7547 209.672 60.374C209.672 58.9933 209.921 57.8001 210.419 56.7944C210.918 55.7888 211.602 55.0132 212.471 54.4677C213.341 53.9223 214.333 53.6495 215.45 53.6495C216.11 53.6495 216.73 53.7454 217.31 53.9372C217.894 54.129 218.42 54.4102 218.889 54.7809C219.358 55.1474 219.75 55.5949 220.065 56.1233C220.38 56.6474 220.598 57.2461 220.717 57.9194ZM233.813 57.9194H232.227C232.134 57.4635 231.97 57.0629 231.735 56.7177C231.505 56.3726 231.224 56.0828 230.892 55.8484C230.563 55.6098 230.199 55.4308 229.798 55.3115C229.398 55.1922 228.98 55.1325 228.546 55.1325C227.753 55.1325 227.035 55.3328 226.392 55.7334C225.752 56.1339 225.243 56.7241 224.864 57.504C224.489 58.2838 224.301 59.2405 224.301 60.374C224.301 61.5075 224.489 62.4642 224.864 63.244C225.243 64.0238 225.752 64.614 226.392 65.0146C227.035 65.4152 227.753 65.6155 228.546 65.6155C228.98 65.6155 229.398 65.5558 229.798 65.4365C230.199 65.3172 230.563 65.1403 230.892 64.9059C231.224 64.6673 231.505 64.3754 231.735 64.0302C231.97 63.6808 232.134 63.2802 232.227 62.8285H233.813C233.693 63.4976 233.476 64.0963 233.161 64.6247C232.845 65.1531 232.453 65.6027 231.985 65.9734C231.516 66.3399 230.99 66.619 230.406 66.8108C229.826 67.0025 229.206 67.0984 228.546 67.0984C227.429 67.0984 226.436 66.8257 225.567 66.2802C224.698 65.7348 224.014 64.9592 223.515 63.9535C223.017 62.9478 222.767 61.7547 222.767 60.374C222.767 58.9933 223.017 57.8001 223.515 56.7944C224.014 55.7888 224.698 55.0132 225.567 54.4677C226.436 53.9223 227.429 53.6495 228.546 53.6495C229.206 53.6495 229.826 53.7454 230.406 53.9372C230.99 54.129 231.516 54.4102 231.985 54.7809C232.453 55.1474 232.845 55.5949 233.161 56.1233C233.476 56.6474 233.693 57.2461 233.813 57.9194ZM247.42 60.374C247.42 61.7547 247.17 62.9478 246.672 63.9535C246.173 64.9592 245.489 65.7348 244.62 66.2802C243.751 66.8257 242.758 67.0984 241.641 67.0984C240.525 67.0984 239.532 66.8257 238.663 66.2802C237.793 65.7348 237.109 64.9592 236.611 63.9535C236.112 62.9478 235.863 61.7547 235.863 60.374C235.863 58.9933 236.112 57.8001 236.611 56.7944C237.109 55.7888 237.793 55.0132 238.663 54.4677C239.532 53.9223 240.525 53.6495 241.641 53.6495C242.758 53.6495 243.751 53.9223 244.62 54.4677C245.489 55.0132 246.173 55.7888 246.672 56.7944C247.17 57.8001 247.42 58.9933 247.42 60.374ZM245.886 60.374C245.886 59.2405 245.696 58.2838 245.317 57.504C244.942 56.7241 244.433 56.1339 243.789 55.7334C243.15 55.3328 242.434 55.1325 241.641 55.1325C240.849 55.1325 240.131 55.3328 239.487 55.7334C238.848 56.1339 238.339 56.7241 237.96 57.504C237.585 58.2838 237.397 59.2405 237.397 60.374C237.397 61.5075 237.585 62.4642 237.96 63.244C238.339 64.0238 238.848 64.614 239.487 65.0146C240.131 65.4152 240.849 65.6155 241.641 65.6155C242.434 65.6155 243.15 65.4152 243.789 65.0146C244.433 64.614 244.942 64.0238 245.317 63.244C245.696 62.4642 245.886 61.5075 245.886 60.374ZM258.676 53.8285H260.261V62.4961C260.261 63.391 260.05 64.19 259.629 64.8932C259.211 65.592 258.621 66.1439 257.858 66.5487C257.095 66.9493 256.2 67.1495 255.173 67.1495C254.146 67.1495 253.251 66.9493 252.489 66.5487C251.726 66.1439 251.134 65.592 250.712 64.8932C250.294 64.19 250.085 63.391 250.085 62.4961V53.8285H251.67V62.3683C251.67 63.0075 251.811 63.5764 252.092 64.075C252.374 64.5693 252.774 64.9592 253.294 65.2447C253.818 65.526 254.445 65.6666 255.173 65.6666C255.902 65.6666 256.528 65.526 257.053 65.2447C257.577 64.9592 257.977 64.5693 258.254 64.075C258.536 63.5764 258.676 63.0075 258.676 62.3683V53.8285ZM273.808 53.8285V66.9194H272.274L265.14 56.641H265.012V66.9194H263.427V53.8285H264.961L272.12 64.1325H272.248V53.8285H273.808ZM276.264 55.2348V53.8285H286.082V55.2348H281.966V66.9194H280.38V55.2348H276.264ZM295.688 57.1013C295.611 56.4535 295.3 55.9507 294.754 55.5927C294.209 55.2348 293.54 55.0558 292.747 55.0558C292.168 55.0558 291.661 55.1495 291.226 55.337C290.796 55.5245 290.459 55.7824 290.216 56.1105C289.977 56.4386 289.858 56.8115 289.858 57.2291C289.858 57.5785 289.941 57.879 290.107 58.1304C290.278 58.3775 290.495 58.5842 290.759 58.7504C291.024 58.9123 291.301 59.0466 291.59 59.1531C291.88 59.2554 292.146 59.3385 292.389 59.4024L293.719 59.7603C294.06 59.8498 294.439 59.9734 294.857 60.1311C295.279 60.2888 295.681 60.504 296.065 60.7767C296.453 61.0451 296.772 61.3903 297.024 61.8122C297.275 62.2341 297.401 62.7518 297.401 63.3655C297.401 64.0728 297.215 64.712 296.845 65.2831C296.478 65.8541 295.941 66.3079 295.234 66.6446C294.531 66.9812 293.676 67.1495 292.671 67.1495C291.733 67.1495 290.921 66.9983 290.235 66.6957C289.553 66.3932 289.017 65.9713 288.624 65.4301C288.237 64.8889 288.017 64.2603 287.966 63.5444H289.602C289.645 64.0388 289.811 64.4478 290.101 64.7717C290.395 65.0913 290.766 65.3299 291.213 65.4876C291.665 65.641 292.151 65.7177 292.671 65.7177C293.276 65.7177 293.819 65.6197 294.301 65.4237C294.782 65.2234 295.164 64.9464 295.445 64.5927C295.726 64.2348 295.867 63.8172 295.867 63.3399C295.867 62.9052 295.745 62.5515 295.502 62.2788C295.259 62.0061 294.94 61.7845 294.544 61.614C294.147 61.4436 293.719 61.2944 293.259 61.1666L291.648 60.7064C290.625 60.4123 289.816 59.9926 289.219 59.4471C288.622 58.9017 288.324 58.1879 288.324 57.3058C288.324 56.5728 288.522 55.9336 288.919 55.3882C289.319 54.8385 289.856 54.4123 290.529 54.1098C291.207 53.803 291.963 53.6495 292.798 53.6495C293.642 53.6495 294.392 53.8008 295.048 54.1034C295.705 54.4017 296.225 54.8108 296.608 55.3307C296.996 55.8505 297.2 56.4407 297.222 57.1013H295.688Z" fill="white"/>
</svg>
