<svg width="256" height="142" viewBox="0 0 256 142" fill="none" xmlns="http://www.w3.org/2000/svg">
<g clip-path="url(#clip0_1_11)">
<path d="M0 29.0011C0 12.9842 12.15 0 27.1378 0H228.862C243.85 0 256 12.9842 256 29.0011V112.06C256 128.077 243.85 141.061 228.862 141.061H27.1378C12.15 141.061 0 128.077 0 112.06V29.0011Z" fill="#2D53EC"/>
<path d="M44.8 96.3125V44.7894C44.8 43.6747 45.1616 42.7367 45.8848 41.9754C46.608 41.2141 47.492 40.8335 48.5366 40.8335H64.8893C65.9339 40.8335 66.925 41.2141 67.8625 41.9754C68.8 42.7367 69.4295 43.6475 69.7509 44.7079L81.6036 80.4481L93.4563 44.7079C93.7777 43.6475 94.4071 42.7367 95.3446 41.9754C96.2821 41.2141 97.2732 40.8335 98.3179 40.8335H114.671C115.715 40.8335 116.586 41.2141 117.282 41.9754C118.005 42.7367 118.367 43.6747 118.367 44.7894V96.3125C118.367 97.4273 117.992 98.3653 117.242 99.1266C116.519 99.8606 115.635 100.228 114.59 100.228H107.358C106.313 100.228 105.416 99.8606 104.666 99.1266C103.943 98.3653 103.581 97.4273 103.581 96.3125V55.8823L89.3982 96.5572C89.0232 97.5632 88.367 98.4333 87.4295 99.1673C86.492 99.8742 85.5009 100.228 84.4563 100.228H78.7107C77.6661 100.228 76.675 99.8742 75.7375 99.1673C74.8268 98.4333 74.1705 97.5632 73.7688 96.5572L59.6259 55.8823V96.3125C59.6259 97.4273 59.2509 98.3653 58.5009 99.1266C57.7777 99.8606 56.8938 100.228 55.8491 100.228H48.617C47.5723 100.228 46.675 99.8606 45.925 99.1266C45.175 98.3653 44.8 97.4273 44.8 96.3125Z" fill="white"/>
<path d="M121.515 55.0667C121.194 54.6045 121.033 54.0607 121.033 53.4354C121.033 52.81 121.475 52.1167 122.359 51.3554L132.163 42.7911C133.582 41.5132 135.551 40.8607 138.069 40.8335H143.975C145.073 40.8335 145.997 41.2141 146.747 41.9754C147.497 42.7367 147.872 43.6475 147.872 44.7079V96.3941C147.872 97.4545 147.484 98.3653 146.707 99.1266C145.93 99.8606 145.02 100.228 143.975 100.228H136.502C135.457 100.228 134.56 99.8742 133.81 99.1673C133.087 98.4333 132.725 97.536 132.725 96.4757V56.127L128.104 59.5528C127.569 59.9334 126.953 60.0558 126.256 59.9198C125.56 59.7839 124.997 59.4712 124.569 58.9818L121.515 55.0667Z" fill="white"/>
<path d="M151.995 70.401C151.995 64.9361 152.731 60.2461 154.204 56.3309C155.704 52.4158 157.821 49.3571 160.553 47.1548C165.749 42.9406 172.526 40.8335 180.883 40.8335H183.226C191.583 40.8335 198.36 42.9406 203.556 47.1548C209.262 51.7769 212.114 59.5256 212.114 70.401C212.114 81.3308 209.262 89.3523 203.556 93.9471C198.36 98.1342 191.583 100.228 183.226 100.228H180.883C172.526 100.228 165.749 98.1342 160.553 93.9471C154.847 89.3523 151.995 81.3308 151.995 70.401ZM182.289 52.375C172.191 52.375 167.142 58.3973 167.142 70.4418C167.142 82.4591 172.191 88.727 182.289 88.727C192.388 88.727 196.967 82.4591 196.967 70.4418C196.967 58.3973 192.388 52.375 182.289 52.375Z" fill="white"/>
</g>
<defs>
<clipPath id="clip0_1_11">
<rect width="256" height="141.061" fill="white"/>
</clipPath>
</defs>
</svg>
