<svg xmlns="http://www.w3.org/2000/svg" xmlns:xlink="http://www.w3.org/1999/xlink" xmlns:lucid="lucid" width="1742" height="864"><g transform="translate(422 -338)" lucid:page-tab-id="i0jgjaf~arCE"><path d="M-500 0h2000v1500H-500z" fill="#fff"/><path d="M-400 368a8 8 0 0 1 8-8h1674.33a8 8 0 0 1 8 8v444a8 8 0 0 1-8 8H-392a8 8 0 0 1-8-8z" stroke="#6db1ff" stroke-width="4" fill="#cfe4ff"/><path d="M320 468a8 8 0 0 1 8-8h264a8 8 0 0 1 8 8v64a8 8 0 0 1-8 8H328a8 8 0 0 1-8-8z" stroke="#3a414a" stroke-width="4" fill="#f2f3f5"/><use xlink:href="#a" transform="matrix(1,0,0,1,320,460) translate(23.611111111111114 45.27777777777778)"/><use xlink:href="#b" transform="matrix(1,0,0,1,320,460) translate(76.57407407407408 45.27777777777778)"/><use xlink:href="#c" transform="matrix(1,0,0,1,320,460) translate(146.82098765432096 45.27777777777778)"/><path d="M690.33 968a8 8 0 0 1 8-8h584a8 8 0 0 1 8 8v204a8 8 0 0 1-8 8h-584a8 8 0 0 1-8-8z" stroke="#fe7070" stroke-width="4" fill="#ffd9d9"/><path d="M856.33 1068a8 8 0 0 1 8-8H1115a8 8 0 0 1 8 8v64a8 8 0 0 1-8 8H864.33a8 8 0 0 1-8-8z" stroke="#3a414a" stroke-width="4" fill="#f2f3f5"/><use xlink:href="#d" transform="matrix(1,0,0,1,856.3333333333335,1060) translate(39.05555555555554 45.27777777777778)"/><use xlink:href="#e" transform="matrix(1,0,0,1,856.3333333333335,1060) translate(118.37654320987653 45.27777777777778)"/><path d="M-400 968a8 8 0 0 1 8-8h584a8 8 0 0 1 8 8v204a8 8 0 0 1-8 8h-584a8 8 0 0 1-8-8z" stroke="#9391ff" stroke-width="4" fill="#dedeff"/><path d="M-203.33 1068a8 8 0 0 1 8-8H55.33a8 8 0 0 1 8 8v64a8 8 0 0 1-8 8h-250.66a8 8 0 0 1-8-8z" stroke="#3a414a" stroke-width="4" fill="#f2f3f5"/><use xlink:href="#f" transform="matrix(1,0,0,1,-203.33333333333334,1060) translate(34.05555555555556 45.27777777777778)"/><use xlink:href="#e" transform="matrix(1,0,0,1,-203.33333333333334,1060) translate(123.37654320987653 45.27777777777778)"/><path d="M-310 668a8 8 0 0 1 8-8h464a8 8 0 0 1 8 8v64a8 8 0 0 1-8 8h-464a8 8 0 0 1-8-8z" stroke="#3a414a" stroke-width="4" fill="#f2f3f5"/><use xlink:href="#g" transform="matrix(1,0,0,1,-310,660) translate(28.08641975308643 45.27777777777778)"/><use xlink:href="#h" transform="matrix(1,0,0,1,-310,660) translate(156.17283950617283 45.27777777777778)"/><use xlink:href="#i" transform="matrix(1,0,0,1,-310,660) translate(222.77777777777777 45.27777777777778)"/><use xlink:href="#c" transform="matrix(1,0,0,1,-310,660) translate(342.34567901234567 45.27777777777778)"/><path d="M750 668a8 8 0 0 1 8-8h464a8 8 0 0 1 8 8v64a8 8 0 0 1-8 8H758a8 8 0 0 1-8-8z" stroke="#3a414a" stroke-width="4" fill="#f2f3f5"/><use xlink:href="#j" transform="matrix(1,0,0,1,750,660) translate(61.327160493827165 45.27777777777778)"/><use xlink:href="#h" transform="matrix(1,0,0,1,750,660) translate(122.9320987654321 45.27777777777778)"/><use xlink:href="#i" transform="matrix(1,0,0,1,750,660) translate(189.53703703703704 45.27777777777778)"/><use xlink:href="#c" transform="matrix(1,0,0,1,750,660) translate(309.10493827160496 45.27777777777778)"/><path d="M314.36 500H-50a20 20 0 0 0-20 20v136" stroke="#979ea8" stroke-width="4" fill="none"/><path d="M296.68 490L314 500l-17.32 10" stroke="#979ea8" stroke-width="4" fill="none"/><path d="M-68.03 658h-3.94v-2.05h3.94z" stroke="#979ea8" stroke-width=".05" fill="#979ea8"/><use xlink:href="#k" transform="matrix(1,0,0,1,70.76857035902677,466.6666666666667) translate(0 19.555555555555557)"/><use xlink:href="#l" transform="matrix(1,0,0,1,70.76857035902677,466.6666666666667) translate(40.67283950617285 19.555555555555557)"/><use xlink:href="#m" transform="matrix(1,0,0,1,70.76857035902677,466.6666666666667) translate(70.4135802469136 19.555555555555557)"/><path d="M604 500h366a20 20 0 0 1 20 20v134.36" stroke="#979ea8" stroke-width="4" fill="none"/><path d="M604.05 501.98H602v-3.96h2.05z" stroke="#979ea8" stroke-width=".05" fill="#979ea8"/><path d="M1000 636.68L990 654l-10-17.32" stroke="#979ea8" stroke-width="4" fill="none"/><use xlink:href="#k" transform="matrix(1,0,0,1,714.144535242239,466.6666666666667) translate(0 19.555555555555557)"/><use xlink:href="#l" transform="matrix(1,0,0,1,714.144535242239,466.6666666666667) translate(40.67283950617285 19.555555555555557)"/><use xlink:href="#n" transform="matrix(1,0,0,1,714.144535242239,466.6666666666667) translate(70.4135802469136 19.555555555555557)"/><path d="M-68.03 1056h-3.94V914.67h3.94zm0-170.67h-3.94v-139.7h3.94z" stroke="#979ea8" stroke-width=".05" fill="#979ea8"/><path d="M-58.3 762.33l-3.4 1.98-8.3-14.35-8.3 14.36-3.4-1.97 11.7-20.28z" stroke="#979ea8" stroke-width=".05" fill="#979ea8"/><path d="M-68.03 1058h-3.94v-2.05h3.94z" fill="#979ea8"/><path stroke="#979ea8" stroke-width=".05" fill="#979ea8"/><use xlink:href="#o" transform="matrix(1,0,0,1,-199.6574074074074,885.3333333333334) translate(0 19.555555555555557)"/><use xlink:href="#p" transform="matrix(1,0,0,1,-199.6574074074074,885.3333333333334) translate(84.46913580246915 19.555555555555557)"/><use xlink:href="#q" transform="matrix(1,0,0,1,-199.6574074074074,885.3333333333334) translate(125.141975308642 19.555555555555557)"/><use xlink:href="#r" transform="matrix(1,0,0,1,-199.6574074074074,885.3333333333334) translate(154.88271604938274 19.555555555555557)"/><path d="M991.64 1054.36h-3.95v-139.7h3.94zm.34-169.03H988V744H992z" stroke="#979ea8" stroke-width=".05" fill="#979ea8"/><path d="M991.98 744.05H988V742H992z" fill="#979ea8"/><path stroke="#979ea8" stroke-width=".05" fill="#979ea8"/><path d="M1001.38 1037.67l-11.7 20.28-11.72-20.28 3.42-1.98 8.3 14.35 8.28-14.36z" stroke="#979ea8" stroke-width=".05" fill="#979ea8"/><g><use xlink:href="#s" transform="matrix(1,0,0,1,892.9722222222224,885.3333333333334) translate(0 19.555555555555557)"/><use xlink:href="#p" transform="matrix(1,0,0,1,892.9722222222224,885.3333333333334) translate(60.975308641975325 19.555555555555557)"/><use xlink:href="#q" transform="matrix(1,0,0,1,892.9722222222224,885.3333333333334) translate(101.64814814814818 19.555555555555557)"/><use xlink:href="#t" transform="matrix(1,0,0,1,892.9722222222224,885.3333333333334) translate(131.3888888888889 19.555555555555557)"/></g><path d="M400 390a10 10 0 0 1 10-10h100a10 10 0 0 1 10 10v20a10 10 0 0 1-10 10H410a10 10 0 0 1-10-10z" stroke="#6db1ff" stroke-width="4" fill="#6db1ff"/><path d="M390 389a6 6 0 0 1 6-6h128a6 6 0 0 1 6 6v28a6 6 0 0 1-6 6H396a6 6 0 0 1-6-6z" stroke="#000" stroke-opacity="0" stroke-width="4" fill="#fff" fill-opacity="0"/><g><use xlink:href="#u" transform="matrix(1,0,0,1,395,388) translate(23.117283950617285 19.65277777777778)"/><use xlink:href="#v" transform="matrix(1,0,0,1,395,388) translate(76.08024691358025 19.65277777777778)"/></g><path d="M1100 990.33a10 10 0 0 1 10-10h160a10 10 0 0 1 10 10v20a10 10 0 0 1-10 10h-160a10 10 0 0 1-10-10z" stroke="#fe7070" stroke-width="4" fill="#fe7070"/><path d="M1100.67 977.67a6 6 0 0 1 6-6h168a6 6 0 0 1 6 6V1029a6 6 0 0 1-6 6h-168a6 6 0 0 1-6-6z" stroke="#000" stroke-opacity="0" stroke-width="4" fill="#fff" fill-opacity="0"/><g><use xlink:href="#w" transform="matrix(1,0,0,1,1105.6666666666665,976.6666666666667) translate(38.7962962962963 31.27777777777778)"/><use xlink:href="#x" transform="matrix(1,0,0,1,1105.6666666666665,976.6666666666667) translate(100.40123456790124 31.27777777777778)"/></g><path d="M-383.33 981.67a10 10 0 0 1 10-10h160a10 10 0 0 1 10 10v20a10 10 0 0 1-10 10h-160a10 10 0 0 1-10-10z" stroke="#9391ff" stroke-width="4" fill="#9391ff"/><path d="M-383.33 968a6 6 0 0 1 6-6h168a6 6 0 0 1 6 6v51.33a6 6 0 0 1-6 6h-168a6 6 0 0 1-6-6z" stroke="#000" stroke-opacity="0" stroke-width="4" fill="#fff" fill-opacity="0"/><g><use xlink:href="#y" transform="matrix(1,0,0,1,-378.33333333333337,967) translate(5.555555555555571 31.27777777777778)"/><use xlink:href="#x" transform="matrix(1,0,0,1,-378.33333333333337,967) translate(133.64197530864197 31.27777777777778)"/></g><path d="M68.33 1100h12.2m24.4 0h24.38m24.4 0h24.4m24.4 0h24.38m24.4 0h24.4m24.38 0h24.4m24.38 0h24.4m24.4 0H422m24.4 0h24.38m24.4 0h24.4m24.38 0h24.4m24.38 0h24.4m24.4 0h24.38m24.4 0h24.38m24.4 0h24.4m24.38 0h24.4m24.38 0h12.2" stroke="#1071e5" stroke-width="6" fill="none"/><path d="M68.4 1102.97h-3.07v-5.94h3.08z" stroke="#1071e5" stroke-width=".05" fill="#1071e5"/><path d="M831 1090l17.33 10-17.32 10" stroke="#1071e5" stroke-width="6" fill="none"/><g><use xlink:href="#z" transform="matrix(1,0,0,1,305.9012345679012,1066.6666666666665) translate(0 19.555555555555557)"/><use xlink:href="#A" transform="matrix(1,0,0,1,305.9012345679012,1066.6666666666665) translate(103.0061728395062 19.555555555555557)"/><use xlink:href="#q" transform="matrix(1,0,0,1,305.9012345679012,1066.6666666666665) translate(168.1234567901235 19.555555555555557)"/><use xlink:href="#t" transform="matrix(1,0,0,1,305.9012345679012,1066.6666666666665) translate(197.86419753086423 19.555555555555557)"/></g><defs><path fill="#3a414a" d="M62-99C39-31 123 0 170-40s38-139 58-208h34C234-144 253 4 115 4 49 4 18-43 31-112l26-136h34" id="B"/><path fill="#3a414a" d="M194-120c59 52 2 134-86 124-53-6-90-18-98-63l31-7c8 30 29 43 70 43 46 0 84-17 71-62-32-43-135-20-137-98-3-89 178-90 191-16l-30 9c-8-48-127-53-127 5 0 53 81 35 115 65" id="C"/><path fill="#3a414a" d="M248-139C247-14 144 9 11 0l48-248c105-6 190 8 189 109zm-34 0c1-70-52-87-126-82L50-27c98 7 163-21 164-112" id="D"/><g id="a"><use transform="matrix(0.06172839506172839,0,0,0.06172839506172839,0,0)" xlink:href="#B"/><use transform="matrix(0.06172839506172839,0,0,0.06172839506172839,15.987654320987653,0)" xlink:href="#C"/><use transform="matrix(0.06172839506172839,0,0,0.06172839506172839,30.80246913580247,0)" xlink:href="#D"/></g><path fill="#3a414a" d="M249-183c0 48-29 72-75 77L221 0h-36l-43-103H65L45 0H11l48-248c83 2 190-17 190 65zm-34 3c0-55-74-39-127-41l-18 92c63-1 145 13 145-51" id="E"/><path fill="#3a414a" d="M20-101c0-91 52-143 145-150 126-9 127 168 53 223-23 17-55 32-93 32C57 4 20-33 20-101zm216-33c5-57-18-91-73-90-77 1-110 51-110 125 0 49 23 75 73 75 72-1 104-45 110-110" id="F"/><path fill="#3a414a" d="M151-220L108 0H75l42-220H32l6-28h203l-5 28h-85" id="G"/><g id="b"><use transform="matrix(0.06172839506172839,0,0,0.06172839506172839,0,0)" xlink:href="#E"/><use transform="matrix(0.06172839506172839,0,0,0.06172839506172839,15.987654320987653,0)" xlink:href="#F"/><use transform="matrix(0.06172839506172839,0,0,0.06172839506172839,33.2716049382716,0)" xlink:href="#F"/><use transform="matrix(0.06172839506172839,0,0,0.06172839506172839,50.55555555555555,0)" xlink:href="#G"/></g><path fill="#3a414a" d="M187 0l-14-72H61L19 0h-37l149-248h38L221 0h-34zm-19-99l-22-123L76-99h92" id="H"/><path fill="#3a414a" d="M125-24c46 0 70-25 89-51l25 16C214-24 183 4 123 4 8 4-5-146 60-208c32-50 158-61 191-5 5 7 9 14 11 22l-32 10c-9-28-33-43-69-43-74 0-108 51-108 125 0 46 24 75 72 75" id="I"/><path fill="#3a414a" d="M173 0L80-213 41 0H11l48-248h37l94 214 40-214h30L212 0h-39" id="J"/><g id="c"><use transform="matrix(0.06172839506172839,0,0,0.06172839506172839,0,0)" xlink:href="#H"/><use transform="matrix(0.06172839506172839,0,0,0.06172839506172839,14.814814814814813,0)" xlink:href="#I"/><use transform="matrix(0.06172839506172839,0,0,0.06172839506172839,30.80246913580247,0)" xlink:href="#I"/><use transform="matrix(0.06172839506172839,0,0,0.06172839506172839,46.79012345679012,0)" xlink:href="#F"/><use transform="matrix(0.06172839506172839,0,0,0.06172839506172839,64.07407407407408,0)" xlink:href="#B"/><use transform="matrix(0.06172839506172839,0,0,0.06172839506172839,80.06172839506173,0)" xlink:href="#J"/><use transform="matrix(0.06172839506172839,0,0,0.06172839506172839,96.0493827160494,0)" xlink:href="#G"/></g><path fill="#3a414a" d="M179 0l23-115H67L45 0H11l48-248h34L72-143h135l21-105h32L212 0h-33" id="K"/><path fill="#3a414a" d="M14 0l48-248h34L48 0H14" id="L"/><path fill="#3a414a" d="M60-170H36l11-78h32" id="M"/><g id="d"><use transform="matrix(0.06172839506172839,0,0,0.06172839506172839,0,0)" xlink:href="#I"/><use transform="matrix(0.06172839506172839,0,0,0.06172839506172839,15.987654320987653,0)" xlink:href="#K"/><use transform="matrix(0.06172839506172839,0,0,0.06172839506172839,31.975308641975307,0)" xlink:href="#E"/><use transform="matrix(0.06172839506172839,0,0,0.06172839506172839,47.96296296296296,0)" xlink:href="#L"/><use transform="matrix(0.06172839506172839,0,0,0.06172839506172839,54.135802469135804,0)" xlink:href="#C"/><use transform="matrix(0.06172839506172839,0,0,0.06172839506172839,68.95061728395062,0)" xlink:href="#M"/></g><g id="e"><use transform="matrix(0.06172839506172839,0,0,0.06172839506172839,0,0)" xlink:href="#H"/><use transform="matrix(0.06172839506172839,0,0,0.06172839506172839,14.814814814814813,0)" xlink:href="#I"/><use transform="matrix(0.06172839506172839,0,0,0.06172839506172839,30.80246913580247,0)" xlink:href="#I"/><use transform="matrix(0.06172839506172839,0,0,0.06172839506172839,46.79012345679012,0)" xlink:href="#F"/><use transform="matrix(0.06172839506172839,0,0,0.06172839506172839,64.07407407407408,0)" xlink:href="#B"/><use transform="matrix(0.06172839506172839,0,0,0.06172839506172839,80.06172839506173,0)" xlink:href="#J"/><use transform="matrix(0.06172839506172839,0,0,0.06172839506172839,96.0493827160494,0)" xlink:href="#G"/></g><path fill="#3a414a" d="M11 0l48-248h34L50-27h125l-5 27H11" id="N"/><path fill="#3a414a" d="M11 0l48-248h184l-5 28H87l-15 79h140l-5 27H67L50-27h158l-5 27H11" id="O"/><g id="f"><use transform="matrix(0.06172839506172839,0,0,0.06172839506172839,0,0)" xlink:href="#H"/><use transform="matrix(0.06172839506172839,0,0,0.06172839506172839,14.814814814814813,0)" xlink:href="#N"/><use transform="matrix(0.06172839506172839,0,0,0.06172839506172839,27.160493827160494,0)" xlink:href="#L"/><use transform="matrix(0.06172839506172839,0,0,0.06172839506172839,33.333333333333336,0)" xlink:href="#I"/><use transform="matrix(0.06172839506172839,0,0,0.06172839506172839,49.32098765432099,0)" xlink:href="#O"/><use transform="matrix(0.06172839506172839,0,0,0.06172839506172839,64.1358024691358,0)" xlink:href="#M"/><use transform="matrix(0.06172839506172839,0,0,0.06172839506172839,68.33333333333333,0)" xlink:href="#C"/></g><path fill="#3a414a" d="M52-101C46-14 166-7 216-51l9-45h-74l6-28h105l-18 87C217-12 181 4 130 4 60 4 18-31 18-101c0-106 78-167 188-146 30 6 48 27 59 54l-34 9c-10-26-31-41-67-40-75 1-107 50-112 123" id="P"/><g id="g"><use transform="matrix(0.06172839506172839,0,0,0.06172839506172839,0,0)" xlink:href="#G"/><use transform="matrix(0.06172839506172839,0,0,0.06172839506172839,13.518518518518517,0)" xlink:href="#B"/><use transform="matrix(0.06172839506172839,0,0,0.06172839506172839,29.50617283950617,0)" xlink:href="#J"/><use transform="matrix(0.06172839506172839,0,0,0.06172839506172839,45.49382716049382,0)" xlink:href="#P"/><use transform="matrix(0.06172839506172839,0,0,0.06172839506172839,62.77777777777777,0)" xlink:href="#C"/><use transform="matrix(0.06172839506172839,0,0,0.06172839506172839,77.59259259259258,0)" xlink:href="#G"/><use transform="matrix(0.06172839506172839,0,0,0.06172839506172839,91.1111111111111,0)" xlink:href="#O"/><use transform="matrix(0.06172839506172839,0,0,0.06172839506172839,105.92592592592591,0)" xlink:href="#J"/></g><path fill="#3a414a" d="M219-77C219 17 104-2 11 0l48-248c73 2 169-15 169 57 0 38-24 54-60 60 29 5 51 21 51 54zm-26-111c0-44-62-31-105-33l-16 79c55 0 121 9 121-46zm-7 110c-1-49-69-36-119-38L50-27c61-1 137 12 136-51" id="Q"/><path fill="#3a414a" d="M180 0L97-118 63-96 45 0H11l48-248h34L69-126c44-43 94-81 141-122h43L121-137 219 0h-39" id="R"/><g id="h"><use transform="matrix(0.06172839506172839,0,0,0.06172839506172839,0,0)" xlink:href="#Q"/><use transform="matrix(0.06172839506172839,0,0,0.06172839506172839,14.814814814814813,0)" xlink:href="#H"/><use transform="matrix(0.06172839506172839,0,0,0.06172839506172839,29.629629629629626,0)" xlink:href="#J"/><use transform="matrix(0.06172839506172839,0,0,0.06172839506172839,45.61728395061728,0)" xlink:href="#R"/></g><g id="i"><use transform="matrix(0.06172839506172839,0,0,0.06172839506172839,0,0)" xlink:href="#L"/><use transform="matrix(0.06172839506172839,0,0,0.06172839506172839,6.172839506172839,0)" xlink:href="#C"/><use transform="matrix(0.06172839506172839,0,0,0.06172839506172839,20.98765432098765,0)" xlink:href="#C"/><use transform="matrix(0.06172839506172839,0,0,0.06172839506172839,35.80246913580247,0)" xlink:href="#B"/><use transform="matrix(0.06172839506172839,0,0,0.06172839506172839,51.79012345679012,0)" xlink:href="#H"/><use transform="matrix(0.06172839506172839,0,0,0.06172839506172839,66.60493827160494,0)" xlink:href="#J"/><use transform="matrix(0.06172839506172839,0,0,0.06172839506172839,82.5925925925926,0)" xlink:href="#I"/><use transform="matrix(0.06172839506172839,0,0,0.06172839506172839,98.58024691358025,0)" xlink:href="#O"/></g><g id="j"><use transform="matrix(0.06172839506172839,0,0,0.06172839506172839,0,0)" xlink:href="#L"/><use transform="matrix(0.06172839506172839,0,0,0.06172839506172839,6.172839506172839,0)" xlink:href="#E"/><use transform="matrix(0.06172839506172839,0,0,0.06172839506172839,22.160493827160494,0)" xlink:href="#F"/><use transform="matrix(0.06172839506172839,0,0,0.06172839506172839,39.44444444444444,0)" xlink:href="#J"/></g><path fill="#3a414a" d="M230 0l2-204L168 0h-37L68-204 70 0H24v-248h70l56 185 57-185h69V0h-46" id="S"/><path fill="#3a414a" d="M101-251c68 0 84 54 84 127C185-50 166 4 99 4S15-52 14-124c-1-75 17-127 87-127zm-1 216c37-5 36-46 36-89s4-89-36-89c-39 0-36 45-36 89 0 43-3 85 36 89" id="T"/><g id="k"><use transform="matrix(0.06790123456790124,0,0,0.06790123456790124,0,0)" xlink:href="#S"/><use transform="matrix(0.06790123456790124,0,0,0.06790123456790124,20.302469135802472,0)" xlink:href="#T"/></g><path fill="#3a414a" d="M115-3C79 11 28 4 28-45v-112H4v-33h27l15-45h31v45h36v33H77v99c-1 23 16 31 38 25v30" id="U"/><path fill="#3a414a" d="M110-194c64 0 96 36 96 99 0 64-35 99-97 99-61 0-95-36-95-99 0-62 34-99 96-99zm-1 164c35 0 45-28 45-65 0-40-10-65-43-65-34 0-45 26-45 65 0 36 10 65 43 65" id="V"/><g id="l"><use transform="matrix(0.06790123456790124,0,0,0.06790123456790124,0,0)" xlink:href="#U"/><use transform="matrix(0.06790123456790124,0,0,0.06790123456790124,8.080246913580249,0)" xlink:href="#V"/></g><path fill="#3a414a" d="M240-174c0 40-23 61-54 70L253 0h-59l-57-94H76V0H24v-248c93 4 217-23 216 74zM76-134c48-2 112 12 112-38 0-48-66-32-112-35v73" id="W"/><g id="m"><use transform="matrix(0.06790123456790124,0,0,0.06790123456790124,0,0)" xlink:href="#W"/><use transform="matrix(0.06790123456790124,0,0,0.06790123456790124,17.58641975308642,0)" xlink:href="#V"/><use transform="matrix(0.06790123456790124,0,0,0.06790123456790124,32.45679012345679,0)" xlink:href="#V"/><use transform="matrix(0.06790123456790124,0,0,0.06790123456790124,47.327160493827165,0)" xlink:href="#U"/></g><path fill="#3a414a" d="M24 0v-248h52V0H24" id="X"/><path fill="#3a414a" d="M135-150c-39-12-60 13-60 57V0H25l-1-190h47c2 13-1 29 3 40 6-28 27-53 61-41v41" id="Y"/><path fill="#3a414a" d="M135-194c87-1 58 113 63 194h-50c-7-57 23-157-34-157-59 0-34 97-39 157H25l-1-190h47c2 12-1 28 3 38 12-26 28-41 61-42" id="Z"/><g id="n"><use transform="matrix(0.06790123456790124,0,0,0.06790123456790124,0,0)" xlink:href="#X"/><use transform="matrix(0.06790123456790124,0,0,0.06790123456790124,6.790123456790124,0)" xlink:href="#Y"/><use transform="matrix(0.06790123456790124,0,0,0.06790123456790124,16.296296296296298,0)" xlink:href="#V"/><use transform="matrix(0.06790123456790124,0,0,0.06790123456790124,31.16666666666667,0)" xlink:href="#Z"/></g><path fill="#3a414a" d="M199 0l-22-63H83L61 0H9l90-248h61L250 0h-51zm-33-102l-36-108c-10 38-24 72-36 108h72" id="aa"/><path fill="#3a414a" d="M25 0v-261h50V0H25" id="ab"/><path fill="#3a414a" d="M25-224v-37h50v37H25zM25 0v-190h50V0H25" id="ac"/><path fill="#3a414a" d="M190-63c-7 42-38 67-86 67-59 0-84-38-90-98-12-110 154-137 174-36l-49 2c-2-19-15-32-35-32-30 0-35 28-38 64-6 74 65 87 74 30" id="ad"/><path fill="#3a414a" d="M185-48c-13 30-37 53-82 52C43 2 14-33 14-96s30-98 90-98c62 0 83 45 84 108H66c0 31 8 55 39 56 18 0 30-7 34-22zm-45-69c5-46-57-63-70-21-2 6-4 13-4 21h74" id="ae"/><path fill="#3a414a" d="M62-158H24l-5-90h48" id="af"/><path fill="#3a414a" d="M137-138c1-29-70-34-71-4 15 46 118 7 119 86 1 83-164 76-172 9l43-7c4 19 20 25 44 25 33 8 57-30 24-41C81-84 22-81 20-136c-2-80 154-74 161-7" id="ag"/><g id="o"><use transform="matrix(0.06790123456790124,0,0,0.06790123456790124,0,0)" xlink:href="#aa"/><use transform="matrix(0.06790123456790124,0,0,0.06790123456790124,17.58641975308642,0)" xlink:href="#ab"/><use transform="matrix(0.06790123456790124,0,0,0.06790123456790124,24.376543209876544,0)" xlink:href="#ac"/><use transform="matrix(0.06790123456790124,0,0,0.06790123456790124,31.166666666666668,0)" xlink:href="#ad"/><use transform="matrix(0.06790123456790124,0,0,0.06790123456790124,44.74691358024692,0)" xlink:href="#ae"/><use transform="matrix(0.06790123456790124,0,0,0.06790123456790124,58.32716049382716,0)" xlink:href="#af"/><use transform="matrix(0.06790123456790124,0,0,0.06790123456790124,64.09876543209877,0)" xlink:href="#ag"/></g><path fill="#3a414a" d="M23 0v-37h61v-169l-59 37v-38l62-41h46v211h57V0H23" id="ah"/><g id="p"><use transform="matrix(0.06790123456790124,0,0,0.06790123456790124,0,0)" xlink:href="#S"/><use transform="matrix(0.06790123456790124,0,0,0.06790123456790124,20.302469135802472,0)" xlink:href="#ah"/></g><g id="q"><use transform="matrix(0.06790123456790124,0,0,0.06790123456790124,0,0)" xlink:href="#U"/><use transform="matrix(0.06790123456790124,0,0,0.06790123456790124,8.080246913580249,0)" xlink:href="#V"/></g><path fill="#3a414a" d="M85 4C-2 5 27-109 22-190h50c7 57-23 150 33 157 60-5 35-97 40-157h50l1 190h-47c-2-12 1-28-3-38-12 25-28 42-61 42" id="ai"/><path fill="#3a414a" d="M133-34C117-15 103 5 69 4 32 3 11-16 11-54c-1-60 55-63 116-61 1-26-3-47-28-47-18 1-26 9-28 27l-52-2c7-38 36-58 82-57s74 22 75 68l1 82c-1 14 12 18 25 15v27c-30 8-71 5-69-32zm-48 3c29 0 43-24 42-57-32 0-66-3-65 30 0 17 8 27 23 27" id="aj"/><g id="r"><use transform="matrix(0.06790123456790124,0,0,0.06790123456790124,0,0)" xlink:href="#X"/><use transform="matrix(0.06790123456790124,0,0,0.06790123456790124,6.790123456790124,0)" xlink:href="#ag"/><use transform="matrix(0.06790123456790124,0,0,0.06790123456790124,20.370370370370374,0)" xlink:href="#ag"/><use transform="matrix(0.06790123456790124,0,0,0.06790123456790124,33.95061728395062,0)" xlink:href="#ai"/><use transform="matrix(0.06790123456790124,0,0,0.06790123456790124,48.820987654320994,0)" xlink:href="#aj"/><use transform="matrix(0.06790123456790124,0,0,0.06790123456790124,62.40123456790124,0)" xlink:href="#Z"/><use transform="matrix(0.06790123456790124,0,0,0.06790123456790124,77.27160493827161,0)" xlink:href="#ad"/><use transform="matrix(0.06790123456790124,0,0,0.06790123456790124,90.85185185185186,0)" xlink:href="#ae"/></g><path fill="#3a414a" d="M121-226c-27-7-43 5-38 36h38v33H83V0H34v-157H6v-33h28c-9-59 32-81 87-68v32" id="ak"/><path fill="#3a414a" d="M220-157c-53 9-28 100-34 157h-49v-107c1-27-5-49-29-50C55-147 81-57 75 0H25l-1-190h47c2 12-1 28 3 38 10-53 101-56 108 0 13-22 24-43 59-42 82 1 51 116 57 194h-49v-107c-1-25-5-48-29-50" id="al"/><g id="s"><use transform="matrix(0.06790123456790124,0,0,0.06790123456790124,0,0)" xlink:href="#ak"/><use transform="matrix(0.06790123456790124,0,0,0.06790123456790124,8.080246913580249,0)" xlink:href="#Y"/><use transform="matrix(0.06790123456790124,0,0,0.06790123456790124,17.586419753086425,0)" xlink:href="#V"/><use transform="matrix(0.06790123456790124,0,0,0.06790123456790124,32.4567901234568,0)" xlink:href="#al"/></g><path fill="#3a414a" d="M67-125c0 53 21 87 73 88 37 1 54-22 65-47l45 17C233-25 199 4 140 4 58 4 20-42 15-125 8-235 124-281 211-232c18 10 29 29 36 50l-46 12c-8-25-30-41-62-41-52 0-71 34-72 86" id="am"/><path fill="#3a414a" d="M114-157C55-157 80-60 75 0H25v-261h50l-1 109c12-26 28-41 61-42 86-1 58 113 63 194h-50c-7-57 23-157-34-157" id="an"/><g id="t"><use transform="matrix(0.06790123456790124,0,0,0.06790123456790124,0,0)" xlink:href="#am"/><use transform="matrix(0.06790123456790124,0,0,0.06790123456790124,17.58641975308642,0)" xlink:href="#an"/><use transform="matrix(0.06790123456790124,0,0,0.06790123456790124,32.45679012345679,0)" xlink:href="#Y"/><use transform="matrix(0.06790123456790124,0,0,0.06790123456790124,41.96296296296296,0)" xlink:href="#ac"/><use transform="matrix(0.06790123456790124,0,0,0.06790123456790124,48.75308641975309,0)" xlink:href="#ag"/></g><path fill="#fff" d="M238-95c0 69-44 99-111 99C63 4 22-25 22-93v-155h51v151c-1 38 19 59 55 60 90 1 49-130 58-211h52v153" id="ao"/><path fill="#fff" d="M169-182c-1-43-94-46-97-3 18 66 151 10 154 114 3 95-165 93-204 36-6-8-10-19-12-30l50-8c3 46 112 56 116 5-17-69-150-10-154-114-4-87 153-88 188-35 5 8 8 18 10 28" id="ap"/><path fill="#fff" d="M24-248c120-7 223 5 221 122C244-46 201 0 124 0H24v-248zM76-40c74 7 117-18 117-86 0-67-45-88-117-82v168" id="aq"/><g id="u"><use transform="matrix(0.06172839506172839,0,0,0.06172839506172839,0,0)" xlink:href="#ao"/><use transform="matrix(0.06172839506172839,0,0,0.06172839506172839,15.987654320987653,0)" xlink:href="#ap"/><use transform="matrix(0.06172839506172839,0,0,0.06172839506172839,30.80246913580247,0)" xlink:href="#aq"/></g><path fill="#fff" d="M230 0l2-204L168 0h-37L68-204 70 0H24v-248h70l56 185 57-185h69V0h-46" id="ar"/><path fill="#fff" d="M101-251c68 0 84 54 84 127C185-50 166 4 99 4S15-52 14-124c-1-75 17-127 87-127zm-1 216c37-5 36-46 36-89s4-89-36-89c-39 0-36 45-36 89 0 43-3 85 36 89" id="as"/><g id="v"><use transform="matrix(0.06172839506172839,0,0,0.06172839506172839,0,0)" xlink:href="#ar"/><use transform="matrix(0.06172839506172839,0,0,0.06172839506172839,18.456790123456788,0)" xlink:href="#as"/></g><path fill="#fff" d="M24 0v-248h52V0H24" id="at"/><path fill="#fff" d="M240-174c0 40-23 61-54 70L253 0h-59l-57-94H76V0H24v-248c93 4 217-23 216 74zM76-134c48-2 112 12 112-38 0-48-66-32-112-35v73" id="au"/><path fill="#fff" d="M140-251c80 0 125 45 125 126S219 4 139 4C58 4 15-44 15-125s44-126 125-126zm-1 214c52 0 73-35 73-88 0-50-21-86-72-86-52 0-73 35-73 86s22 88 72 88" id="av"/><path fill="#fff" d="M175 0L67-191c6 58 2 128 3 191H24v-248h59L193-55c-6-58-2-129-3-193h46V0h-61" id="aw"/><g id="w"><use transform="matrix(0.06172839506172839,0,0,0.06172839506172839,0,0)" xlink:href="#at"/><use transform="matrix(0.06172839506172839,0,0,0.06172839506172839,6.172839506172839,0)" xlink:href="#au"/><use transform="matrix(0.06172839506172839,0,0,0.06172839506172839,22.160493827160494,0)" xlink:href="#av"/><use transform="matrix(0.06172839506172839,0,0,0.06172839506172839,39.44444444444444,0)" xlink:href="#aw"/></g><path fill="#fff" d="M23 0v-37h61v-169l-59 37v-38l62-41h46v211h57V0H23" id="ax"/><g id="x"><use transform="matrix(0.06172839506172839,0,0,0.06172839506172839,0,0)" xlink:href="#ar"/><use transform="matrix(0.06172839506172839,0,0,0.06172839506172839,18.456790123456788,0)" xlink:href="#ax"/></g><path fill="#fff" d="M136-208V0H84v-208H4v-40h212v40h-80" id="ay"/><path fill="#fff" d="M67-125c0 54 23 88 75 88 28 0 53-7 68-21v-34h-60v-39h108v91C232-14 192 4 140 4 58 4 20-42 15-125 8-236 126-280 215-234c19 10 29 26 37 47l-47 15c-11-23-29-39-63-39-53 1-75 33-75 86" id="az"/><path fill="#fff" d="M24 0v-248h195v40H76v63h132v40H76v65h150V0H24" id="aA"/><g id="y"><use transform="matrix(0.06172839506172839,0,0,0.06172839506172839,0,0)" xlink:href="#ay"/><use transform="matrix(0.06172839506172839,0,0,0.06172839506172839,13.518518518518517,0)" xlink:href="#ao"/><use transform="matrix(0.06172839506172839,0,0,0.06172839506172839,29.50617283950617,0)" xlink:href="#aw"/><use transform="matrix(0.06172839506172839,0,0,0.06172839506172839,45.49382716049382,0)" xlink:href="#az"/><use transform="matrix(0.06172839506172839,0,0,0.06172839506172839,62.77777777777777,0)" xlink:href="#ap"/><use transform="matrix(0.06172839506172839,0,0,0.06172839506172839,77.59259259259258,0)" xlink:href="#ay"/><use transform="matrix(0.06172839506172839,0,0,0.06172839506172839,91.1111111111111,0)" xlink:href="#aA"/><use transform="matrix(0.06172839506172839,0,0,0.06172839506172839,105.92592592592591,0)" xlink:href="#aw"/></g><path fill="#3a414a" d="M136-208V0H84v-208H4v-40h212v40h-80" id="aB"/><g id="z"><use transform="matrix(0.06790123456790124,0,0,0.06790123456790124,0,0)" xlink:href="#aB"/><use transform="matrix(0.06790123456790124,0,0,0.06790123456790124,13.512345679012347,0)" xlink:href="#Y"/><use transform="matrix(0.06790123456790124,0,0,0.06790123456790124,23.01851851851852,0)" xlink:href="#aj"/><use transform="matrix(0.06790123456790124,0,0,0.06790123456790124,36.598765432098766,0)" xlink:href="#Z"/><use transform="matrix(0.06790123456790124,0,0,0.06790123456790124,51.46913580246915,0)" xlink:href="#ag"/><use transform="matrix(0.06790123456790124,0,0,0.06790123456790124,65.0493827160494,0)" xlink:href="#ak"/><use transform="matrix(0.06790123456790124,0,0,0.06790123456790124,73.12962962962965,0)" xlink:href="#ae"/><use transform="matrix(0.06790123456790124,0,0,0.06790123456790124,86.7098765432099,0)" xlink:href="#Y"/></g><g id="A"><use transform="matrix(0.06790123456790124,0,0,0.06790123456790124,0,0)" xlink:href="#aa"/><use transform="matrix(0.06790123456790124,0,0,0.06790123456790124,17.58641975308642,0)" xlink:href="#ab"/><use transform="matrix(0.06790123456790124,0,0,0.06790123456790124,24.376543209876544,0)" xlink:href="#ac"/><use transform="matrix(0.06790123456790124,0,0,0.06790123456790124,31.166666666666668,0)" xlink:href="#ad"/><use transform="matrix(0.06790123456790124,0,0,0.06790123456790124,44.74691358024692,0)" xlink:href="#ae"/></g></defs></g></svg>