<svg width="874" height="290" viewBox="0 0 874 290" fill="none" xmlns="http://www.w3.org/2000/svg">
<rect x="1.5" y="1.5" width="180" height="67" rx="8.5" fill="#F9FAFA"/>
<path d="M25.8542 40.105C25.6742 40.105 25.5192 40.065 25.3892 39.985C25.2692 39.895 25.1992 39.78 25.1792 39.64C25.1492 39.49 25.1842 39.325 25.2842 39.145L30.9092 29.845C31.0292 29.665 31.1542 29.535 31.2842 29.455C31.4242 29.365 31.5992 29.32 31.8092 29.32C32.0192 29.32 32.1892 29.37 32.3192 29.47C32.4592 29.57 32.5592 29.725 32.6192 29.935L35.2292 39.1C35.2992 39.33 35.3142 39.52 35.2742 39.67C35.2342 39.82 35.1542 39.93 35.0342 40C34.9242 40.07 34.7892 40.105 34.6292 40.105C34.4092 40.105 34.2342 40.05 34.1042 39.94C33.9842 39.82 33.8942 39.645 33.8342 39.415L33.2192 37.09L33.7442 37.42H27.4442L28.1192 37.12L26.6342 39.64C26.5542 39.8 26.4492 39.92 26.3192 40C26.1892 40.07 26.0342 40.105 25.8542 40.105ZM31.6142 31.15L28.5242 36.43L28.1792 36.16H33.4142L33.0392 36.445L31.6442 31.15H31.6142ZM37.7391 40C37.4691 40 37.2691 39.925 37.1391 39.775C37.0191 39.625 36.9791 39.415 37.0191 39.145L38.4741 30.025C38.5141 29.785 38.5991 29.61 38.7291 29.5C38.8691 29.38 39.0591 29.32 39.2991 29.32C39.5591 29.32 39.7491 29.395 39.8691 29.545C39.9891 29.695 40.0291 29.9 39.9891 30.16L38.6541 38.665H43.1691C43.3991 38.665 43.5741 38.715 43.6941 38.815C43.8241 38.905 43.8891 39.035 43.8891 39.205C43.8891 39.465 43.8141 39.665 43.6641 39.805C43.5241 39.935 43.3341 40 43.0941 40H37.7391ZM45.9555 40.105C45.6855 40.105 45.4955 40.025 45.3855 39.865C45.2755 39.705 45.2405 39.48 45.2805 39.19L46.7355 30.085C46.7755 29.835 46.8655 29.645 47.0055 29.515C47.1455 29.385 47.3455 29.32 47.6055 29.32C47.8655 29.32 48.0505 29.4 48.1605 29.56C48.2705 29.71 48.3005 29.935 48.2505 30.235L46.8105 39.325C46.7705 39.575 46.6805 39.77 46.5405 39.91C46.4105 40.04 46.2155 40.105 45.9555 40.105ZM54.3192 40.135C53.3992 40.135 52.5842 39.965 51.8742 39.625C51.1742 39.275 50.6242 38.75 50.2242 38.05C49.8242 37.34 49.6242 36.445 49.6242 35.365C49.6242 34.505 49.7492 33.71 49.9992 32.98C50.2592 32.24 50.6242 31.595 51.0942 31.045C51.5742 30.495 52.1592 30.065 52.8492 29.755C53.5492 29.445 54.3342 29.29 55.2042 29.29C55.8042 29.29 56.3742 29.375 56.9142 29.545C57.4542 29.715 57.9242 29.96 58.3242 30.28C58.4742 30.39 58.5642 30.52 58.5942 30.67C58.6342 30.81 58.6292 30.95 58.5792 31.09C58.5392 31.23 58.4692 31.35 58.3692 31.45C58.2792 31.54 58.1642 31.595 58.0242 31.615C57.8942 31.625 57.7592 31.585 57.6192 31.495C57.2292 31.195 56.8342 30.985 56.4342 30.865C56.0342 30.735 55.6042 30.67 55.1442 30.67C54.3342 30.67 53.6392 30.875 53.0592 31.285C52.4792 31.685 52.0342 32.24 51.7242 32.95C51.4242 33.65 51.2742 34.445 51.2742 35.335C51.2742 36.145 51.3992 36.8 51.6492 37.3C51.8992 37.8 52.2592 38.17 52.7292 38.41C53.2092 38.64 53.7892 38.755 54.4692 38.755C54.8892 38.755 55.2842 38.7 55.6542 38.59C56.0242 38.47 56.3992 38.275 56.7792 38.005C56.9392 37.905 57.0892 37.865 57.2292 37.885C57.3692 37.895 57.4842 37.95 57.5742 38.05C57.6742 38.14 57.7392 38.255 57.7692 38.395C57.7992 38.525 57.7892 38.66 57.7392 38.8C57.6892 38.94 57.5892 39.06 57.4392 39.16C56.9892 39.49 56.4942 39.735 55.9542 39.895C55.4142 40.055 54.8692 40.135 54.3192 40.135ZM60.2259 40C59.9359 40 59.7209 39.925 59.5809 39.775C59.4509 39.615 59.4059 39.39 59.4459 39.1L60.8709 30.19C60.9109 29.93 61.0059 29.74 61.1559 29.62C61.3059 29.49 61.5059 29.425 61.7559 29.425H67.1859C67.3959 29.425 67.5559 29.47 67.6659 29.56C67.7859 29.64 67.8459 29.76 67.8459 29.92C67.8459 30.17 67.7759 30.36 67.6359 30.49C67.5059 30.62 67.3309 30.685 67.1109 30.685H62.2809L61.7559 34H66.1509C66.3609 34 66.5209 34.045 66.6309 34.135C66.7409 34.215 66.7959 34.34 66.7959 34.51C66.7959 34.75 66.7259 34.935 66.5859 35.065C66.4559 35.195 66.2809 35.26 66.0609 35.26H61.5609L60.9909 38.74H65.7009C65.9109 38.74 66.0709 38.785 66.1809 38.875C66.3009 38.955 66.3609 39.08 66.3609 39.25C66.3609 39.49 66.2909 39.675 66.1509 39.805C66.0209 39.935 65.8459 40 65.6259 40H60.2259ZM70.0789 32.74C69.9489 32.86 69.8189 32.925 69.6889 32.935C69.5689 32.935 69.4689 32.895 69.3889 32.815C69.3089 32.735 69.2689 32.635 69.2689 32.515C69.2689 32.395 69.3339 32.27 69.4639 32.14C69.6939 31.92 69.8589 31.715 69.9589 31.525C70.0689 31.325 70.1439 31.11 70.1839 30.88L70.2739 31.27C69.9739 31.27 69.7289 31.185 69.5389 31.015C69.3589 30.835 69.2689 30.6 69.2689 30.31C69.2689 30.03 69.3539 29.805 69.5239 29.635C69.6939 29.455 69.9239 29.365 70.2139 29.365C70.5139 29.365 70.7439 29.46 70.9039 29.65C71.0639 29.84 71.1439 30.095 71.1439 30.415C71.1439 30.715 71.1039 31 71.0239 31.27C70.9439 31.53 70.8239 31.785 70.6639 32.035C70.5039 32.275 70.3089 32.51 70.0789 32.74ZM75.6017 40.135C75.1617 40.135 74.7267 40.105 74.2967 40.045C73.8667 39.985 73.4517 39.885 73.0517 39.745C72.6517 39.595 72.2817 39.405 71.9417 39.175C71.7917 39.085 71.6867 38.97 71.6267 38.83C71.5767 38.69 71.5667 38.555 71.5967 38.425C71.6267 38.285 71.6867 38.165 71.7767 38.065C71.8667 37.965 71.9817 37.905 72.1217 37.885C72.2717 37.865 72.4317 37.905 72.6017 38.005C73.0817 38.305 73.5817 38.515 74.1017 38.635C74.6317 38.755 75.1767 38.815 75.7367 38.815C76.4867 38.815 77.0867 38.665 77.5367 38.365C77.9967 38.055 78.2267 37.64 78.2267 37.12C78.2267 36.75 78.0917 36.435 77.8217 36.175C77.5517 35.915 77.0867 35.715 76.4267 35.575L74.8367 35.185C74.1267 35.015 73.5567 34.72 73.1267 34.3C72.7067 33.87 72.4967 33.28 72.4967 32.53C72.4967 32.03 72.6017 31.58 72.8117 31.18C73.0217 30.78 73.3167 30.44 73.6967 30.16C74.0767 29.87 74.5117 29.655 75.0017 29.515C75.4917 29.365 76.0117 29.29 76.5617 29.29C77.1217 29.29 77.7017 29.37 78.3017 29.53C78.9117 29.68 79.4517 29.935 79.9217 30.295C80.0617 30.395 80.1517 30.515 80.1917 30.655C80.2417 30.795 80.2517 30.935 80.2217 31.075C80.1917 31.205 80.1317 31.315 80.0417 31.405C79.9517 31.485 79.8317 31.53 79.6817 31.54C79.5417 31.55 79.3717 31.495 79.1717 31.375C78.8017 31.115 78.3817 30.925 77.9117 30.805C77.4517 30.675 76.9917 30.61 76.5317 30.61C76.0517 30.61 75.6217 30.685 75.2417 30.835C74.8717 30.985 74.5767 31.195 74.3567 31.465C74.1467 31.725 74.0417 32.04 74.0417 32.41C74.0417 32.86 74.1617 33.195 74.4017 33.415C74.6417 33.635 74.9967 33.805 75.4667 33.925L77.0567 34.315C77.9767 34.525 78.6567 34.855 79.0967 35.305C79.5467 35.755 79.7717 36.3 79.7717 36.94C79.7717 37.47 79.6617 37.935 79.4417 38.335C79.2217 38.735 78.9167 39.07 78.5267 39.34C78.1467 39.6 77.7067 39.8 77.2067 39.94C76.7067 40.07 76.1717 40.135 75.6017 40.135ZM85.0778 40.105C84.8978 40.105 84.7428 40.065 84.6128 39.985C84.4928 39.895 84.4228 39.78 84.4028 39.64C84.3728 39.49 84.4078 39.325 84.5078 39.145L90.1328 29.845C90.2528 29.665 90.3778 29.535 90.5078 29.455C90.6478 29.365 90.8228 29.32 91.0328 29.32C91.2428 29.32 91.4128 29.37 91.5428 29.47C91.6828 29.57 91.7828 29.725 91.8428 29.935L94.4528 39.1C94.5228 39.33 94.5378 39.52 94.4978 39.67C94.4578 39.82 94.3778 39.93 94.2578 40C94.1478 40.07 94.0128 40.105 93.8528 40.105C93.6328 40.105 93.4578 40.05 93.3278 39.94C93.2078 39.82 93.1178 39.645 93.0578 39.415L92.4428 37.09L92.9678 37.42H86.6678L87.3428 37.12L85.8578 39.64C85.7778 39.8 85.6728 39.92 85.5428 40C85.4128 40.07 85.2578 40.105 85.0778 40.105ZM90.8378 31.15L87.7478 36.43L87.4028 36.16H92.6378L92.2628 36.445L90.8678 31.15H90.8378ZM101.048 40.135C100.128 40.135 99.3127 39.965 98.6027 39.625C97.9027 39.275 97.3527 38.75 96.9527 38.05C96.5527 37.34 96.3527 36.445 96.3527 35.365C96.3527 34.505 96.4777 33.71 96.7277 32.98C96.9877 32.24 97.3527 31.595 97.8227 31.045C98.3027 30.495 98.8877 30.065 99.5777 29.755C100.278 29.445 101.063 29.29 101.933 29.29C102.533 29.29 103.103 29.375 103.643 29.545C104.183 29.715 104.653 29.96 105.053 30.28C105.203 30.39 105.293 30.52 105.323 30.67C105.363 30.81 105.358 30.95 105.308 31.09C105.268 31.23 105.198 31.35 105.098 31.45C105.008 31.54 104.893 31.595 104.753 31.615C104.623 31.625 104.488 31.585 104.348 31.495C103.958 31.195 103.563 30.985 103.163 30.865C102.763 30.735 102.333 30.67 101.873 30.67C101.063 30.67 100.368 30.875 99.7877 31.285C99.2077 31.685 98.7627 32.24 98.4527 32.95C98.1527 33.65 98.0027 34.445 98.0027 35.335C98.0027 36.145 98.1277 36.8 98.3777 37.3C98.6277 37.8 98.9877 38.17 99.4577 38.41C99.9377 38.64 100.518 38.755 101.198 38.755C101.618 38.755 102.013 38.7 102.383 38.59C102.753 38.47 103.128 38.275 103.508 38.005C103.668 37.905 103.818 37.865 103.958 37.885C104.098 37.895 104.213 37.95 104.303 38.05C104.403 38.14 104.468 38.255 104.498 38.395C104.528 38.525 104.518 38.66 104.468 38.8C104.418 38.94 104.318 39.06 104.168 39.16C103.718 39.49 103.223 39.735 102.683 39.895C102.143 40.055 101.598 40.135 101.048 40.135ZM110.862 40.135C109.942 40.135 109.127 39.965 108.417 39.625C107.717 39.275 107.167 38.75 106.767 38.05C106.367 37.34 106.167 36.445 106.167 35.365C106.167 34.505 106.292 33.71 106.542 32.98C106.802 32.24 107.167 31.595 107.637 31.045C108.117 30.495 108.702 30.065 109.392 29.755C110.092 29.445 110.877 29.29 111.747 29.29C112.347 29.29 112.917 29.375 113.457 29.545C113.997 29.715 114.467 29.96 114.867 30.28C115.017 30.39 115.107 30.52 115.137 30.67C115.177 30.81 115.172 30.95 115.122 31.09C115.082 31.23 115.012 31.35 114.912 31.45C114.822 31.54 114.707 31.595 114.567 31.615C114.437 31.625 114.302 31.585 114.162 31.495C113.772 31.195 113.377 30.985 112.977 30.865C112.577 30.735 112.147 30.67 111.687 30.67C110.877 30.67 110.182 30.875 109.602 31.285C109.022 31.685 108.577 32.24 108.267 32.95C107.967 33.65 107.817 34.445 107.817 35.335C107.817 36.145 107.942 36.8 108.192 37.3C108.442 37.8 108.802 38.17 109.272 38.41C109.752 38.64 110.332 38.755 111.012 38.755C111.432 38.755 111.827 38.7 112.197 38.59C112.567 38.47 112.942 38.275 113.322 38.005C113.482 37.905 113.632 37.865 113.772 37.885C113.912 37.895 114.027 37.95 114.117 38.05C114.217 38.14 114.282 38.255 114.312 38.395C114.342 38.525 114.332 38.66 114.282 38.8C114.232 38.94 114.132 39.06 113.982 39.16C113.532 39.49 113.037 39.735 112.497 39.895C111.957 40.055 111.412 40.135 110.862 40.135ZM120.482 40.135C119.572 40.135 118.777 39.96 118.097 39.61C117.427 39.26 116.902 38.74 116.522 38.05C116.152 37.36 115.967 36.53 115.967 35.56C115.967 34.66 116.087 33.83 116.327 33.07C116.577 32.31 116.937 31.645 117.407 31.075C117.877 30.505 118.447 30.065 119.117 29.755C119.787 29.445 120.552 29.29 121.412 29.29C122.332 29.29 123.127 29.465 123.797 29.815C124.477 30.165 125.002 30.685 125.372 31.375C125.742 32.055 125.927 32.88 125.927 33.85C125.927 34.76 125.802 35.595 125.552 36.355C125.312 37.115 124.957 37.78 124.487 38.35C124.017 38.92 123.447 39.36 122.777 39.67C122.107 39.98 121.342 40.135 120.482 40.135ZM120.512 38.785C121.332 38.785 122.022 38.575 122.582 38.155C123.142 37.725 123.567 37.14 123.857 36.4C124.147 35.66 124.292 34.82 124.292 33.88C124.292 32.78 124.032 31.965 123.512 31.435C123.002 30.905 122.287 30.64 121.367 30.64C120.557 30.64 119.872 30.85 119.312 31.27C118.752 31.69 118.327 32.27 118.037 33.01C117.747 33.75 117.602 34.59 117.602 35.53C117.602 36.64 117.862 37.46 118.382 37.99C118.902 38.52 119.612 38.785 120.512 38.785ZM131.572 40.135C130.902 40.135 130.307 40.04 129.787 39.85C129.267 39.66 128.837 39.37 128.497 38.98C128.157 38.59 127.922 38.105 127.792 37.525C127.672 36.935 127.677 36.25 127.807 35.47L128.662 30.04C128.702 29.79 128.792 29.61 128.932 29.5C129.082 29.38 129.277 29.32 129.517 29.32C129.777 29.32 129.962 29.395 130.072 29.545C130.192 29.685 130.232 29.895 130.192 30.175L129.337 35.605C129.167 36.655 129.277 37.45 129.667 37.99C130.067 38.52 130.732 38.785 131.662 38.785C132.572 38.785 133.287 38.555 133.807 38.095C134.337 37.635 134.682 36.895 134.842 35.875L135.772 30.04C135.812 29.79 135.902 29.61 136.042 29.5C136.192 29.38 136.387 29.32 136.627 29.32C136.877 29.32 137.057 29.395 137.167 29.545C137.287 29.685 137.327 29.895 137.287 30.175L136.387 35.89C136.237 36.82 135.967 37.6 135.577 38.23C135.187 38.86 134.662 39.335 134.002 39.655C133.342 39.975 132.532 40.135 131.572 40.135ZM138.898 40.105C138.678 40.105 138.508 40.03 138.388 39.88C138.278 39.73 138.243 39.52 138.283 39.25L139.753 29.98C139.793 29.75 139.878 29.585 140.008 29.485C140.138 29.375 140.293 29.32 140.473 29.32C140.673 29.32 140.823 29.36 140.923 29.44C141.033 29.51 141.138 29.63 141.238 29.8L146.038 38.05H145.708L146.968 30.025C147.008 29.785 147.098 29.61 147.238 29.5C147.378 29.38 147.568 29.32 147.808 29.32C148.028 29.32 148.188 29.395 148.288 29.545C148.388 29.695 148.418 29.9 148.378 30.16L146.908 39.43C146.878 39.66 146.808 39.83 146.698 39.94C146.588 40.05 146.438 40.105 146.248 40.105C146.048 40.105 145.888 40.065 145.768 39.985C145.648 39.905 145.533 39.775 145.423 39.595L140.623 31.375H140.953L139.693 39.4C139.663 39.64 139.583 39.82 139.453 39.94C139.333 40.05 139.148 40.105 138.898 40.105ZM152.671 40.105C152.421 40.105 152.236 40.025 152.116 39.865C152.006 39.705 151.971 39.485 152.011 39.205L153.346 30.73H150.301C150.081 30.73 149.906 30.685 149.776 30.595C149.656 30.495 149.596 30.36 149.596 30.19C149.596 29.95 149.666 29.765 149.806 29.635C149.956 29.495 150.146 29.425 150.376 29.425H158.161C158.391 29.425 158.566 29.47 158.686 29.56C158.806 29.65 158.866 29.78 158.866 29.95C158.866 30.2 158.796 30.395 158.656 30.535C158.516 30.665 158.326 30.73 158.086 30.73H154.906L153.541 39.34C153.501 39.59 153.406 39.78 153.256 39.91C153.116 40.04 152.921 40.105 152.671 40.105Z" fill="#333638"/>
<rect x="1.5" y="1.5" width="180" height="67" rx="8.5" stroke="#333638" stroke-width="3" stroke-linecap="round"/>
<rect x="702.5" y="154.936" width="170" height="67" rx="8.5" fill="#F9FAFA"/>
<path d="M727.881 193.436C727.601 193.436 727.391 193.356 727.251 193.196C727.121 193.036 727.076 192.816 727.116 192.536L728.541 183.626C728.581 183.366 728.676 183.176 728.826 183.056C728.976 182.926 729.176 182.861 729.426 182.861H732.816C733.576 182.861 734.196 182.966 734.676 183.176C735.156 183.386 735.511 183.681 735.741 184.061C735.971 184.431 736.086 184.861 736.086 185.351C736.086 186.121 735.841 186.756 735.351 187.256C734.871 187.746 734.236 188.051 733.446 188.171V187.931C734.106 188.051 734.621 188.321 734.991 188.741C735.371 189.161 735.561 189.681 735.561 190.301C735.561 191.331 735.231 192.111 734.571 192.641C733.911 193.171 732.981 193.436 731.781 193.436H727.881ZM728.661 192.236H731.736C732.506 192.236 733.086 192.066 733.476 191.726C733.866 191.376 734.061 190.876 734.061 190.226C734.061 189.716 733.891 189.331 733.551 189.071C733.211 188.811 732.716 188.681 732.066 188.681H729.231L728.661 192.236ZM729.426 187.481H732.231C732.961 187.481 733.531 187.311 733.941 186.971C734.361 186.631 734.571 186.146 734.571 185.516C734.571 185.046 734.411 184.686 734.091 184.436C733.771 184.186 733.271 184.061 732.591 184.061H729.966L729.426 187.481ZM742.155 193.571C741.245 193.571 740.45 193.396 739.77 193.046C739.1 192.696 738.575 192.176 738.195 191.486C737.825 190.796 737.64 189.966 737.64 188.996C737.64 188.096 737.76 187.266 738 186.506C738.25 185.746 738.61 185.081 739.08 184.511C739.55 183.941 740.12 183.501 740.79 183.191C741.46 182.881 742.225 182.726 743.085 182.726C744.005 182.726 744.8 182.901 745.47 183.251C746.15 183.601 746.675 184.121 747.045 184.811C747.415 185.491 747.6 186.316 747.6 187.286C747.6 188.196 747.475 189.031 747.225 189.791C746.985 190.551 746.63 191.216 746.16 191.786C745.69 192.356 745.12 192.796 744.45 193.106C743.78 193.416 743.015 193.571 742.155 193.571ZM742.185 192.221C743.005 192.221 743.695 192.011 744.255 191.591C744.815 191.161 745.24 190.576 745.53 189.836C745.82 189.096 745.965 188.256 745.965 187.316C745.965 186.216 745.705 185.401 745.185 184.871C744.675 184.341 743.96 184.076 743.04 184.076C742.23 184.076 741.545 184.286 740.985 184.706C740.425 185.126 740 185.706 739.71 186.446C739.42 187.186 739.275 188.026 739.275 188.966C739.275 190.076 739.535 190.896 740.055 191.426C740.575 191.956 741.285 192.221 742.185 192.221ZM749.736 193.436C749.456 193.436 749.246 193.356 749.106 193.196C748.976 193.036 748.931 192.816 748.971 192.536L750.396 183.626C750.436 183.366 750.531 183.176 750.681 183.056C750.831 182.926 751.031 182.861 751.281 182.861H754.671C755.431 182.861 756.051 182.966 756.531 183.176C757.011 183.386 757.366 183.681 757.596 184.061C757.826 184.431 757.941 184.861 757.941 185.351C757.941 186.121 757.696 186.756 757.206 187.256C756.726 187.746 756.091 188.051 755.301 188.171V187.931C755.961 188.051 756.476 188.321 756.846 188.741C757.226 189.161 757.416 189.681 757.416 190.301C757.416 191.331 757.086 192.111 756.426 192.641C755.766 193.171 754.836 193.436 753.636 193.436H749.736ZM750.516 192.236H753.591C754.361 192.236 754.941 192.066 755.331 191.726C755.721 191.376 755.916 190.876 755.916 190.226C755.916 189.716 755.746 189.331 755.406 189.071C755.066 188.811 754.571 188.681 753.921 188.681H751.086L750.516 192.236ZM751.281 187.481H754.086C754.816 187.481 755.386 187.311 755.796 186.971C756.216 186.631 756.426 186.146 756.426 185.516C756.426 185.046 756.266 184.686 755.946 184.436C755.626 184.186 755.126 184.061 754.446 184.061H751.821L751.281 187.481ZM760.937 186.176C760.807 186.296 760.677 186.361 760.547 186.371C760.427 186.371 760.327 186.331 760.247 186.251C760.167 186.171 760.127 186.071 760.127 185.951C760.127 185.831 760.192 185.706 760.322 185.576C760.552 185.356 760.717 185.151 760.817 184.961C760.927 184.761 761.002 184.546 761.042 184.316L761.132 184.706C760.832 184.706 760.587 184.621 760.397 184.451C760.217 184.271 760.127 184.036 760.127 183.746C760.127 183.466 760.212 183.241 760.382 183.071C760.552 182.891 760.782 182.801 761.072 182.801C761.372 182.801 761.602 182.896 761.762 183.086C761.922 183.276 762.002 183.531 762.002 183.851C762.002 184.151 761.962 184.436 761.882 184.706C761.802 184.966 761.682 185.221 761.522 185.471C761.362 185.711 761.167 185.946 760.937 186.176ZM766.46 193.571C766.02 193.571 765.585 193.541 765.155 193.481C764.725 193.421 764.31 193.321 763.91 193.181C763.51 193.031 763.14 192.841 762.8 192.611C762.65 192.521 762.545 192.406 762.485 192.266C762.435 192.126 762.425 191.991 762.455 191.861C762.485 191.721 762.545 191.601 762.635 191.501C762.725 191.401 762.84 191.341 762.98 191.321C763.13 191.301 763.29 191.341 763.46 191.441C763.94 191.741 764.44 191.951 764.96 192.071C765.49 192.191 766.035 192.251 766.595 192.251C767.345 192.251 767.945 192.101 768.395 191.801C768.855 191.491 769.085 191.076 769.085 190.556C769.085 190.186 768.95 189.871 768.68 189.611C768.41 189.351 767.945 189.151 767.285 189.011L765.695 188.621C764.985 188.451 764.415 188.156 763.985 187.736C763.565 187.306 763.355 186.716 763.355 185.966C763.355 185.466 763.46 185.016 763.67 184.616C763.88 184.216 764.175 183.876 764.555 183.596C764.935 183.306 765.37 183.091 765.86 182.951C766.35 182.801 766.87 182.726 767.42 182.726C767.98 182.726 768.56 182.806 769.16 182.966C769.77 183.116 770.31 183.371 770.78 183.731C770.92 183.831 771.01 183.951 771.05 184.091C771.1 184.231 771.11 184.371 771.08 184.511C771.05 184.641 770.99 184.751 770.9 184.841C770.81 184.921 770.69 184.966 770.54 184.976C770.4 184.986 770.23 184.931 770.03 184.811C769.66 184.551 769.24 184.361 768.77 184.241C768.31 184.111 767.85 184.046 767.39 184.046C766.91 184.046 766.48 184.121 766.1 184.271C765.73 184.421 765.435 184.631 765.215 184.901C765.005 185.161 764.9 185.476 764.9 185.846C764.9 186.296 765.02 186.631 765.26 186.851C765.5 187.071 765.855 187.241 766.325 187.361L767.915 187.751C768.835 187.961 769.515 188.291 769.955 188.741C770.405 189.191 770.63 189.736 770.63 190.376C770.63 190.906 770.52 191.371 770.3 191.771C770.08 192.171 769.775 192.506 769.385 192.776C769.005 193.036 768.565 193.236 768.065 193.376C767.565 193.506 767.03 193.571 766.46 193.571ZM775.936 193.541C775.756 193.541 775.601 193.501 775.471 193.421C775.351 193.331 775.281 193.216 775.261 193.076C775.231 192.926 775.266 192.761 775.366 192.581L780.991 183.281C781.111 183.101 781.236 182.971 781.366 182.891C781.506 182.801 781.681 182.756 781.891 182.756C782.101 182.756 782.271 182.806 782.401 182.906C782.541 183.006 782.641 183.161 782.701 183.371L785.311 192.536C785.381 192.766 785.396 192.956 785.356 193.106C785.316 193.256 785.236 193.366 785.116 193.436C785.006 193.506 784.871 193.541 784.711 193.541C784.491 193.541 784.316 193.486 784.186 193.376C784.066 193.256 783.976 193.081 783.916 192.851L783.301 190.526L783.826 190.856H777.526L778.201 190.556L776.716 193.076C776.636 193.236 776.531 193.356 776.401 193.436C776.271 193.506 776.116 193.541 775.936 193.541ZM781.696 184.586L778.606 189.866L778.261 189.596H783.496L783.121 189.881L781.726 184.586H781.696ZM791.906 193.571C790.986 193.571 790.171 193.401 789.461 193.061C788.761 192.711 788.211 192.186 787.811 191.486C787.411 190.776 787.211 189.881 787.211 188.801C787.211 187.941 787.336 187.146 787.586 186.416C787.846 185.676 788.211 185.031 788.681 184.481C789.161 183.931 789.746 183.501 790.436 183.191C791.136 182.881 791.921 182.726 792.791 182.726C793.391 182.726 793.961 182.811 794.501 182.981C795.041 183.151 795.511 183.396 795.911 183.716C796.061 183.826 796.151 183.956 796.181 184.106C796.221 184.246 796.216 184.386 796.166 184.526C796.126 184.666 796.056 184.786 795.956 184.886C795.866 184.976 795.751 185.031 795.611 185.051C795.481 185.061 795.346 185.021 795.206 184.931C794.816 184.631 794.421 184.421 794.021 184.301C793.621 184.171 793.191 184.106 792.731 184.106C791.921 184.106 791.226 184.311 790.646 184.721C790.066 185.121 789.621 185.676 789.311 186.386C789.011 187.086 788.861 187.881 788.861 188.771C788.861 189.581 788.986 190.236 789.236 190.736C789.486 191.236 789.846 191.606 790.316 191.846C790.796 192.076 791.376 192.191 792.056 192.191C792.476 192.191 792.871 192.136 793.241 192.026C793.611 191.906 793.986 191.711 794.366 191.441C794.526 191.341 794.676 191.301 794.816 191.321C794.956 191.331 795.071 191.386 795.161 191.486C795.261 191.576 795.326 191.691 795.356 191.831C795.386 191.961 795.376 192.096 795.326 192.236C795.276 192.376 795.176 192.496 795.026 192.596C794.576 192.926 794.081 193.171 793.541 193.331C793.001 193.491 792.456 193.571 791.906 193.571ZM801.721 193.571C800.801 193.571 799.986 193.401 799.276 193.061C798.576 192.711 798.026 192.186 797.626 191.486C797.226 190.776 797.026 189.881 797.026 188.801C797.026 187.941 797.151 187.146 797.401 186.416C797.661 185.676 798.026 185.031 798.496 184.481C798.976 183.931 799.561 183.501 800.251 183.191C800.951 182.881 801.736 182.726 802.606 182.726C803.206 182.726 803.776 182.811 804.316 182.981C804.856 183.151 805.326 183.396 805.726 183.716C805.876 183.826 805.966 183.956 805.996 184.106C806.036 184.246 806.031 184.386 805.981 184.526C805.941 184.666 805.871 184.786 805.771 184.886C805.681 184.976 805.566 185.031 805.426 185.051C805.296 185.061 805.161 185.021 805.021 184.931C804.631 184.631 804.236 184.421 803.836 184.301C803.436 184.171 803.006 184.106 802.546 184.106C801.736 184.106 801.041 184.311 800.461 184.721C799.881 185.121 799.436 185.676 799.126 186.386C798.826 187.086 798.676 187.881 798.676 188.771C798.676 189.581 798.801 190.236 799.051 190.736C799.301 191.236 799.661 191.606 800.131 191.846C800.611 192.076 801.191 192.191 801.871 192.191C802.291 192.191 802.686 192.136 803.056 192.026C803.426 191.906 803.801 191.711 804.181 191.441C804.341 191.341 804.491 191.301 804.631 191.321C804.771 191.331 804.886 191.386 804.976 191.486C805.076 191.576 805.141 191.691 805.171 191.831C805.201 191.961 805.191 192.096 805.141 192.236C805.091 192.376 804.991 192.496 804.841 192.596C804.391 192.926 803.896 193.171 803.356 193.331C802.816 193.491 802.271 193.571 801.721 193.571ZM811.34 193.571C810.43 193.571 809.635 193.396 808.955 193.046C808.285 192.696 807.76 192.176 807.38 191.486C807.01 190.796 806.825 189.966 806.825 188.996C806.825 188.096 806.945 187.266 807.185 186.506C807.435 185.746 807.795 185.081 808.265 184.511C808.735 183.941 809.305 183.501 809.975 183.191C810.645 182.881 811.41 182.726 812.27 182.726C813.19 182.726 813.985 182.901 814.655 183.251C815.335 183.601 815.86 184.121 816.23 184.811C816.6 185.491 816.785 186.316 816.785 187.286C816.785 188.196 816.66 189.031 816.41 189.791C816.17 190.551 815.815 191.216 815.345 191.786C814.875 192.356 814.305 192.796 813.635 193.106C812.965 193.416 812.2 193.571 811.34 193.571ZM811.37 192.221C812.19 192.221 812.88 192.011 813.44 191.591C814 191.161 814.425 190.576 814.715 189.836C815.005 189.096 815.15 188.256 815.15 187.316C815.15 186.216 814.89 185.401 814.37 184.871C813.86 184.341 813.145 184.076 812.225 184.076C811.415 184.076 810.73 184.286 810.17 184.706C809.61 185.126 809.185 185.706 808.895 186.446C808.605 187.186 808.46 188.026 808.46 188.966C808.46 190.076 808.72 190.896 809.24 191.426C809.76 191.956 810.47 192.221 811.37 192.221ZM822.431 193.571C821.761 193.571 821.166 193.476 820.646 193.286C820.126 193.096 819.696 192.806 819.356 192.416C819.016 192.026 818.781 191.541 818.651 190.961C818.531 190.371 818.536 189.686 818.666 188.906L819.521 183.476C819.561 183.226 819.651 183.046 819.791 182.936C819.941 182.816 820.136 182.756 820.376 182.756C820.636 182.756 820.821 182.831 820.931 182.981C821.051 183.121 821.091 183.331 821.051 183.611L820.196 189.041C820.026 190.091 820.136 190.886 820.526 191.426C820.926 191.956 821.591 192.221 822.521 192.221C823.431 192.221 824.146 191.991 824.666 191.531C825.196 191.071 825.541 190.331 825.701 189.311L826.631 183.476C826.671 183.226 826.761 183.046 826.901 182.936C827.051 182.816 827.246 182.756 827.486 182.756C827.736 182.756 827.916 182.831 828.026 182.981C828.146 183.121 828.186 183.331 828.146 183.611L827.246 189.326C827.096 190.256 826.826 191.036 826.436 191.666C826.046 192.296 825.521 192.771 824.861 193.091C824.201 193.411 823.391 193.571 822.431 193.571ZM829.757 193.541C829.537 193.541 829.367 193.466 829.247 193.316C829.137 193.166 829.102 192.956 829.142 192.686L830.612 183.416C830.652 183.186 830.737 183.021 830.867 182.921C830.997 182.811 831.152 182.756 831.332 182.756C831.532 182.756 831.682 182.796 831.782 182.876C831.892 182.946 831.997 183.066 832.097 183.236L836.897 191.486H836.567L837.827 183.461C837.867 183.221 837.957 183.046 838.097 182.936C838.237 182.816 838.427 182.756 838.667 182.756C838.887 182.756 839.047 182.831 839.147 182.981C839.247 183.131 839.277 183.336 839.237 183.596L837.767 192.866C837.737 193.096 837.667 193.266 837.557 193.376C837.447 193.486 837.297 193.541 837.107 193.541C836.907 193.541 836.747 193.501 836.627 193.421C836.507 193.341 836.392 193.211 836.282 193.031L831.482 184.811H831.812L830.552 192.836C830.522 193.076 830.442 193.256 830.312 193.376C830.192 193.486 830.007 193.541 829.757 193.541ZM843.529 193.541C843.279 193.541 843.094 193.461 842.974 193.301C842.864 193.141 842.829 192.921 842.869 192.641L844.204 184.166H841.159C840.939 184.166 840.764 184.121 840.634 184.031C840.514 183.931 840.454 183.796 840.454 183.626C840.454 183.386 840.524 183.201 840.664 183.071C840.814 182.931 841.004 182.861 841.234 182.861H849.019C849.249 182.861 849.424 182.906 849.544 182.996C849.664 183.086 849.724 183.216 849.724 183.386C849.724 183.636 849.654 183.831 849.514 183.971C849.374 184.101 849.184 184.166 848.944 184.166H845.764L844.399 192.776C844.359 193.026 844.264 193.216 844.114 193.346C843.974 193.476 843.779 193.541 843.529 193.541Z" fill="#333638"/>
<rect x="702.5" y="154.936" width="170" height="67" rx="8.5" stroke="#333638" stroke-width="3" stroke-linecap="round"/>
<rect x="398.5" y="1.93555" width="163" height="67" rx="8.5" fill="#F9FAFA"/>
<path d="M423.469 40.5405C423.219 40.5405 423.034 40.4605 422.914 40.3005C422.804 40.1405 422.764 39.9205 422.794 39.6405L424.234 30.6255C424.274 30.3655 424.369 30.1755 424.519 30.0555C424.669 29.9255 424.869 29.8605 425.119 29.8605H428.299C429.419 29.8605 430.279 30.1055 430.879 30.5955C431.479 31.0855 431.779 31.8055 431.779 32.7555C431.779 33.8555 431.434 34.7255 430.744 35.3655C430.054 36.0055 429.049 36.3255 427.729 36.3255H424.864L424.324 39.7755C424.284 40.0355 424.194 40.2305 424.054 40.3605C423.914 40.4805 423.719 40.5405 423.469 40.5405ZM425.074 35.0805H427.819C428.619 35.0805 429.224 34.8905 429.634 34.5105C430.054 34.1305 430.264 33.5805 430.264 32.8605C430.264 32.2605 430.084 31.8205 429.724 31.5405C429.374 31.2505 428.844 31.1055 428.134 31.1055H425.704L425.074 35.0805ZM433.213 40.4355C432.923 40.4355 432.708 40.3605 432.568 40.2105C432.438 40.0505 432.393 39.8255 432.433 39.5355L433.858 30.6255C433.898 30.3655 433.993 30.1755 434.143 30.0555C434.293 29.9255 434.493 29.8605 434.743 29.8605H440.173C440.383 29.8605 440.543 29.9055 440.653 29.9955C440.773 30.0755 440.833 30.1955 440.833 30.3555C440.833 30.6055 440.763 30.7955 440.623 30.9255C440.493 31.0555 440.318 31.1205 440.098 31.1205H435.268L434.743 34.4355H439.138C439.348 34.4355 439.508 34.4805 439.618 34.5705C439.728 34.6505 439.783 34.7755 439.783 34.9455C439.783 35.1855 439.713 35.3705 439.573 35.5005C439.443 35.6305 439.268 35.6955 439.048 35.6955H434.548L433.978 39.1755H438.688C438.898 39.1755 439.058 39.2205 439.168 39.3105C439.288 39.3905 439.348 39.5155 439.348 39.6855C439.348 39.9255 439.278 40.1105 439.138 40.2405C439.008 40.3705 438.833 40.4355 438.613 40.4355H433.213ZM441.866 40.5405C441.646 40.5405 441.476 40.4655 441.356 40.3155C441.246 40.1655 441.211 39.9555 441.251 39.6855L442.721 30.4155C442.761 30.1855 442.846 30.0205 442.976 29.9205C443.106 29.8105 443.261 29.7555 443.441 29.7555C443.641 29.7555 443.791 29.7955 443.891 29.8755C444.001 29.9455 444.106 30.0655 444.206 30.2355L449.006 38.4855H448.676L449.936 30.4605C449.976 30.2205 450.066 30.0455 450.206 29.9355C450.346 29.8155 450.536 29.7555 450.776 29.7555C450.996 29.7555 451.156 29.8305 451.256 29.9805C451.356 30.1305 451.386 30.3355 451.346 30.5955L449.876 39.8655C449.846 40.0955 449.776 40.2655 449.666 40.3755C449.556 40.4855 449.406 40.5405 449.216 40.5405C449.016 40.5405 448.856 40.5005 448.736 40.4205C448.616 40.3405 448.501 40.2105 448.391 40.0305L443.591 31.8105H443.921L442.661 39.8355C442.631 40.0755 442.551 40.2555 442.421 40.3755C442.301 40.4855 442.116 40.5405 441.866 40.5405ZM453.179 40.4355C452.899 40.4355 452.689 40.3555 452.549 40.1955C452.419 40.0355 452.374 39.8155 452.414 39.5355L453.839 30.6255C453.879 30.3655 453.974 30.1755 454.124 30.0555C454.274 29.9255 454.474 29.8605 454.724 29.8605H457.184C458.824 29.8605 460.089 30.2505 460.979 31.0305C461.869 31.8105 462.314 32.9105 462.314 34.3305C462.314 35.1805 462.194 35.9755 461.954 36.7155C461.714 37.4455 461.344 38.0905 460.844 38.6505C460.344 39.2105 459.719 39.6505 458.969 39.9705C458.219 40.2805 457.329 40.4355 456.299 40.4355H453.179ZM454.034 39.1305H456.329C457.099 39.1305 457.759 39.0105 458.309 38.7705C458.869 38.5205 459.324 38.1805 459.674 37.7505C460.024 37.3105 460.279 36.8005 460.439 36.2205C460.609 35.6305 460.694 35.0055 460.694 34.3455C460.694 33.3055 460.399 32.5155 459.809 31.9755C459.219 31.4355 458.344 31.1655 457.184 31.1655H455.294L454.034 39.1305ZM464.338 40.5405C464.068 40.5405 463.878 40.4605 463.768 40.3005C463.658 40.1405 463.623 39.9155 463.663 39.6255L465.118 30.5205C465.158 30.2705 465.248 30.0805 465.388 29.9505C465.528 29.8205 465.728 29.7555 465.988 29.7555C466.248 29.7555 466.433 29.8355 466.543 29.9955C466.653 30.1455 466.683 30.3705 466.633 30.6705L465.193 39.7605C465.153 40.0105 465.063 40.2055 464.923 40.3455C464.793 40.4755 464.598 40.5405 464.338 40.5405ZM468.292 40.5405C468.072 40.5405 467.902 40.4655 467.782 40.3155C467.672 40.1655 467.637 39.9555 467.677 39.6855L469.147 30.4155C469.187 30.1855 469.272 30.0205 469.402 29.9205C469.532 29.8105 469.687 29.7555 469.867 29.7555C470.067 29.7555 470.217 29.7955 470.317 29.8755C470.427 29.9455 470.532 30.0655 470.632 30.2355L475.432 38.4855H475.102L476.362 30.4605C476.402 30.2205 476.492 30.0455 476.632 29.9355C476.772 29.8155 476.962 29.7555 477.202 29.7555C477.422 29.7555 477.582 29.8305 477.682 29.9805C477.782 30.1305 477.812 30.3355 477.772 30.5955L476.302 39.8655C476.272 40.0955 476.202 40.2655 476.092 40.3755C475.982 40.4855 475.832 40.5405 475.642 40.5405C475.442 40.5405 475.282 40.5005 475.162 40.4205C475.042 40.3405 474.927 40.2105 474.817 40.0305L470.017 31.8105H470.347L469.087 39.8355C469.057 40.0755 468.977 40.2555 468.847 40.3755C468.727 40.4855 468.542 40.5405 468.292 40.5405ZM483.954 40.5705C482.974 40.5705 482.124 40.3955 481.404 40.0455C480.684 39.6955 480.124 39.1755 479.724 38.4855C479.334 37.7955 479.139 36.9505 479.139 35.9505C479.139 35.0305 479.269 34.1955 479.529 33.4455C479.789 32.6855 480.164 32.0255 480.654 31.4655C481.144 30.9055 481.739 30.4755 482.439 30.1755C483.139 29.8755 483.934 29.7255 484.824 29.7255C485.454 29.7255 486.039 29.8055 486.579 29.9655C487.129 30.1255 487.599 30.3555 487.989 30.6555C488.149 30.7655 488.249 30.8955 488.289 31.0455C488.339 31.1955 488.344 31.3455 488.304 31.4955C488.264 31.6355 488.194 31.7555 488.094 31.8555C487.994 31.9555 487.874 32.0155 487.734 32.0355C487.594 32.0455 487.444 31.9955 487.284 31.8855C486.934 31.6055 486.544 31.4055 486.114 31.2855C485.694 31.1555 485.234 31.0905 484.734 31.0905C483.904 31.0905 483.194 31.2955 482.604 31.7055C482.014 32.1155 481.559 32.6805 481.239 33.4005C480.929 34.1205 480.774 34.9505 480.774 35.8905C480.774 37.0205 481.064 37.8605 481.644 38.4105C482.224 38.9505 483.059 39.2205 484.149 39.2205C484.599 39.2205 485.019 39.1805 485.409 39.1005C485.809 39.0205 486.189 38.9155 486.549 38.7855L486.129 39.5055L486.699 36.0105H484.764C484.564 36.0105 484.404 35.9655 484.284 35.8755C484.164 35.7855 484.104 35.6605 484.104 35.5005C484.104 35.2905 484.169 35.1305 484.299 35.0205C484.439 34.9005 484.619 34.8405 484.839 34.8405H487.419C487.659 34.8405 487.834 34.9055 487.944 35.0355C488.064 35.1655 488.104 35.3505 488.064 35.5905L487.479 39.3705C487.439 39.5605 487.374 39.7155 487.284 39.8355C487.204 39.9455 487.074 40.0355 486.894 40.1055C486.504 40.2555 486.044 40.3705 485.514 40.4505C484.984 40.5305 484.464 40.5705 483.954 40.5705ZM497.456 40.5705C497.016 40.5705 496.581 40.5405 496.151 40.4805C495.721 40.4205 495.306 40.3205 494.906 40.1805C494.506 40.0305 494.136 39.8405 493.796 39.6105C493.646 39.5205 493.541 39.4055 493.481 39.2655C493.431 39.1255 493.421 38.9905 493.451 38.8605C493.481 38.7205 493.541 38.6005 493.631 38.5005C493.721 38.4005 493.836 38.3405 493.976 38.3205C494.126 38.3005 494.286 38.3405 494.456 38.4405C494.936 38.7405 495.436 38.9505 495.956 39.0705C496.486 39.1905 497.031 39.2505 497.591 39.2505C498.341 39.2505 498.941 39.1005 499.391 38.8005C499.851 38.4905 500.081 38.0755 500.081 37.5555C500.081 37.1855 499.946 36.8705 499.676 36.6105C499.406 36.3505 498.941 36.1505 498.281 36.0105L496.691 35.6205C495.981 35.4505 495.411 35.1555 494.981 34.7355C494.561 34.3055 494.351 33.7155 494.351 32.9655C494.351 32.4655 494.456 32.0155 494.666 31.6155C494.876 31.2155 495.171 30.8755 495.551 30.5955C495.931 30.3055 496.366 30.0905 496.856 29.9505C497.346 29.8005 497.866 29.7255 498.416 29.7255C498.976 29.7255 499.556 29.8055 500.156 29.9655C500.766 30.1155 501.306 30.3705 501.776 30.7305C501.916 30.8305 502.006 30.9505 502.046 31.0905C502.096 31.2305 502.106 31.3705 502.076 31.5105C502.046 31.6405 501.986 31.7505 501.896 31.8405C501.806 31.9205 501.686 31.9655 501.536 31.9755C501.396 31.9855 501.226 31.9305 501.026 31.8105C500.656 31.5505 500.236 31.3605 499.766 31.2405C499.306 31.1105 498.846 31.0455 498.386 31.0455C497.906 31.0455 497.476 31.1205 497.096 31.2705C496.726 31.4205 496.431 31.6305 496.211 31.9005C496.001 32.1605 495.896 32.4755 495.896 32.8455C495.896 33.2955 496.016 33.6305 496.256 33.8505C496.496 34.0705 496.851 34.2405 497.321 34.3605L498.911 34.7505C499.831 34.9605 500.511 35.2905 500.951 35.7405C501.401 36.1905 501.626 36.7355 501.626 37.3755C501.626 37.9055 501.516 38.3705 501.296 38.7705C501.076 39.1705 500.771 39.5055 500.381 39.7755C500.001 40.0355 499.561 40.2355 499.061 40.3755C498.561 40.5055 498.026 40.5705 497.456 40.5705ZM506.103 40.5405C505.853 40.5405 505.668 40.4605 505.548 40.3005C505.438 40.1405 505.403 39.9205 505.443 39.6405L506.778 31.1655H503.733C503.513 31.1655 503.338 31.1205 503.208 31.0305C503.088 30.9305 503.028 30.7955 503.028 30.6255C503.028 30.3855 503.098 30.2005 503.238 30.0705C503.388 29.9305 503.578 29.8605 503.808 29.8605H511.593C511.823 29.8605 511.998 29.9055 512.118 29.9955C512.238 30.0855 512.298 30.2155 512.298 30.3855C512.298 30.6355 512.228 30.8305 512.088 30.9705C511.948 31.1005 511.758 31.1655 511.518 31.1655H508.338L506.973 39.7755C506.933 40.0255 506.838 40.2155 506.688 40.3455C506.548 40.4755 506.353 40.5405 506.103 40.5405ZM510.77 40.5405C510.59 40.5405 510.435 40.5005 510.305 40.4205C510.185 40.3305 510.115 40.2155 510.095 40.0755C510.065 39.9255 510.1 39.7605 510.2 39.5805L515.825 30.2805C515.945 30.1005 516.07 29.9705 516.2 29.8905C516.34 29.8005 516.515 29.7555 516.725 29.7555C516.935 29.7555 517.105 29.8055 517.235 29.9055C517.375 30.0055 517.475 30.1605 517.535 30.3705L520.145 39.5355C520.215 39.7655 520.23 39.9555 520.19 40.1055C520.15 40.2555 520.07 40.3655 519.95 40.4355C519.84 40.5055 519.705 40.5405 519.545 40.5405C519.325 40.5405 519.15 40.4855 519.02 40.3755C518.9 40.2555 518.81 40.0805 518.75 39.8505L518.135 37.5255L518.66 37.8555H512.36L513.035 37.5555L511.55 40.0755C511.47 40.2355 511.365 40.3555 511.235 40.4355C511.105 40.5055 510.95 40.5405 510.77 40.5405ZM516.53 31.5855L513.44 36.8655L513.095 36.5955H518.33L517.955 36.8805L516.56 31.5855H516.53ZM524.003 40.5405C523.753 40.5405 523.568 40.4605 523.448 40.3005C523.338 40.1405 523.303 39.9205 523.343 39.6405L524.678 31.1655H521.633C521.413 31.1655 521.238 31.1205 521.108 31.0305C520.988 30.9305 520.928 30.7955 520.928 30.6255C520.928 30.3855 520.998 30.2005 521.138 30.0705C521.288 29.9305 521.478 29.8605 521.708 29.8605H529.493C529.723 29.8605 529.898 29.9055 530.018 29.9955C530.138 30.0855 530.198 30.2155 530.198 30.3855C530.198 30.6355 530.128 30.8305 529.988 30.9705C529.848 31.1005 529.658 31.1655 529.418 31.1655H526.238L524.873 39.7755C524.833 40.0255 524.738 40.2155 524.588 40.3455C524.448 40.4755 524.253 40.5405 524.003 40.5405ZM530.728 40.4355C530.438 40.4355 530.223 40.3605 530.083 40.2105C529.953 40.0505 529.908 39.8255 529.948 39.5355L531.373 30.6255C531.413 30.3655 531.508 30.1755 531.658 30.0555C531.808 29.9255 532.008 29.8605 532.258 29.8605H537.688C537.898 29.8605 538.058 29.9055 538.168 29.9955C538.288 30.0755 538.348 30.1955 538.348 30.3555C538.348 30.6055 538.278 30.7955 538.138 30.9255C538.008 31.0555 537.833 31.1205 537.613 31.1205H532.783L532.258 34.4355H536.653C536.863 34.4355 537.023 34.4805 537.133 34.5705C537.243 34.6505 537.298 34.7755 537.298 34.9455C537.298 35.1855 537.228 35.3705 537.088 35.5005C536.958 35.6305 536.783 35.6955 536.563 35.6955H532.063L531.493 39.1755H536.203C536.413 39.1755 536.573 39.2205 536.683 39.3105C536.803 39.3905 536.863 39.5155 536.863 39.6855C536.863 39.9255 536.793 40.1105 536.653 40.2405C536.523 40.3705 536.348 40.4355 536.128 40.4355H530.728Z" fill="#646464"/>
<rect x="398.5" y="1.93555" width="163" height="67" rx="8.5" stroke="#333638" stroke-width="3" stroke-linecap="round" stroke-dasharray="6 12"/>
<path d="M187 33.9355C186.172 33.9355 185.5 34.6071 185.5 35.4355C185.5 36.264 186.172 36.9355 187 36.9355V33.9355ZM394.061 36.4962C394.646 35.9104 394.646 34.9607 394.061 34.3749L384.515 24.8289C383.929 24.2432 382.979 24.2432 382.393 24.8289C381.808 25.4147 381.808 26.3645 382.393 26.9503L390.879 35.4355L382.393 43.9208C381.808 44.5066 381.808 45.4564 382.393 46.0421C382.979 46.6279 383.929 46.6279 384.515 46.0421L394.061 36.4962ZM187 36.9355H216V33.9355H187V36.9355ZM364 36.9355H393V33.9355H364V36.9355Z" fill="#F24822"/>
<path d="M230.009 28.3614V41.9355H227.961V28.3614H230.009ZM234.815 35.8908V41.9355H232.833V31.755H234.735V33.412H234.861C235.095 32.8729 235.462 32.4399 235.961 32.1129C236.465 31.7859 237.099 31.6224 237.864 31.6224C238.557 31.6224 239.165 31.7682 239.686 32.0599C240.208 32.3471 240.612 32.7757 240.899 33.3457C241.186 33.9157 241.33 34.6205 241.33 35.46V41.9355H239.348V35.6986C239.348 34.9607 239.156 34.3841 238.772 33.9687C238.387 33.5489 237.859 33.3391 237.187 33.3391C236.728 33.3391 236.319 33.4385 235.961 33.6373C235.608 33.8362 235.327 34.1278 235.12 34.5122C234.916 34.8922 234.815 35.3518 234.815 35.8908ZM243.988 41.9355V31.755H245.97V41.9355H243.988ZM244.989 30.1841C244.644 30.1841 244.348 30.0693 244.1 29.8395C243.857 29.6053 243.736 29.3269 243.736 29.0044C243.736 28.6774 243.857 28.399 244.1 28.1692C244.348 27.935 244.644 27.818 244.989 27.818C245.333 27.818 245.627 27.935 245.87 28.1692C246.118 28.399 246.241 28.6774 246.241 29.0044C246.241 29.3269 246.118 29.6053 245.87 29.8395C245.627 30.0693 245.333 30.1841 244.989 30.1841ZM253.388 31.755V33.3457H247.827V31.755H253.388ZM249.318 29.3159H251.3V38.9463C251.3 39.3308 251.358 39.6202 251.472 39.8146C251.587 40.0046 251.735 40.1349 251.916 40.2056C252.102 40.2719 252.303 40.3051 252.52 40.3051C252.679 40.3051 252.818 40.294 252.937 40.2719C253.056 40.2498 253.149 40.2322 253.216 40.2189L253.573 41.856C253.459 41.9002 253.295 41.9444 253.083 41.9886C252.871 42.0372 252.606 42.0637 252.288 42.0681C251.766 42.0769 251.28 41.9842 250.829 41.7897C250.379 41.5953 250.014 41.2948 249.736 40.8883C249.457 40.4818 249.318 39.9715 249.318 39.3573V29.3159ZM255.58 41.9355V31.755H257.562V41.9355H255.58ZM256.581 30.1841C256.236 30.1841 255.94 30.0693 255.693 29.8395C255.45 29.6053 255.328 29.3269 255.328 29.0044C255.328 28.6774 255.45 28.399 255.693 28.1692C255.94 27.935 256.236 27.818 256.581 27.818C256.926 27.818 257.219 27.935 257.462 28.1692C257.71 28.399 257.834 28.6774 257.834 29.0044C257.834 29.3269 257.71 29.6053 257.462 29.8395C257.219 30.0693 256.926 30.1841 256.581 30.1841ZM263.191 42.1609C262.546 42.1609 261.962 42.0416 261.441 41.803C260.919 41.56 260.506 41.2087 260.201 40.7491C259.901 40.2896 259.751 39.7262 259.751 39.059C259.751 38.4846 259.861 38.0118 260.082 37.6406C260.303 37.2695 260.601 36.9756 260.977 36.7591C261.353 36.5426 261.772 36.3791 262.236 36.2686C262.7 36.1582 263.173 36.0742 263.655 36.0168C264.264 35.9461 264.759 35.8886 265.139 35.8444C265.519 35.7958 265.795 35.7185 265.968 35.6125C266.14 35.5064 266.226 35.3341 266.226 35.0955V35.0491C266.226 34.4702 266.063 34.0217 265.736 33.7036C265.413 33.3855 264.932 33.2264 264.291 33.2264C263.624 33.2264 263.098 33.3744 262.713 33.6705C262.333 33.9621 262.071 34.2869 261.925 34.6448L260.062 34.2206C260.283 33.602 260.606 33.1027 261.03 32.7227C261.459 32.3382 261.951 32.0599 262.508 31.8875C263.065 31.7108 263.65 31.6224 264.264 31.6224C264.671 31.6224 265.102 31.671 265.557 31.7682C266.016 31.861 266.445 32.0333 266.843 32.2852C267.245 32.5371 267.574 32.8972 267.83 33.3656C268.087 33.8295 268.215 34.4327 268.215 35.175V41.9355H266.279V40.5437H266.2C266.072 40.8 265.879 41.0518 265.623 41.2993C265.367 41.5467 265.038 41.7522 264.636 41.9157C264.233 42.0792 263.752 42.1609 263.191 42.1609ZM263.621 40.5702C264.169 40.5702 264.638 40.4619 265.027 40.2454C265.42 40.0289 265.718 39.7461 265.921 39.397C266.129 39.0435 266.233 38.6657 266.233 38.2636V36.9513C266.162 37.022 266.025 37.0883 265.822 37.1501C265.623 37.2076 265.396 37.2584 265.139 37.3026C264.883 37.3424 264.633 37.3799 264.39 37.4153C264.147 37.4462 263.944 37.4727 263.781 37.4948C263.396 37.5434 263.045 37.6252 262.727 37.74C262.413 37.8549 262.161 38.0206 261.971 38.2371C261.786 38.4492 261.693 38.732 261.693 39.0855C261.693 39.576 261.874 39.9472 262.236 40.199C262.599 40.4465 263.06 40.5702 263.621 40.5702ZM275.607 31.755V33.3457H270.046V31.755H275.607ZM271.537 29.3159H273.519V38.9463C273.519 39.3308 273.576 39.6202 273.691 39.8146C273.806 40.0046 273.954 40.1349 274.135 40.2056C274.321 40.2719 274.522 40.3051 274.738 40.3051C274.897 40.3051 275.037 40.294 275.156 40.2719C275.275 40.2498 275.368 40.2322 275.434 40.2189L275.792 41.856C275.677 41.9002 275.514 41.9444 275.302 41.9886C275.09 42.0372 274.824 42.0637 274.506 42.0681C273.985 42.0769 273.499 41.9842 273.048 41.7897C272.597 41.5953 272.233 41.2948 271.955 40.8883C271.676 40.4818 271.537 39.9715 271.537 39.3573V29.3159ZM282.077 42.141C281.074 42.141 280.21 41.9267 279.486 41.4981C278.765 41.0651 278.209 40.4575 277.815 39.6754C277.426 38.8889 277.232 37.9676 277.232 36.9115C277.232 35.8687 277.426 34.9497 277.815 34.1543C278.209 33.3589 278.756 32.7381 279.459 32.2918C280.166 31.8456 280.992 31.6224 281.938 31.6224C282.512 31.6224 283.069 31.7174 283.608 31.9074C284.147 32.0974 284.631 32.3957 285.06 32.8022C285.488 33.2087 285.826 33.7367 286.074 34.3863C286.321 35.0314 286.445 35.8157 286.445 36.7392V37.4418H278.352V35.9571H284.503C284.503 35.4357 284.397 34.974 284.185 34.5719C283.973 34.1653 283.674 33.845 283.29 33.6108C282.91 33.3766 282.464 33.2595 281.951 33.2595C281.394 33.2595 280.908 33.3965 280.493 33.6705C280.082 33.94 279.764 34.2935 279.539 34.7309C279.318 35.164 279.207 35.6345 279.207 36.1427V37.3026C279.207 37.9831 279.326 38.5619 279.565 39.0391C279.808 39.5163 280.146 39.8809 280.579 40.1327C281.012 40.3802 281.518 40.5039 282.097 40.5039C282.473 40.5039 282.815 40.4509 283.124 40.3448C283.434 40.2344 283.701 40.0709 283.926 39.8544C284.152 39.6378 284.324 39.3705 284.443 39.0524L286.319 39.3904C286.169 39.9427 285.899 40.4266 285.51 40.8419C285.126 41.2529 284.642 41.5732 284.059 41.803C283.48 42.0283 282.819 42.141 282.077 42.141ZM299.582 34.2869V36.0101H293.563V34.2869H299.582ZM311.716 41.9355H307.321V28.3614H311.855C313.185 28.3614 314.327 28.6332 315.282 29.1767C316.236 29.7158 316.967 30.4912 317.475 31.5031C317.988 32.5106 318.244 33.7191 318.244 35.1286C318.244 36.5426 317.986 37.7577 317.469 38.774C316.956 39.7903 316.214 40.5724 315.242 41.1203C314.27 41.6638 313.094 41.9355 311.716 41.9355ZM309.369 40.146H311.603C312.637 40.146 313.496 39.9516 314.181 39.5627C314.866 39.1695 315.379 38.6017 315.719 37.8593C316.059 37.1126 316.229 36.2023 316.229 35.1286C316.229 34.0637 316.059 33.1601 315.719 32.4178C315.383 31.6754 314.882 31.1121 314.214 30.7276C313.547 30.3432 312.719 30.151 311.729 30.151H309.369V40.146ZM325.02 42.141C324.017 42.141 323.153 41.9267 322.428 41.4981C321.708 41.0651 321.151 40.4575 320.758 39.6754C320.369 38.8889 320.175 37.9676 320.175 36.9115C320.175 35.8687 320.369 34.9497 320.758 34.1543C321.151 33.3589 321.699 32.7381 322.402 32.2918C323.109 31.8456 323.935 31.6224 324.881 31.6224C325.455 31.6224 326.012 31.7174 326.551 31.9074C327.09 32.0974 327.574 32.3957 328.002 32.8022C328.431 33.2087 328.769 33.7367 329.016 34.3863C329.264 35.0314 329.388 35.8157 329.388 36.7392V37.4418H321.295V35.9571H327.446C327.446 35.4357 327.34 34.974 327.127 34.5719C326.915 34.1653 326.617 33.845 326.233 33.6108C325.853 33.3766 325.406 33.2595 324.894 33.2595C324.337 33.2595 323.851 33.3965 323.436 33.6705C323.025 33.94 322.707 34.2935 322.481 34.7309C322.26 35.164 322.15 35.6345 322.15 36.1427V37.3026C322.15 37.9831 322.269 38.5619 322.508 39.0391C322.751 39.5163 323.089 39.8809 323.522 40.1327C323.955 40.3802 324.461 40.5039 325.04 40.5039C325.415 40.5039 325.758 40.4509 326.067 40.3448C326.376 40.2344 326.644 40.0709 326.869 39.8544C327.094 39.6378 327.267 39.3705 327.386 39.0524L329.262 39.3904C329.111 39.9427 328.842 40.4266 328.453 40.8419C328.069 41.2529 327.585 41.5732 327.002 41.803C326.423 42.0283 325.762 42.141 325.02 42.141ZM331.745 41.9355V28.3614H333.727V33.4053H333.847C333.961 33.1932 334.127 32.948 334.344 32.6696C334.56 32.3913 334.861 32.1482 335.245 31.9406C335.629 31.7285 336.138 31.6224 336.769 31.6224C337.591 31.6224 338.325 31.8301 338.97 32.2454C339.615 32.6608 340.121 33.2595 340.488 34.0416C340.859 34.8237 341.045 35.7649 341.045 36.8651C341.045 37.9654 340.861 38.9088 340.494 39.6953C340.128 40.4774 339.624 41.0805 338.983 41.5047C338.343 41.9245 337.611 42.1344 336.789 42.1344C336.171 42.1344 335.665 42.0305 335.272 41.8229C334.883 41.6152 334.578 41.3722 334.357 41.0938C334.136 40.8154 333.966 40.568 333.847 40.3515H333.681V41.9355H331.745ZM333.687 36.8453C333.687 37.5611 333.791 38.1885 333.999 38.7276C334.207 39.2667 334.507 39.6887 334.9 39.9935C335.294 40.294 335.775 40.4443 336.345 40.4443C336.937 40.4443 337.432 40.2874 337.83 39.9737C338.228 39.6555 338.528 39.2247 338.731 38.6812C338.939 38.1377 339.043 37.5257 339.043 36.8453C339.043 36.1736 338.941 35.5705 338.738 35.0358C338.539 34.5012 338.239 34.0792 337.837 33.7699C337.439 33.4606 336.942 33.3059 336.345 33.3059C335.771 33.3059 335.285 33.4539 334.887 33.75C334.494 34.046 334.196 34.4592 333.992 34.9894C333.789 35.5197 333.687 36.1383 333.687 36.8453ZM343.27 41.9355V31.755H345.252V41.9355H343.27ZM344.271 30.1841C343.926 30.1841 343.63 30.0693 343.383 29.8395C343.14 29.6053 343.018 29.3269 343.018 29.0044C343.018 28.6774 343.14 28.399 343.383 28.1692C343.63 27.935 343.926 27.818 344.271 27.818C344.615 27.818 344.909 27.935 345.152 28.1692C345.4 28.399 345.523 28.6774 345.523 29.0044C345.523 29.3269 345.4 29.6053 345.152 29.8395C344.909 30.0693 344.615 30.1841 344.271 30.1841ZM352.67 31.755V33.3457H347.109V31.755H352.67ZM348.6 29.3159H350.582V38.9463C350.582 39.3308 350.64 39.6202 350.755 39.8146C350.869 40.0046 351.017 40.1349 351.199 40.2056C351.384 40.2719 351.585 40.3051 351.802 40.3051C351.961 40.3051 352.1 40.294 352.219 40.2719C352.339 40.2498 352.431 40.2322 352.498 40.2189L352.856 41.856C352.741 41.9002 352.577 41.9444 352.365 41.9886C352.153 42.0372 351.888 42.0637 351.57 42.0681C351.048 42.0769 350.562 41.9842 350.112 41.7897C349.661 41.5953 349.296 41.2948 349.018 40.8883C348.74 40.4818 348.6 39.9715 348.6 39.3573V29.3159Z" fill="black" fill-opacity="0.8"/>
<path d="M481.5 74C481.5 73.1716 480.828 72.5 480 72.5C479.172 72.5 478.5 73.1716 478.5 74H481.5ZM92.5607 72.9393C91.9749 72.3536 91.0251 72.3536 90.4393 72.9393L80.8934 82.4853C80.3076 83.0711 80.3076 84.0208 80.8934 84.6066C81.4792 85.1924 82.4289 85.1924 83.0147 84.6066L91.5 76.1213L99.9853 84.6066C100.571 85.1924 101.521 85.1924 102.107 84.6066C102.692 84.0208 102.692 83.0711 102.107 82.4853L92.5607 72.9393ZM478.5 74V193.436H481.5V74H478.5ZM456 215.936H397.25V218.936H456V215.936ZM174.25 215.936H115.5V218.936H174.25V215.936ZM93 193.436V74H90V193.436H93ZM115.5 215.936C103.074 215.936 93 205.862 93 193.436H90C90 207.519 101.417 218.936 115.5 218.936V215.936ZM478.5 193.436C478.5 205.862 468.426 215.936 456 215.936V218.936C470.083 218.936 481.5 207.519 481.5 193.436H478.5Z" fill="#0D99FF"/>
<path d="M185.781 223.936V210.361H190.619C191.671 210.361 192.544 210.543 193.238 210.905C193.936 211.267 194.457 211.769 194.802 212.409C195.146 213.046 195.319 213.781 195.319 214.617C195.319 215.447 195.144 216.179 194.795 216.81C194.45 217.438 193.929 217.926 193.231 218.275C192.537 218.624 191.664 218.799 190.613 218.799H186.948V217.036H190.427C191.09 217.036 191.629 216.941 192.044 216.751C192.464 216.561 192.771 216.285 192.966 215.922C193.16 215.56 193.257 215.125 193.257 214.617C193.257 214.104 193.158 213.66 192.959 213.284C192.765 212.909 192.458 212.622 192.038 212.423C191.623 212.219 191.077 212.118 190.401 212.118H187.829V223.936H185.781ZM192.482 217.811L195.836 223.936H193.503L190.215 217.811H192.482ZM201.912 224.141C200.909 224.141 200.045 223.927 199.32 223.498C198.6 223.065 198.043 222.458 197.65 221.675C197.261 220.889 197.067 219.968 197.067 218.912C197.067 217.869 197.261 216.95 197.65 216.154C198.043 215.359 198.591 214.738 199.294 214.292C200.001 213.846 200.827 213.622 201.773 213.622C202.347 213.622 202.904 213.717 203.443 213.907C203.982 214.097 204.466 214.396 204.894 214.802C205.323 215.209 205.661 215.737 205.909 216.386C206.156 217.031 206.28 217.816 206.28 218.739V219.442H198.187V217.957H204.338C204.338 217.436 204.232 216.974 204.02 216.572C203.807 216.165 203.509 215.845 203.125 215.611C202.745 215.377 202.299 215.26 201.786 215.26C201.229 215.26 200.743 215.397 200.328 215.67C199.917 215.94 199.599 216.293 199.373 216.731C199.152 217.164 199.042 217.635 199.042 218.143V219.303C199.042 219.983 199.161 220.562 199.4 221.039C199.643 221.516 199.981 221.881 200.414 222.133C200.847 222.38 201.353 222.504 201.932 222.504C202.307 222.504 202.65 222.451 202.959 222.345C203.268 222.234 203.536 222.071 203.761 221.854C203.986 221.638 204.159 221.371 204.278 221.052L206.154 221.39C206.004 221.943 205.734 222.427 205.345 222.842C204.961 223.253 204.477 223.573 203.894 223.803C203.315 224.028 202.654 224.141 201.912 224.141ZM208.479 213.755H210.46V224.598C210.46 225.279 210.337 225.853 210.089 226.322C209.846 226.79 209.484 227.146 209.002 227.389C208.525 227.632 207.935 227.753 207.232 227.753C207.162 227.753 207.096 227.753 207.034 227.753C206.967 227.753 206.899 227.751 206.828 227.747V226.043C206.89 226.043 206.945 226.043 206.994 226.043C207.038 226.043 207.089 226.043 207.146 226.043C207.615 226.043 207.953 225.917 208.16 225.665C208.373 225.418 208.479 225.058 208.479 224.585V213.755ZM209.459 212.184C209.115 212.184 208.819 212.069 208.571 211.839C208.328 211.605 208.207 211.327 208.207 211.004C208.207 210.677 208.328 210.399 208.571 210.169C208.819 209.935 209.115 209.818 209.459 209.818C209.804 209.818 210.098 209.935 210.341 210.169C210.588 210.399 210.712 210.677 210.712 211.004C210.712 211.327 210.588 211.605 210.341 211.839C210.098 212.069 209.804 212.184 209.459 212.184ZM217.514 224.141C216.511 224.141 215.647 223.927 214.923 223.498C214.202 223.065 213.646 222.458 213.252 221.675C212.864 220.889 212.669 219.968 212.669 218.912C212.669 217.869 212.864 216.95 213.252 216.154C213.646 215.359 214.194 214.738 214.896 214.292C215.603 213.846 216.429 213.622 217.375 213.622C217.949 213.622 218.506 213.717 219.045 213.907C219.584 214.097 220.068 214.396 220.497 214.802C220.925 215.209 221.263 215.737 221.511 216.386C221.758 217.031 221.882 217.816 221.882 218.739V219.442H213.789V217.957H219.94C219.94 217.436 219.834 216.974 219.622 216.572C219.41 216.165 219.111 215.845 218.727 215.611C218.347 215.377 217.901 215.26 217.388 215.26C216.831 215.26 216.345 215.397 215.93 215.67C215.519 215.94 215.201 216.293 214.976 216.731C214.755 217.164 214.644 217.635 214.644 218.143V219.303C214.644 219.983 214.764 220.562 215.002 221.039C215.245 221.516 215.583 221.881 216.016 222.133C216.449 222.38 216.955 222.504 217.534 222.504C217.91 222.504 218.252 222.451 218.561 222.345C218.871 222.234 219.138 222.071 219.363 221.854C219.589 221.638 219.761 221.371 219.88 221.052L221.756 221.39C221.606 221.943 221.336 222.427 220.947 222.842C220.563 223.253 220.079 223.573 219.496 223.803C218.917 224.028 218.256 224.141 217.514 224.141ZM228.369 224.141C227.384 224.141 226.535 223.918 225.824 223.472C225.117 223.021 224.573 222.4 224.193 221.609C223.813 220.818 223.623 219.912 223.623 218.892C223.623 217.858 223.818 216.945 224.207 216.154C224.596 215.359 225.143 214.738 225.85 214.292C226.557 213.846 227.39 213.622 228.349 213.622C229.122 213.622 229.812 213.766 230.417 214.053C231.023 214.336 231.511 214.734 231.882 215.246C232.258 215.759 232.481 216.358 232.551 217.042H230.623C230.517 216.565 230.274 216.154 229.894 215.81C229.518 215.465 229.014 215.293 228.382 215.293C227.83 215.293 227.346 215.438 226.931 215.73C226.52 216.017 226.2 216.428 225.97 216.963C225.74 217.493 225.625 218.121 225.625 218.845C225.625 219.588 225.738 220.228 225.963 220.767C226.189 221.306 226.507 221.724 226.918 222.02C227.333 222.316 227.821 222.464 228.382 222.464C228.758 222.464 229.098 222.396 229.403 222.259C229.712 222.117 229.971 221.916 230.179 221.656C230.391 221.395 230.539 221.081 230.623 220.714H232.551C232.481 221.373 232.266 221.96 231.908 222.477C231.551 222.994 231.071 223.401 230.47 223.697C229.874 223.993 229.173 224.141 228.369 224.141ZM239.423 213.755V215.346H233.862V213.755H239.423ZM235.353 211.316H237.335V220.946C237.335 221.331 237.393 221.62 237.507 221.815C237.622 222.005 237.77 222.135 237.952 222.206C238.137 222.272 238.338 222.305 238.555 222.305C238.714 222.305 238.853 222.294 238.972 222.272C239.092 222.25 239.184 222.232 239.251 222.219L239.609 223.856C239.494 223.9 239.33 223.944 239.118 223.989C238.906 224.037 238.641 224.064 238.323 224.068C237.801 224.077 237.315 223.984 236.865 223.79C236.414 223.595 236.049 223.295 235.771 222.888C235.493 222.482 235.353 221.971 235.353 221.357V211.316ZM252.553 216.287V218.01H246.535V216.287H252.553ZM260.293 223.936V210.361H265.131C266.183 210.361 267.056 210.543 267.749 210.905C268.447 211.267 268.969 211.769 269.313 212.409C269.658 213.046 269.83 213.781 269.83 214.617C269.83 215.447 269.656 216.179 269.307 216.81C268.962 217.438 268.441 217.926 267.743 218.275C267.049 218.624 266.176 218.799 265.125 218.799H261.459V217.036H264.939C265.602 217.036 266.141 216.941 266.556 216.751C266.976 216.561 267.283 216.285 267.477 215.922C267.672 215.56 267.769 215.125 267.769 214.617C267.769 214.104 267.67 213.66 267.471 213.284C267.276 212.909 266.969 212.622 266.55 212.423C266.134 212.219 265.589 212.118 264.912 212.118H262.341V223.936H260.293ZM266.994 217.811L270.347 223.936H268.014L264.727 217.811H266.994ZM276.424 224.141C275.421 224.141 274.557 223.927 273.832 223.498C273.112 223.065 272.555 222.458 272.162 221.675C271.773 220.889 271.579 219.968 271.579 218.912C271.579 217.869 271.773 216.95 272.162 216.154C272.555 215.359 273.103 214.738 273.806 214.292C274.513 213.846 275.339 213.622 276.284 213.622C276.859 213.622 277.416 213.717 277.955 213.907C278.494 214.097 278.978 214.396 279.406 214.802C279.835 215.209 280.173 215.737 280.42 216.386C280.668 217.031 280.791 217.816 280.791 218.739V219.442H272.699V217.957H278.849C278.849 217.436 278.743 216.974 278.531 216.572C278.319 216.165 278.021 215.845 277.637 215.611C277.257 215.377 276.81 215.26 276.298 215.26C275.741 215.26 275.255 215.397 274.84 215.67C274.429 215.94 274.11 216.293 273.885 216.731C273.664 217.164 273.554 217.635 273.554 218.143V219.303C273.554 219.983 273.673 220.562 273.912 221.039C274.155 221.516 274.493 221.881 274.926 222.133C275.359 222.38 275.865 222.504 276.443 222.504C276.819 222.504 277.162 222.451 277.471 222.345C277.78 222.234 278.047 222.071 278.273 221.854C278.498 221.638 278.67 221.371 278.79 221.052L280.666 221.39C280.515 221.943 280.246 222.427 279.857 222.842C279.472 223.253 278.989 223.573 278.405 223.803C277.827 224.028 277.166 224.141 276.424 224.141ZM287.743 213.755V215.346H282.182V213.755H287.743ZM283.673 211.316H285.655V220.946C285.655 221.331 285.712 221.62 285.827 221.815C285.942 222.005 286.09 222.135 286.271 222.206C286.457 222.272 286.658 222.305 286.874 222.305C287.033 222.305 287.173 222.294 287.292 222.272C287.411 222.25 287.504 222.232 287.57 222.219L287.928 223.856C287.813 223.9 287.65 223.944 287.438 223.989C287.226 224.037 286.96 224.064 286.642 224.068C286.121 224.077 285.635 223.984 285.184 223.79C284.733 223.595 284.369 223.295 284.091 222.888C283.812 222.482 283.673 221.971 283.673 221.357V211.316ZM296.384 219.714V213.755H298.372V223.936H296.424V222.173H296.317C296.083 222.716 295.708 223.169 295.191 223.531C294.678 223.889 294.04 224.068 293.275 224.068C292.621 224.068 292.042 223.925 291.539 223.637C291.039 223.346 290.646 222.915 290.359 222.345C290.076 221.775 289.935 221.07 289.935 220.231V213.755H291.917V219.992C291.917 220.686 292.109 221.238 292.493 221.649C292.878 222.06 293.377 222.265 293.991 222.265C294.362 222.265 294.731 222.173 295.098 221.987C295.469 221.801 295.776 221.521 296.019 221.145C296.267 220.77 296.388 220.292 296.384 219.714ZM301.035 223.936V213.755H302.95V215.372H303.056C303.242 214.824 303.569 214.393 304.037 214.08C304.51 213.762 305.045 213.603 305.641 213.603C305.765 213.603 305.911 213.607 306.079 213.616C306.251 213.625 306.386 213.636 306.483 213.649V215.545C306.404 215.522 306.262 215.498 306.059 215.472C305.856 215.441 305.652 215.425 305.449 215.425C304.981 215.425 304.563 215.525 304.196 215.723C303.834 215.918 303.547 216.19 303.335 216.539C303.123 216.883 303.017 217.277 303.017 217.719V223.936H301.035ZM310.18 217.891V223.936H308.198V213.755H310.1V215.412H310.226C310.46 214.873 310.827 214.44 311.327 214.113C311.83 213.786 312.464 213.622 313.229 213.622C313.922 213.622 314.53 213.768 315.051 214.06C315.573 214.347 315.977 214.776 316.264 215.346C316.552 215.916 316.695 216.62 316.695 217.46V223.936H314.713V217.699C314.713 216.961 314.521 216.384 314.137 215.969C313.752 215.549 313.224 215.339 312.553 215.339C312.093 215.339 311.684 215.438 311.327 215.637C310.973 215.836 310.692 216.128 310.485 216.512C310.282 216.892 310.18 217.352 310.18 217.891ZM326.982 216.24L325.186 216.559C325.111 216.329 324.991 216.11 324.828 215.902C324.669 215.695 324.452 215.525 324.178 215.392C323.904 215.26 323.562 215.193 323.151 215.193C322.59 215.193 322.121 215.319 321.746 215.571C321.37 215.818 321.182 216.139 321.182 216.532C321.182 216.872 321.308 217.146 321.56 217.354C321.812 217.562 322.219 217.732 322.78 217.864L324.397 218.235C325.334 218.452 326.032 218.786 326.491 219.236C326.951 219.687 327.181 220.272 327.181 220.993C327.181 221.602 327.004 222.146 326.65 222.623C326.301 223.096 325.813 223.467 325.186 223.737C324.563 224.006 323.84 224.141 323.018 224.141C321.878 224.141 320.948 223.898 320.228 223.412C319.508 222.921 319.066 222.226 318.902 221.324L320.818 221.032C320.937 221.532 321.182 221.91 321.554 222.166C321.925 222.418 322.409 222.544 323.005 222.544C323.655 222.544 324.174 222.409 324.563 222.139C324.951 221.865 325.146 221.532 325.146 221.139C325.146 220.82 325.027 220.553 324.788 220.337C324.554 220.12 324.194 219.957 323.708 219.846L321.984 219.468C321.034 219.252 320.332 218.907 319.877 218.434C319.426 217.962 319.201 217.363 319.201 216.638C319.201 216.037 319.368 215.511 319.704 215.061C320.04 214.61 320.504 214.259 321.096 214.007C321.688 213.751 322.367 213.622 323.131 213.622C324.231 213.622 325.097 213.861 325.729 214.338C326.361 214.811 326.779 215.445 326.982 216.24ZM334.458 223.936V210.361H342.876V212.124H336.506V216.26H342.273V218.017H336.506V223.936H334.458ZM351.046 219.714V213.755H353.035V223.936H351.086V222.173H350.98C350.746 222.716 350.37 223.169 349.853 223.531C349.341 223.889 348.702 224.068 347.938 224.068C347.284 224.068 346.705 223.925 346.201 223.637C345.702 223.346 345.309 222.915 345.022 222.345C344.739 221.775 344.597 221.07 344.597 220.231V213.755H346.579V219.992C346.579 220.686 346.771 221.238 347.156 221.649C347.54 222.06 348.039 222.265 348.654 222.265C349.025 222.265 349.394 222.173 349.761 221.987C350.132 221.801 350.439 221.521 350.682 221.145C350.929 220.77 351.051 220.292 351.046 219.714ZM357.679 217.891V223.936H355.698V213.755H357.6V215.412H357.726C357.96 214.873 358.327 214.44 358.826 214.113C359.33 213.786 359.964 213.622 360.728 213.622C361.422 213.622 362.029 213.768 362.551 214.06C363.072 214.347 363.477 214.776 363.764 215.346C364.051 215.916 364.195 216.62 364.195 217.46V223.936H362.213V217.699C362.213 216.961 362.021 216.384 361.636 215.969C361.252 215.549 360.724 215.339 360.052 215.339C359.593 215.339 359.184 215.438 358.826 215.637C358.472 215.836 358.192 216.128 357.984 216.512C357.781 216.892 357.679 217.352 357.679 217.891ZM370.664 224.134C369.842 224.134 369.108 223.925 368.463 223.505C367.822 223.081 367.319 222.477 366.952 221.695C366.59 220.909 366.408 219.965 366.408 218.865C366.408 217.765 366.592 216.824 366.958 216.042C367.33 215.26 367.838 214.661 368.483 214.245C369.128 213.83 369.859 213.622 370.677 213.622C371.309 213.622 371.817 213.728 372.201 213.941C372.59 214.148 372.891 214.391 373.103 214.67C373.319 214.948 373.487 215.193 373.606 215.405H373.726V210.361H375.707V223.936H373.772V222.351H373.606C373.487 222.568 373.315 222.815 373.089 223.094C372.868 223.372 372.564 223.615 372.175 223.823C371.786 224.031 371.282 224.134 370.664 224.134ZM371.101 222.444C371.671 222.444 372.153 222.294 372.546 221.994C372.944 221.689 373.244 221.267 373.447 220.728C373.655 220.189 373.759 219.561 373.759 218.845C373.759 218.138 373.657 217.52 373.454 216.989C373.251 216.459 372.952 216.046 372.559 215.75C372.166 215.454 371.68 215.306 371.101 215.306C370.504 215.306 370.007 215.461 369.61 215.77C369.212 216.079 368.912 216.501 368.708 217.036C368.509 217.57 368.41 218.174 368.41 218.845C368.41 219.526 368.512 220.138 368.715 220.681C368.918 221.225 369.219 221.656 369.616 221.974C370.018 222.287 370.513 222.444 371.101 222.444ZM386.165 216.24L384.369 216.559C384.293 216.329 384.174 216.11 384.011 215.902C383.852 215.695 383.635 215.525 383.361 215.392C383.087 215.26 382.745 215.193 382.334 215.193C381.773 215.193 381.304 215.319 380.929 215.571C380.553 215.818 380.365 216.139 380.365 216.532C380.365 216.872 380.491 217.146 380.743 217.354C380.995 217.562 381.401 217.732 381.963 217.864L383.58 218.235C384.517 218.452 385.215 218.786 385.674 219.236C386.134 219.687 386.364 220.272 386.364 220.993C386.364 221.602 386.187 222.146 385.833 222.623C385.484 223.096 384.996 223.467 384.369 223.737C383.745 224.006 383.023 224.141 382.201 224.141C381.061 224.141 380.131 223.898 379.411 223.412C378.691 222.921 378.249 222.226 378.085 221.324L380.001 221.032C380.12 221.532 380.365 221.91 380.736 222.166C381.108 222.418 381.591 222.544 382.188 222.544C382.837 222.544 383.357 222.409 383.745 222.139C384.134 221.865 384.329 221.532 384.329 221.139C384.329 220.82 384.209 220.553 383.971 220.337C383.737 220.12 383.377 219.957 382.89 219.846L381.167 219.468C380.217 219.252 379.515 218.907 379.059 218.434C378.609 217.962 378.383 217.363 378.383 216.638C378.383 216.037 378.551 215.511 378.887 215.061C379.223 214.61 379.687 214.259 380.279 214.007C380.871 213.751 381.549 213.622 382.314 213.622C383.414 213.622 384.28 213.861 384.912 214.338C385.544 214.811 385.961 215.445 386.165 216.24Z" fill="black" fill-opacity="0.8"/>
<path d="M567 33.9355C566.172 33.9355 565.5 34.6071 565.5 35.4355C565.5 36.264 566.172 36.9355 567 36.9355V33.9355ZM698.061 189.496C698.646 188.91 698.646 187.961 698.061 187.375L688.515 177.829C687.929 177.243 686.979 177.243 686.393 177.829C685.808 178.415 685.808 179.364 686.393 179.95L694.879 188.436L686.393 196.921C685.808 197.507 685.808 198.456 686.393 199.042C686.979 199.628 687.929 199.628 688.515 199.042L698.061 189.496ZM567 36.9355H608V33.9355H567V36.9355ZM630.5 59.4355V90.4355H633.5V59.4355H630.5ZM630.5 133.436V164.436H633.5V133.436H630.5ZM656 189.936H697V186.936H656V189.936ZM630.5 164.436C630.5 178.519 641.917 189.936 656 189.936V186.936C643.574 186.936 633.5 176.862 633.5 164.436H630.5ZM608 36.9355C620.426 36.9355 630.5 47.0091 630.5 59.4355H633.5C633.5 45.3523 622.083 33.9355 608 33.9355V36.9355Z" fill="#0D99FF"/>
<path d="M520.164 118.436H517.99L522.874 104.861H525.241L530.125 118.436H527.952L524.114 107.327H524.008L520.164 118.436ZM520.528 113.12H527.58V114.843H520.528V113.12ZM536.051 118.641C535.066 118.641 534.217 118.418 533.506 117.972C532.799 117.521 532.255 116.9 531.875 116.109C531.495 115.318 531.305 114.412 531.305 113.392C531.305 112.358 531.5 111.445 531.889 110.654C532.277 109.859 532.825 109.238 533.532 108.792C534.239 108.346 535.072 108.122 536.031 108.122C536.804 108.122 537.494 108.266 538.099 108.553C538.704 108.836 539.193 109.234 539.564 109.746C539.939 110.259 540.162 110.858 540.233 111.542H538.304C538.198 111.065 537.955 110.654 537.575 110.31C537.2 109.965 536.696 109.793 536.064 109.793C535.512 109.793 535.028 109.938 534.613 110.23C534.202 110.517 533.881 110.928 533.652 111.463C533.422 111.993 533.307 112.621 533.307 113.345C533.307 114.088 533.42 114.728 533.645 115.267C533.87 115.806 534.188 116.224 534.599 116.52C535.015 116.816 535.503 116.964 536.064 116.964C536.44 116.964 536.78 116.896 537.085 116.759C537.394 116.617 537.653 116.416 537.86 116.156C538.072 115.895 538.22 115.581 538.304 115.214H540.233C540.162 115.873 539.948 116.46 539.59 116.977C539.232 117.494 538.753 117.901 538.152 118.197C537.555 118.493 536.855 118.641 536.051 118.641ZM546.641 118.641C545.655 118.641 544.807 118.418 544.096 117.972C543.389 117.521 542.845 116.9 542.465 116.109C542.085 115.318 541.895 114.412 541.895 113.392C541.895 112.358 542.09 111.445 542.478 110.654C542.867 109.859 543.415 109.238 544.122 108.792C544.829 108.346 545.662 108.122 546.621 108.122C547.394 108.122 548.083 108.266 548.689 108.553C549.294 108.836 549.782 109.234 550.154 109.746C550.529 110.259 550.752 110.858 550.823 111.542H548.894C548.788 111.065 548.545 110.654 548.165 110.31C547.79 109.965 547.286 109.793 546.654 109.793C546.102 109.793 545.618 109.938 545.202 110.23C544.792 110.517 544.471 110.928 544.241 111.463C544.012 111.993 543.897 112.621 543.897 113.345C543.897 114.088 544.009 114.728 544.235 115.267C544.46 115.806 544.778 116.224 545.189 116.52C545.605 116.816 546.093 116.964 546.654 116.964C547.03 116.964 547.37 116.896 547.675 116.759C547.984 116.617 548.243 116.416 548.45 116.156C548.662 115.895 548.81 115.581 548.894 115.214H550.823C550.752 115.873 550.538 116.46 550.18 116.977C549.822 117.494 549.343 117.901 548.742 118.197C548.145 118.493 547.445 118.641 546.641 118.641ZM557.33 118.641C556.327 118.641 555.463 118.427 554.738 117.998C554.018 117.565 553.461 116.958 553.068 116.175C552.679 115.389 552.485 114.468 552.485 113.412C552.485 112.369 552.679 111.45 553.068 110.654C553.461 109.859 554.009 109.238 554.712 108.792C555.419 108.346 556.245 108.122 557.191 108.122C557.765 108.122 558.322 108.217 558.861 108.407C559.4 108.597 559.884 108.896 560.313 109.302C560.741 109.709 561.079 110.237 561.327 110.886C561.574 111.531 561.698 112.316 561.698 113.239V113.942H553.605V112.457H559.756C559.756 111.936 559.65 111.474 559.438 111.072C559.226 110.665 558.927 110.345 558.543 110.111C558.163 109.877 557.717 109.76 557.204 109.76C556.647 109.76 556.161 109.897 555.746 110.17C555.335 110.44 555.017 110.793 554.792 111.231C554.571 111.664 554.46 112.135 554.46 112.643V113.803C554.46 114.483 554.579 115.062 554.818 115.539C555.061 116.016 555.399 116.381 555.832 116.633C556.265 116.88 556.771 117.004 557.35 117.004C557.725 117.004 558.068 116.951 558.377 116.845C558.687 116.734 558.954 116.571 559.179 116.354C559.405 116.138 559.577 115.871 559.696 115.552L561.572 115.89C561.422 116.443 561.152 116.927 560.763 117.342C560.379 117.753 559.895 118.073 559.312 118.303C558.733 118.528 558.072 118.641 557.33 118.641ZM563.897 122.253V108.255H565.832V109.905H565.998C566.113 109.693 566.278 109.448 566.495 109.17C566.711 108.891 567.012 108.648 567.396 108.441C567.781 108.228 568.289 108.122 568.921 108.122C569.743 108.122 570.476 108.33 571.121 108.745C571.766 109.161 572.272 109.76 572.639 110.542C573.01 111.324 573.196 112.265 573.196 113.365C573.196 114.465 573.012 115.409 572.646 116.195C572.279 116.977 571.775 117.581 571.134 118.005C570.494 118.425 569.762 118.634 568.941 118.634C568.322 118.634 567.816 118.531 567.423 118.323C567.034 118.115 566.729 117.872 566.508 117.594C566.287 117.315 566.117 117.068 565.998 116.851H565.878V122.253H563.897ZM565.839 113.345C565.839 114.061 565.943 114.689 566.15 115.228C566.358 115.767 566.658 116.189 567.052 116.494C567.445 116.794 567.927 116.944 568.497 116.944C569.089 116.944 569.584 116.787 569.981 116.474C570.379 116.156 570.679 115.725 570.883 115.181C571.09 114.638 571.194 114.026 571.194 113.345C571.194 112.674 571.092 112.07 570.889 111.536C570.69 111.001 570.39 110.579 569.988 110.27C569.59 109.961 569.093 109.806 568.497 109.806C567.922 109.806 567.436 109.954 567.038 110.25C566.645 110.546 566.347 110.959 566.144 111.489C565.94 112.02 565.839 112.638 565.839 113.345ZM580.168 108.255V109.846H574.608V108.255H580.168ZM576.099 105.816H578.081V115.446C578.081 115.831 578.138 116.12 578.253 116.315C578.368 116.505 578.516 116.635 578.697 116.706C578.883 116.772 579.084 116.805 579.3 116.805C579.459 116.805 579.598 116.794 579.718 116.772C579.837 116.75 579.93 116.732 579.996 116.719L580.354 118.356C580.239 118.4 580.076 118.444 579.863 118.489C579.651 118.537 579.386 118.564 579.068 118.568C578.547 118.577 578.061 118.484 577.61 118.29C577.159 118.095 576.795 117.795 576.516 117.388C576.238 116.982 576.099 116.471 576.099 115.857V105.816ZM593.298 110.787V112.51H587.28V110.787H593.298ZM612.312 109.276H610.244C610.165 108.834 610.017 108.445 609.8 108.109C609.584 107.773 609.319 107.488 609.005 107.254C608.691 107.02 608.34 106.843 607.951 106.724C607.567 106.605 607.158 106.545 606.725 106.545C605.943 106.545 605.243 106.742 604.624 107.135C604.01 107.528 603.524 108.105 603.166 108.865C602.812 109.625 602.636 110.553 602.636 111.648C602.636 112.753 602.812 113.685 603.166 114.446C603.524 115.206 604.012 115.78 604.631 116.169C605.249 116.558 605.945 116.752 606.718 116.752C607.147 116.752 607.554 116.695 607.938 116.58C608.327 116.46 608.678 116.286 608.992 116.056C609.306 115.826 609.571 115.546 609.787 115.214C610.008 114.879 610.161 114.494 610.244 114.061L612.312 114.068C612.202 114.735 611.988 115.349 611.67 115.91C611.356 116.467 610.951 116.949 610.457 117.355C609.966 117.757 609.405 118.069 608.773 118.29C608.141 118.511 607.452 118.621 606.705 118.621C605.53 118.621 604.483 118.343 603.563 117.786C602.644 117.225 601.92 116.423 601.39 115.38C600.864 114.337 600.601 113.093 600.601 111.648C600.601 110.199 600.866 108.955 601.396 107.917C601.926 106.874 602.651 106.074 603.57 105.518C604.489 104.956 605.534 104.676 606.705 104.676C607.425 104.676 608.097 104.78 608.72 104.987C609.348 105.191 609.911 105.491 610.41 105.889C610.909 106.282 611.323 106.764 611.65 107.334C611.977 107.899 612.198 108.547 612.312 109.276ZM614.604 118.436V108.255H616.52V109.872H616.626C616.811 109.324 617.138 108.893 617.607 108.58C618.079 108.262 618.614 108.103 619.21 108.103C619.334 108.103 619.48 108.107 619.648 108.116C619.82 108.125 619.955 108.136 620.052 108.149V110.045C619.973 110.022 619.831 109.998 619.628 109.972C619.425 109.941 619.222 109.925 619.018 109.925C618.55 109.925 618.132 110.025 617.766 110.223C617.403 110.418 617.116 110.69 616.904 111.039C616.692 111.383 616.586 111.777 616.586 112.219V118.436H614.604ZM625.79 118.641C624.787 118.641 623.924 118.427 623.199 117.998C622.479 117.565 621.922 116.958 621.529 116.175C621.14 115.389 620.945 114.468 620.945 113.412C620.945 112.369 621.14 111.45 621.529 110.654C621.922 109.859 622.47 109.238 623.172 108.792C623.879 108.346 624.706 108.122 625.651 108.122C626.226 108.122 626.782 108.217 627.321 108.407C627.861 108.597 628.344 108.896 628.773 109.302C629.202 109.709 629.54 110.237 629.787 110.886C630.035 111.531 630.158 112.316 630.158 113.239V113.942H622.065V112.457H628.216C628.216 111.936 628.11 111.474 627.898 111.072C627.686 110.665 627.388 110.345 627.003 110.111C626.623 109.877 626.177 109.76 625.664 109.76C625.108 109.76 624.622 109.897 624.206 110.17C623.795 110.44 623.477 110.793 623.252 111.231C623.031 111.664 622.92 112.135 622.92 112.643V113.803C622.92 114.483 623.04 115.062 623.278 115.539C623.521 116.016 623.859 116.381 624.292 116.633C624.726 116.88 625.231 117.004 625.81 117.004C626.186 117.004 626.528 116.951 626.838 116.845C627.147 116.734 627.414 116.571 627.64 116.354C627.865 116.138 628.037 115.871 628.157 115.552L630.032 115.89C629.882 116.443 629.613 116.927 629.224 117.342C628.839 117.753 628.355 118.073 627.772 118.303C627.193 118.528 626.533 118.641 625.79 118.641ZM636.168 118.634C635.346 118.634 634.613 118.425 633.968 118.005C633.327 117.581 632.823 116.977 632.456 116.195C632.094 115.409 631.913 114.465 631.913 113.365C631.913 112.265 632.096 111.324 632.463 110.542C632.834 109.76 633.342 109.161 633.988 108.745C634.633 108.33 635.364 108.122 636.181 108.122C636.813 108.122 637.321 108.228 637.706 108.441C638.095 108.648 638.395 108.891 638.607 109.17C638.824 109.448 638.992 109.693 639.111 109.905H639.23V104.861H641.212V118.436H639.277V116.851H639.111C638.992 117.068 638.819 117.315 638.594 117.594C638.373 117.872 638.068 118.115 637.679 118.323C637.291 118.531 636.787 118.634 636.168 118.634ZM636.606 116.944C637.176 116.944 637.657 116.794 638.051 116.494C638.448 116.189 638.749 115.767 638.952 115.228C639.16 114.689 639.263 114.061 639.263 113.345C639.263 112.638 639.162 112.02 638.959 111.489C638.755 110.959 638.457 110.546 638.064 110.25C637.671 109.954 637.184 109.806 636.606 109.806C636.009 109.806 635.512 109.961 635.114 110.27C634.717 110.579 634.416 111.001 634.213 111.536C634.014 112.07 633.915 112.674 633.915 113.345C633.915 114.026 634.016 114.638 634.22 115.181C634.423 115.725 634.723 116.156 635.121 116.474C635.523 116.787 636.018 116.944 636.606 116.944ZM644.041 118.436V108.255H646.022V118.436H644.041ZM645.041 106.684C644.697 106.684 644.401 106.569 644.153 106.339C643.91 106.105 643.789 105.827 643.789 105.504C643.789 105.177 643.91 104.899 644.153 104.669C644.401 104.435 644.697 104.318 645.041 104.318C645.386 104.318 645.68 104.435 645.923 104.669C646.17 104.899 646.294 105.177 646.294 105.504C646.294 105.827 646.17 106.105 645.923 106.339C645.68 106.569 645.386 106.684 645.041 106.684ZM653.441 108.255V109.846H647.88V108.255H653.441ZM649.371 105.816H651.353V115.446C651.353 115.831 651.41 116.12 651.525 116.315C651.64 116.505 651.788 116.635 651.969 116.706C652.155 116.772 652.356 116.805 652.572 116.805C652.731 116.805 652.871 116.794 652.99 116.772C653.109 116.75 653.202 116.732 653.268 116.719L653.626 118.356C653.511 118.4 653.348 118.444 653.136 118.489C652.924 118.537 652.659 118.564 652.34 118.568C651.819 118.577 651.333 118.484 650.882 118.29C650.432 118.095 650.067 117.795 649.789 117.388C649.51 116.982 649.371 116.471 649.371 115.857V105.816ZM663.098 110.74L661.301 111.059C661.226 110.829 661.107 110.61 660.944 110.402C660.784 110.195 660.568 110.025 660.294 109.892C660.02 109.76 659.678 109.693 659.267 109.693C658.705 109.693 658.237 109.819 657.862 110.071C657.486 110.318 657.298 110.639 657.298 111.032C657.298 111.372 657.424 111.646 657.676 111.854C657.928 112.062 658.334 112.232 658.895 112.364L660.513 112.735C661.449 112.952 662.148 113.286 662.607 113.736C663.067 114.187 663.296 114.772 663.296 115.493C663.296 116.102 663.12 116.646 662.766 117.123C662.417 117.596 661.929 117.967 661.301 118.237C660.678 118.506 659.956 118.641 659.134 118.641C657.994 118.641 657.064 118.398 656.344 117.912C655.623 117.421 655.182 116.726 655.018 115.824L656.934 115.532C657.053 116.032 657.298 116.41 657.669 116.666C658.04 116.918 658.524 117.044 659.121 117.044C659.77 117.044 660.29 116.909 660.678 116.639C661.067 116.365 661.262 116.032 661.262 115.639C661.262 115.32 661.142 115.053 660.904 114.837C660.67 114.62 660.309 114.457 659.823 114.346L658.1 113.968C657.15 113.752 656.448 113.407 655.992 112.934C655.542 112.462 655.316 111.863 655.316 111.138C655.316 110.537 655.484 110.011 655.82 109.561C656.156 109.11 656.62 108.759 657.212 108.507C657.804 108.251 658.482 108.122 659.247 108.122C660.347 108.122 661.213 108.361 661.845 108.838C662.477 109.311 662.894 109.945 663.098 110.74ZM670.574 118.436V104.861H675.412C676.464 104.861 677.337 105.043 678.03 105.405C678.729 105.767 679.25 106.269 679.595 106.909C679.939 107.546 680.112 108.281 680.112 109.117C680.112 109.947 679.937 110.679 679.588 111.31C679.243 111.938 678.722 112.426 678.024 112.775C677.33 113.124 676.457 113.299 675.406 113.299H671.741V111.536H675.22C675.883 111.536 676.422 111.441 676.837 111.251C677.257 111.061 677.564 110.785 677.759 110.422C677.953 110.06 678.05 109.625 678.05 109.117C678.05 108.604 677.951 108.16 677.752 107.784C677.558 107.409 677.251 107.122 676.831 106.923C676.415 106.719 675.87 106.618 675.194 106.618H672.622V118.436H670.574ZM677.275 112.311L680.629 118.436H678.296L675.008 112.311H677.275ZM686.705 118.641C685.702 118.641 684.838 118.427 684.113 117.998C683.393 117.565 682.836 116.958 682.443 116.175C682.054 115.389 681.86 114.468 681.86 113.412C681.86 112.369 682.054 111.45 682.443 110.654C682.836 109.859 683.384 109.238 684.087 108.792C684.794 108.346 685.62 108.122 686.566 108.122C687.14 108.122 687.697 108.217 688.236 108.407C688.775 108.597 689.259 108.896 689.687 109.302C690.116 109.709 690.454 110.237 690.702 110.886C690.949 111.531 691.073 112.316 691.073 113.239V113.942H682.98V112.457H689.131C689.131 111.936 689.025 111.474 688.813 111.072C688.6 110.665 688.302 110.345 687.918 110.111C687.538 109.877 687.091 109.76 686.579 109.76C686.022 109.76 685.536 109.897 685.121 110.17C684.71 110.44 684.392 110.793 684.166 111.231C683.945 111.664 683.835 112.135 683.835 112.643V113.803C683.835 114.483 683.954 115.062 684.193 115.539C684.436 116.016 684.774 116.381 685.207 116.633C685.64 116.88 686.146 117.004 686.725 117.004C687.1 117.004 687.443 116.951 687.752 116.845C688.061 116.734 688.329 116.571 688.554 116.354C688.779 116.138 688.952 115.871 689.071 115.552L690.947 115.89C690.797 116.443 690.527 116.927 690.138 117.342C689.754 117.753 689.27 118.073 688.687 118.303C688.108 118.528 687.447 118.641 686.705 118.641ZM697.56 118.641C696.574 118.641 695.726 118.418 695.015 117.972C694.308 117.521 693.764 116.9 693.384 116.109C693.004 115.318 692.814 114.412 692.814 113.392C692.814 112.358 693.009 111.445 693.397 110.654C693.786 109.859 694.334 109.238 695.041 108.792C695.748 108.346 696.581 108.122 697.54 108.122C698.313 108.122 699.003 108.266 699.608 108.553C700.213 108.836 700.701 109.234 701.073 109.746C701.448 110.259 701.671 110.858 701.742 111.542H699.813C699.707 111.065 699.464 110.654 699.084 110.31C698.709 109.965 698.205 109.793 697.573 109.793C697.021 109.793 696.537 109.938 696.122 110.23C695.711 110.517 695.39 110.928 695.16 111.463C694.931 111.993 694.816 112.621 694.816 113.345C694.816 114.088 694.929 114.728 695.154 115.267C695.379 115.806 695.697 116.224 696.108 116.52C696.524 116.816 697.012 116.964 697.573 116.964C697.949 116.964 698.289 116.896 698.594 116.759C698.903 116.617 699.162 116.416 699.369 116.156C699.581 115.895 699.729 115.581 699.813 115.214H701.742C701.671 115.873 701.457 116.46 701.099 116.977C700.741 117.494 700.262 117.901 699.661 118.197C699.064 118.493 698.364 118.641 697.56 118.641ZM708.249 118.641C707.246 118.641 706.382 118.427 705.658 117.998C704.937 117.565 704.381 116.958 703.987 116.175C703.598 115.389 703.404 114.468 703.404 113.412C703.404 112.369 703.598 111.45 703.987 110.654C704.381 109.859 704.928 109.238 705.631 108.792C706.338 108.346 707.164 108.122 708.11 108.122C708.684 108.122 709.241 108.217 709.78 108.407C710.319 108.597 710.803 108.896 711.232 109.302C711.66 109.709 711.998 110.237 712.246 110.886C712.493 111.531 712.617 112.316 712.617 113.239V113.942H704.524V112.457H710.675C710.675 111.936 710.569 111.474 710.357 111.072C710.145 110.665 709.846 110.345 709.462 110.111C709.082 109.877 708.636 109.76 708.123 109.76C707.566 109.76 707.08 109.897 706.665 110.17C706.254 110.44 705.936 110.793 705.711 111.231C705.49 111.664 705.379 112.135 705.379 112.643V113.803C705.379 114.483 705.498 115.062 705.737 115.539C705.98 116.016 706.318 116.381 706.751 116.633C707.184 116.88 707.69 117.004 708.269 117.004C708.645 117.004 708.987 116.951 709.296 116.845C709.606 116.734 709.873 116.571 710.098 116.354C710.324 116.138 710.496 115.871 710.615 115.552L712.491 115.89C712.341 116.443 712.071 116.927 711.682 117.342C711.298 117.753 710.814 118.073 710.231 118.303C709.652 118.528 708.991 118.641 708.249 118.641ZM714.816 118.436V108.255H716.798V118.436H714.816ZM715.817 106.684C715.472 106.684 715.176 106.569 714.928 106.339C714.685 106.105 714.564 105.827 714.564 105.504C714.564 105.177 714.685 104.899 714.928 104.669C715.176 104.435 715.472 104.318 715.817 104.318C716.161 104.318 716.455 104.435 716.698 104.669C716.946 104.899 717.069 105.177 717.069 105.504C717.069 105.827 716.946 106.105 716.698 106.339C716.455 106.569 716.161 106.684 715.817 106.684ZM728.173 108.255L724.481 118.436H722.36L718.662 108.255H720.789L723.367 116.089H723.474L726.045 108.255H728.173ZM734.077 118.641C733.074 118.641 732.21 118.427 731.485 117.998C730.765 117.565 730.208 116.958 729.815 116.175C729.426 115.389 729.232 114.468 729.232 113.412C729.232 112.369 729.426 111.45 729.815 110.654C730.208 109.859 730.756 109.238 731.459 108.792C732.166 108.346 732.992 108.122 733.937 108.122C734.512 108.122 735.069 108.217 735.608 108.407C736.147 108.597 736.631 108.896 737.059 109.302C737.488 109.709 737.826 110.237 738.073 110.886C738.321 111.531 738.444 112.316 738.444 113.239V113.942H730.352V112.457H736.502C736.502 111.936 736.396 111.474 736.184 111.072C735.972 110.665 735.674 110.345 735.29 110.111C734.91 109.877 734.463 109.76 733.951 109.76C733.394 109.76 732.908 109.897 732.493 110.17C732.082 110.44 731.763 110.793 731.538 111.231C731.317 111.664 731.207 112.135 731.207 112.643V113.803C731.207 114.483 731.326 115.062 731.565 115.539C731.808 116.016 732.146 116.381 732.579 116.633C733.012 116.88 733.518 117.004 734.097 117.004C734.472 117.004 734.815 116.951 735.124 116.845C735.433 116.734 735.701 116.571 735.926 116.354C736.151 116.138 736.324 115.871 736.443 115.552L738.319 115.89C738.168 116.443 737.899 116.927 737.51 117.342C737.126 117.753 736.642 118.073 736.058 118.303C735.48 118.528 734.819 118.641 734.077 118.641ZM740.643 118.436V108.255H742.559V109.872H742.665C742.85 109.324 743.177 108.893 743.646 108.58C744.119 108.262 744.653 108.103 745.25 108.103C745.373 108.103 745.519 108.107 745.687 108.116C745.86 108.125 745.994 108.136 746.092 108.149V110.045C746.012 110.022 745.871 109.998 745.667 109.972C745.464 109.941 745.261 109.925 745.058 109.925C744.589 109.925 744.172 110.025 743.805 110.223C743.443 110.418 743.155 110.69 742.943 111.039C742.731 111.383 742.625 111.777 742.625 112.219V118.436H740.643Z" fill="black" fill-opacity="0.8"/>
<rect y="249.436" width="50" height="40" rx="10" fill="#F24822"/>
<path d="M67.0357 275.436H62.6413V261.861H67.1749C68.5049 261.861 69.6471 262.133 70.6015 262.677C71.556 263.216 72.2873 263.991 72.7954 265.003C73.308 266.011 73.5643 267.219 73.5643 268.629C73.5643 270.043 73.3058 271.258 72.7888 272.274C72.2762 273.29 71.5339 274.072 70.5618 274.62C69.5897 275.164 68.4143 275.436 67.0357 275.436ZM64.6894 273.646H66.923C67.957 273.646 68.8164 273.452 69.5013 273.063C70.1862 272.669 70.6988 272.102 71.039 271.359C71.3792 270.613 71.5493 269.702 71.5493 268.629C71.5493 267.564 71.3792 266.66 71.039 265.918C70.7032 265.175 70.2017 264.612 69.5344 264.228C68.8672 263.843 68.0387 263.651 67.049 263.651H64.6894V273.646ZM80.3397 275.641C79.3367 275.641 78.4728 275.427 77.7482 274.998C77.0279 274.565 76.4712 273.958 76.0779 273.175C75.6891 272.389 75.4947 271.468 75.4947 270.412C75.4947 269.369 75.6891 268.45 76.0779 267.654C76.4712 266.859 77.0191 266.238 77.7217 265.792C78.4286 265.346 79.2549 265.122 80.2005 265.122C80.7749 265.122 81.3317 265.217 81.8708 265.407C82.4098 265.597 82.8937 265.896 83.3223 266.302C83.7509 266.709 84.0889 267.237 84.3364 267.886C84.5838 268.531 84.7075 269.316 84.7075 270.239V270.942H76.6148V269.457H82.7655C82.7655 268.936 82.6595 268.474 82.4474 268.072C82.2353 267.665 81.937 267.345 81.5526 267.111C81.1726 266.877 80.7263 266.76 80.2138 266.76C79.657 266.76 79.171 266.897 78.7556 267.17C78.3447 267.44 78.0265 267.793 77.8012 268.231C77.5803 268.664 77.4698 269.135 77.4698 269.643V270.803C77.4698 271.483 77.5891 272.062 77.8277 272.539C78.0707 273.016 78.4088 273.381 78.8418 273.633C79.2748 273.88 79.7807 274.004 80.3596 274.004C80.7352 274.004 81.0776 273.951 81.3869 273.845C81.6962 273.734 81.9636 273.571 82.1889 273.354C82.4143 273.138 82.5866 272.871 82.7059 272.552L84.5816 272.89C84.4314 273.443 84.1618 273.927 83.773 274.342C83.3886 274.753 82.9047 275.073 82.3215 275.303C81.7426 275.528 81.082 275.641 80.3397 275.641ZM87.0654 275.436V261.861H89.0472V266.905H89.1665C89.2814 266.693 89.4471 266.448 89.6636 266.17C89.8801 265.891 90.1806 265.648 90.565 265.441C90.9494 265.228 91.4576 265.122 92.0895 265.122C92.9113 265.122 93.6448 265.33 94.2899 265.745C94.9351 266.161 95.441 266.76 95.8077 267.542C96.1789 268.324 96.3645 269.265 96.3645 270.365C96.3645 271.465 96.1811 272.409 95.8144 273.195C95.4476 273.977 94.9439 274.581 94.3032 275.005C93.6625 275.425 92.9312 275.634 92.1093 275.634C91.4907 275.634 90.9848 275.531 90.5915 275.323C90.2027 275.115 89.8978 274.872 89.6769 274.594C89.4559 274.315 89.2858 274.068 89.1665 273.851H89.0008V275.436H87.0654ZM89.0074 270.345C89.0074 271.061 89.1113 271.689 89.319 272.228C89.5266 272.767 89.8271 273.189 90.2204 273.494C90.6136 273.794 91.0953 273.944 91.6653 273.944C92.2574 273.944 92.7522 273.787 93.1499 273.474C93.5476 273.156 93.8481 272.725 94.0513 272.181C94.259 271.638 94.3628 271.026 94.3628 270.345C94.3628 269.674 94.2612 269.07 94.058 268.536C93.8591 268.001 93.5587 267.579 93.1566 267.27C92.7589 266.961 92.2618 266.806 91.6653 266.806C91.0908 266.806 90.6048 266.954 90.2071 267.25C89.8138 267.546 89.5156 267.959 89.3123 268.489C89.1091 269.02 89.0074 269.638 89.0074 270.345ZM98.5898 275.436V265.255H100.572V275.436H98.5898ZM99.5907 263.684C99.246 263.684 98.95 263.569 98.7025 263.339C98.4595 263.105 98.338 262.827 98.338 262.504C98.338 262.177 98.4595 261.899 98.7025 261.669C98.95 261.435 99.246 261.318 99.5907 261.318C99.9353 261.318 100.229 261.435 100.472 261.669C100.72 261.899 100.843 262.177 100.843 262.504C100.843 262.827 100.72 263.105 100.472 263.339C100.229 263.569 99.9353 263.684 99.5907 263.684ZM107.99 265.255V266.846H102.429V265.255H107.99ZM103.92 262.816H105.902V272.446C105.902 272.831 105.96 273.12 106.074 273.315C106.189 273.505 106.337 273.635 106.519 273.706C106.704 273.772 106.905 273.805 107.122 273.805C107.281 273.805 107.42 273.794 107.539 273.772C107.659 273.75 107.751 273.732 107.818 273.719L108.176 275.356C108.061 275.4 107.897 275.444 107.685 275.489C107.473 275.537 107.208 275.564 106.89 275.568C106.368 275.577 105.882 275.484 105.432 275.29C104.981 275.095 104.616 274.795 104.338 274.388C104.06 273.982 103.92 273.471 103.92 272.857V262.816Z" fill="black" fill-opacity="0.8"/>
<rect x="144" y="249.436" width="50" height="40" rx="10" fill="#0D99FF"/>
<path d="M214.889 266.276H212.821C212.741 265.834 212.593 265.445 212.377 265.109C212.16 264.773 211.895 264.488 211.581 264.254C211.268 264.02 210.916 263.843 210.527 263.724C210.143 263.605 209.734 263.545 209.301 263.545C208.519 263.545 207.819 263.742 207.2 264.135C206.586 264.528 206.1 265.105 205.742 265.865C205.389 266.625 205.212 267.553 205.212 268.648C205.212 269.753 205.389 270.685 205.742 271.446C206.1 272.206 206.588 272.78 207.207 273.169C207.825 273.558 208.521 273.752 209.295 273.752C209.723 273.752 210.13 273.695 210.514 273.58C210.903 273.46 211.254 273.286 211.568 273.056C211.882 272.826 212.147 272.546 212.363 272.214C212.584 271.879 212.737 271.494 212.821 271.061L214.889 271.068C214.778 271.735 214.564 272.349 214.246 272.91C213.932 273.467 213.528 273.949 213.033 274.355C212.542 274.757 211.981 275.069 211.349 275.29C210.717 275.511 210.028 275.621 209.281 275.621C208.106 275.621 207.059 275.343 206.14 274.786C205.221 274.225 204.496 273.423 203.966 272.38C203.44 271.337 203.177 270.093 203.177 268.648C203.177 267.199 203.442 265.955 203.972 264.917C204.503 263.874 205.227 263.074 206.146 262.518C207.065 261.956 208.11 261.676 209.281 261.676C210.002 261.676 210.673 261.78 211.296 261.987C211.924 262.191 212.487 262.491 212.986 262.889C213.486 263.282 213.899 263.764 214.226 264.334C214.553 264.899 214.774 265.547 214.889 266.276ZM217.18 275.436V265.255H219.096V266.872H219.202C219.387 266.324 219.714 265.893 220.183 265.58C220.656 265.262 221.19 265.103 221.787 265.103C221.91 265.103 222.056 265.107 222.224 265.116C222.396 265.125 222.531 265.136 222.628 265.149V267.045C222.549 267.022 222.408 266.998 222.204 266.972C222.001 266.941 221.798 266.925 221.594 266.925C221.126 266.925 220.709 267.025 220.342 267.223C219.979 267.418 219.692 267.69 219.48 268.039C219.268 268.383 219.162 268.777 219.162 269.219V275.436H217.18ZM228.367 275.641C227.364 275.641 226.5 275.427 225.775 274.998C225.055 274.565 224.498 273.958 224.105 273.175C223.716 272.389 223.522 271.468 223.522 270.412C223.522 269.369 223.716 268.45 224.105 267.654C224.498 266.859 225.046 266.238 225.749 265.792C226.456 265.346 227.282 265.122 228.227 265.122C228.802 265.122 229.359 265.217 229.898 265.407C230.437 265.597 230.921 265.896 231.349 266.302C231.778 266.709 232.116 267.237 232.363 267.886C232.611 268.531 232.734 269.316 232.734 270.239V270.942H224.642V269.457H230.792C230.792 268.936 230.686 268.474 230.474 268.072C230.262 267.665 229.964 267.345 229.58 267.111C229.2 266.877 228.753 266.76 228.241 266.76C227.684 266.76 227.198 266.897 226.783 267.17C226.372 267.44 226.053 267.793 225.828 268.231C225.607 268.664 225.497 269.135 225.497 269.643V270.803C225.497 271.483 225.616 272.062 225.855 272.539C226.098 273.016 226.436 273.381 226.869 273.633C227.302 273.88 227.808 274.004 228.386 274.004C228.762 274.004 229.105 273.951 229.414 273.845C229.723 273.734 229.99 273.571 230.216 273.354C230.441 273.138 230.614 272.871 230.733 272.552L232.609 272.89C232.458 273.443 232.189 273.927 231.8 274.342C231.415 274.753 230.932 275.073 230.348 275.303C229.77 275.528 229.109 275.641 228.367 275.641ZM238.744 275.634C237.923 275.634 237.189 275.425 236.544 275.005C235.903 274.581 235.399 273.977 235.033 273.195C234.67 272.409 234.489 271.465 234.489 270.365C234.489 269.265 234.673 268.324 235.039 267.542C235.41 266.76 235.919 266.161 236.564 265.745C237.209 265.33 237.94 265.122 238.758 265.122C239.389 265.122 239.898 265.228 240.282 265.441C240.671 265.648 240.971 265.891 241.183 266.17C241.4 266.448 241.568 266.693 241.687 266.905H241.806V261.861H243.788V275.436H241.853V273.851H241.687C241.568 274.068 241.396 274.315 241.17 274.594C240.949 274.872 240.644 275.115 240.256 275.323C239.867 275.531 239.363 275.634 238.744 275.634ZM239.182 273.944C239.752 273.944 240.233 273.794 240.627 273.494C241.024 273.189 241.325 272.767 241.528 272.228C241.736 271.689 241.84 271.061 241.84 270.345C241.84 269.638 241.738 269.02 241.535 268.489C241.331 267.959 241.033 267.546 240.64 267.25C240.247 266.954 239.761 266.806 239.182 266.806C238.585 266.806 238.088 266.961 237.691 267.27C237.293 267.579 236.992 268.001 236.789 268.536C236.59 269.07 236.491 269.674 236.491 270.345C236.491 271.026 236.592 271.638 236.796 272.181C236.999 272.725 237.299 273.156 237.697 273.474C238.099 273.787 238.594 273.944 239.182 273.944ZM246.617 275.436V265.255H248.599V275.436H246.617ZM247.618 263.684C247.273 263.684 246.977 263.569 246.729 263.339C246.486 263.105 246.365 262.827 246.365 262.504C246.365 262.177 246.486 261.899 246.729 261.669C246.977 261.435 247.273 261.318 247.618 261.318C247.962 261.318 248.256 261.435 248.499 261.669C248.747 261.899 248.87 262.177 248.87 262.504C248.87 262.827 248.747 263.105 248.499 263.339C248.256 263.569 247.962 263.684 247.618 263.684ZM256.017 265.255V266.846H250.456V265.255H256.017ZM251.947 262.816H253.929V272.446C253.929 272.831 253.987 273.12 254.101 273.315C254.216 273.505 254.364 273.635 254.545 273.706C254.731 273.772 254.932 273.805 255.149 273.805C255.308 273.805 255.447 273.794 255.566 273.772C255.685 273.75 255.778 273.732 255.845 273.719L256.202 275.356C256.088 275.4 255.924 275.444 255.712 275.489C255.5 275.537 255.235 275.564 254.917 275.568C254.395 275.577 253.909 275.484 253.458 275.29C253.008 275.095 252.643 274.795 252.365 274.388C252.086 273.982 251.947 273.471 251.947 272.857V262.816Z" fill="black" fill-opacity="0.8"/>
</svg>
